<?xml version="1.0" encoding="utf-8"?>
<!-- Generator: Adobe Illustrator 27.5.0, SVG Export Plug-In . SVG Version: 6.00 Build 0)  -->
<svg version="1.1" xmlns="http://www.w3.org/2000/svg" xmlns:xlink="http://www.w3.org/1999/xlink" x="0px" y="0px"
	 viewBox="0 0 3710 3710" style="enable-background:new 0 0 3710 3710;" xml:space="preserve">
<g id="Background">
	<g>
		<g>
			<rect style="fill:#FFFFFF;" width="3710" height="3710"/>
		</g>
	</g>
</g>
<g id="Illustration">
	<g>
		<linearGradient id="SVGID_1_" gradientUnits="userSpaceOnUse" x1="3491.5837" y1="3301.1191" x2="1395.4011" y2="1466.9608">
			<stop  offset="0" style="stop-color:#B37CFF"/>
			<stop  offset="1" style="stop-color:#F895E7"/>
		</linearGradient>
		<path style="opacity:0.3;fill:url(#SVGID_1_);" d="M3142.373,2344.853c-272.427,633.08-998.111,987.736-1627.426,892.069
			c-102.402-15.567-383.141-61.938-631.696-280.703C404.766,2535.079,302.439,1701.17,688.418,1113.494
			c280.925-427.725,784.513-670.188,1263.019-658.059c103.07,2.612,498.079,18.713,845.223,301.222
			c50.989,41.495,163.449,140.099,264.803,296.527C3299.461,1420.506,3319.918,1932.266,3142.373,2344.853z"/>
		<g>
			
				<linearGradient id="SVGID_00000015332637215604408830000000427241389327226801_" gradientUnits="userSpaceOnUse" x1="500.9997" y1="1716.3823" x2="-42.1708" y2="3308.4368" gradientTransform="matrix(-0.9744 -0.2246 -0.2246 0.9744 3844.8428 110.5874)">
				<stop  offset="0" style="stop-color:#ED539F"/>
				<stop  offset="1" style="stop-color:#A061C2"/>
			</linearGradient>
			<path style="fill:url(#SVGID_00000015332637215604408830000000427241389327226801_);" d="M3199.069,2353.606
				c-20.796-40.541-18.316-88.954,6.381-127.244c26.366-40.878,45.492-92.156,53.18-149.167
				c20.177-149.614-46.055-282.038-147.932-295.777c-101.877-13.739-200.821,96.409-220.998,246.024
				c-3.917,29.043-4.575,57.437-2.35,84.441c3.375,40.948-13.095,81.021-44.784,107.173
				c-30.102,24.841-51.281,60.651-56.909,102.379c-7.684,56.976,15.514,110.992,56.724,145.18
				c24.411,20.251,40.409,48.725,44.653,80.156c12.038,89.188,65.507,158.857,137.957,168.628
				c92.854,12.522,181.714-78.084,198.476-202.374C3231.458,2453.771,3221.616,2397.563,3199.069,2353.606z"/>
			
				<linearGradient id="SVGID_00000006705007014412187700000013744265619131082881_" gradientUnits="userSpaceOnUse" x1="1337.1871" y1="2950.0134" x2="1554.5819" y2="2294.561" gradientTransform="matrix(0.9911 0.1337 -0.1337 0.9911 1963.3228 -268.5443)">
				<stop  offset="0" style="stop-color:#CB236D"/>
				<stop  offset="1" style="stop-color:#4C246D"/>
			</linearGradient>
			<path style="fill:url(#SVGID_00000006705007014412187700000013744265619131082881_);" d="M3022.873,2896.669
				c-2.291-0.528-4.182-2.342-4.688-4.795c-25.06-121.247-12.033-315.044,3.309-456.269
				c16.595-152.755,39.385-278.64,39.614-279.894c0.615-3.374,3.847-5.611,7.219-4.996c3.362,0.61,5.611,3.845,4.997,7.219
				c-0.909,4.995-90.379,502.095-42.979,731.426c0.694,3.357-1.466,6.642-4.823,7.336
				C3024.617,2896.883,3023.718,2896.864,3022.873,2896.669z"/>
		</g>
		<g>
			
				<linearGradient id="SVGID_00000077326145605913795060000005539902821407197075_" gradientUnits="userSpaceOnUse" x1="1937.1563" y1="569.395" x2="1535.3401" y2="2518.7534" gradientTransform="matrix(-0.9976 -0.0696 -0.0696 0.9976 2706.5127 144.3725)">
				<stop  offset="0" style="stop-color:#EA4D70"/>
				<stop  offset="1" style="stop-color:#3840F7"/>
			</linearGradient>
			<path style="fill:url(#SVGID_00000077326145605913795060000005539902821407197075_);" d="M962.753,2430.048
				c-124.921,15.091-273.328-125.058-314.196-269.709c-42.058-148.859,57.872-203.019,71.19-404.582
				c15.129-228.969-106.356-272.109-166.782-586.377c-13.633-70.905-92.528-481.227,45.35-547.489
				c127.483-61.266,457.914,163.13,500.389,423.802c30.287,185.871-108.127,253.371-72.165,469.904
				c31.554,189.993,148.554,200.871,180.877,384.308C1246.766,2123.222,1126.775,2410.236,962.753,2430.048z"/>
			
				<linearGradient id="SVGID_00000031171662687260163510000000076639232016349340_" gradientUnits="userSpaceOnUse" x1="1845.158" y1="1010.9551" x2="1548.807" y2="2448.6628" gradientTransform="matrix(-0.9976 -0.0696 -0.0696 0.9976 2706.5127 144.3725)">
				<stop  offset="0" style="stop-color:#2B3582"/>
				<stop  offset="1" style="stop-color:#150E42"/>
			</linearGradient>
			<path style="fill:url(#SVGID_00000031171662687260163510000000076639232016349340_);" d="M949.933,2484.882
				c50.433-244.314,12.149-629.33-28.849-909.3c-44.386-303.113-101.413-551.809-101.983-554.287l-10.46,2.177
				c0.57,2.474,57.519,250.84,101.846,553.565c40.874,279.154,79.075,662.901,28.935,905.787L949.933,2484.882z"/>
		</g>
		<g>
			<g>
				
					<linearGradient id="SVGID_00000162313237228020921260000018292088895367756464_" gradientUnits="userSpaceOnUse" x1="-907.0201" y1="2736.6187" x2="-356.8985" y2="1086.2493" gradientTransform="matrix(-1 0 0 1 1155.7772 0)">
					<stop  offset="0" style="stop-color:#2B3582"/>
					<stop  offset="1" style="stop-color:#150E42"/>
				</linearGradient>
				<path style="fill:url(#SVGID_00000162313237228020921260000018292088895367756464_);" d="M642.339,2796.49
					c0,23.668,19.383,43.032,43.074,43.032h2329.263c23.691,0,43.074-19.364,43.074-43.032l19.382-1338.564
					c0-23.668-27.885-69.874-78.989-66.402L721.73,1332.622c-29.726-0.769-58.466,10.672-79.516,31.653
					c-21.049,20.98-32.567,49.667-31.864,79.365L642.339,2796.49z"/>
				
					<linearGradient id="SVGID_00000021822094812000859400000003161626738600436381_" gradientUnits="userSpaceOnUse" x1="1569.5555" y1="2973.8953" x2="2435.2532" y2="38.4852">
					<stop  offset="0" style="stop-color:#FDF53F"/>
					<stop  offset="1" style="stop-color:#D93C65"/>
				</linearGradient>
				<path style="fill:url(#SVGID_00000021822094812000859400000003161626738600436381_);" d="M684.864,2755.205
					c0,22.412,18.338,40.751,40.751,40.751h2232.89c22.413,0,40.751-18.339,40.751-40.751l18.29-1215.16
					c-2.154-73.126-66.264-99.408-105.127-97.856l-2181.8-58.534c-20.883-0.56-41.08,7.48-55.865,22.239
					c-14.785,14.759-22.86,34.942-22.336,55.826L684.864,2755.205z"/>
				<g>
					<path style="fill:#FFFFFF;" d="M2975.125,2177.468c-0.027,0-0.055,0-0.082,0c-3.052-0.045-5.488-2.558-5.441-5.606
						l1.447-98.546c0.045-3.048,2.547-5.264,5.6-5.441c3.052,0.044,5.488,2.558,5.441,5.607l-1.446,98.546
						C2980.599,2175.048,2978.135,2177.468,2975.125,2177.468z"/>
					<path style="fill:#FFFFFF;" d="M2978.673,1935.975c-0.027,0-0.055,0-0.083,0c-3.051-0.045-5.488-2.558-5.441-5.606
						l5.543-377.439c-0.105-22.555-6.957-40.564-20.367-53.413c-24.99-23.945-64.636-22.705-66.331-22.655l-697.302-18.698
						c-3.048-0.077-5.451-2.619-5.372-5.667c0.08-2.999,2.535-5.375,5.519-5.375c0.049,0,0.099,0,0.15,0.006l696.919,18.698
						c4.324-0.204,46.203-0.971,74.056,25.714c15.654,15.004,23.653,35.675,23.771,61.444l-5.545,377.55
						C2984.146,1933.555,2981.682,1935.975,2978.673,1935.975z"/>
				</g>
				
					<linearGradient id="SVGID_00000092417403113435439120000001264255660701033130_" gradientUnits="userSpaceOnUse" x1="1775.4469" y1="3167.623" x2="1624.9039" y2="3981.9263">
					<stop  offset="0" style="stop-color:#2B3582"/>
					<stop  offset="1" style="stop-color:#150E42"/>
				</linearGradient>
				<path style="fill:url(#SVGID_00000092417403113435439120000001264255660701033130_);" d="M459.051,2950.639h2734.764
					c3.12,0,5.673-2.552,5.673-5.672v-106.266c0-3.12-2.553-5.673-5.673-5.673H459.051c-3.12,0-5.673,2.552-5.673,5.673v106.265
					C453.378,2948.086,455.931,2950.639,459.051,2950.639z"/>
			</g>
		</g>
		<g>
			<g>
				
					<linearGradient id="SVGID_00000097463980975656795980000009138260295803435954_" gradientUnits="userSpaceOnUse" x1="951.0635" y1="2675.9004" x2="4324.5396" y2="-1192.3461">
					<stop  offset="0" style="stop-color:#53D8FF"/>
					<stop  offset="1" style="stop-color:#3840F7"/>
				</linearGradient>
				<path style="fill:url(#SVGID_00000097463980975656795980000009138260295803435954_);" d="M969.125,574.207h1841.3
					c50.206,0,90.648,52.978,89.738,117.554l-25.905,1837.665c-1.219,86.488-56.512,155.469-169.682,154.384l-1783.366-28.79
					c-3.214-0.793-42.722-52.291-42.693-115.52l0.857-1849.901C879.402,625.858,919.577,574.207,969.125,574.207z"/>
				<path style="opacity:0.6;fill:#FFFFFF;" d="M1009.732,623.971h1768.08c48.209,0,87.043,50.337,86.169,111.693l-24.875,1746.045
					c-1.171,82.177-54.265,147.718-118.828,146.687l-1712.45-27.354c-47.192-0.754-85.13-49.684-85.102-109.76l0.823-1757.672
					C923.577,673.047,962.155,623.971,1009.732,623.971z"/>
			</g>
			<g>
				
					<linearGradient id="SVGID_00000142889628471685102720000001345898522604397714_" gradientUnits="userSpaceOnUse" x1="2242.1504" y1="-309.7382" x2="1691.8169" y2="1376.2014">
					<stop  offset="0" style="stop-color:#53D8FF"/>
					<stop  offset="1" style="stop-color:#3840F7"/>
				</linearGradient>
				<path style="fill:url(#SVGID_00000142889628471685102720000001345898522604397714_);" d="M2861.299,885.541H922.726V644.412
					c0-14.308,11.599-25.907,25.907-25.907H2836.85c13.503,0,24.449,10.946,24.449,24.449V885.541z"/>
				<path style="fill:#FFFFFF;" d="M2701.616,797.421c-28.67,0-51.996-21.586-51.996-48.12c0-26.534,23.325-48.123,51.996-48.123
					c28.67,0,51.994,21.589,51.994,48.123C2753.61,775.836,2730.286,797.421,2701.616,797.421z M2701.616,707.971
					c-24.926,0-45.203,18.541-45.203,41.33c0,22.786,20.277,41.327,45.203,41.327c24.924,0,45.201-18.541,45.201-41.327
					C2746.817,726.512,2726.54,707.971,2701.616,707.971z"/>
				<path style="fill:#FFFFFF;" d="M2533.413,801.05c-28.67,0-51.994-21.589-51.994-48.123s23.323-48.123,51.994-48.123
					c28.67,0,51.994,21.589,51.994,48.123S2562.083,801.05,2533.413,801.05z M2533.413,711.596
					c-24.924,0-45.201,18.541-45.201,41.331c0,22.79,20.277,41.331,45.201,41.331s45.201-18.541,45.201-41.331
					C2578.615,730.137,2558.337,711.596,2533.413,711.596z"/>
				<path style="fill:#FFFFFF;" d="M2371.788,801.05c-28.67,0-51.994-21.589-51.994-48.123s23.324-48.123,51.994-48.123
					c28.67,0,51.994,21.589,51.994,48.123S2400.458,801.05,2371.788,801.05z M2371.788,711.596
					c-24.924,0-45.201,18.541-45.201,41.331c0,22.79,20.277,41.331,45.201,41.331c24.924,0,45.201-18.541,45.201-41.331
					C2416.989,730.137,2396.712,711.596,2371.788,711.596z"/>
			</g>
			<g style="opacity:0.85;">
				<path style="fill:#FFFFFF;" d="M1020.298,698.857c0.008,9.625-7.748,17.143-17.33,16.792
					c-9.587-0.352-17.37-8.447-17.379-18.081c-0.009-9.634,7.759-17.152,17.347-16.792
					C1012.518,681.136,1020.289,689.232,1020.298,698.857z"/>
				<path style="fill:#FFFFFF;" d="M1020.344,749.924c0.008,9.625-7.748,17.153-17.329,16.815
					c-9.587-0.338-17.369-8.422-17.378-18.056c-0.009-9.634,7.759-17.162,17.346-16.815
					C1012.564,732.215,1020.335,740.299,1020.344,749.924z"/>
				<path style="fill:#FFFFFF;" d="M1020.39,800.988c0.009,9.624-7.748,17.163-17.329,16.839
					c-9.587-0.325-17.369-8.398-17.377-18.031c-0.009-9.634,7.759-17.172,17.346-16.838
					C1012.611,783.291,1020.381,791.363,1020.39,800.988z"/>
			</g>
			<g style="opacity:0.8;">
				<path style="fill:#FFFFFF;" d="M1202.542,1103.525l1101.833,10.706c13.789,0.134,25.443-11.396,25.216-25.742l-0.017-1.056
					c-0.227-14.346-12.933-26.082-26.723-26.239l-1101.563-12.535c-14.767-0.169-27.87,11.763-27.634,26.626l0.017,1.095
					C1173.906,1091.242,1187.776,1103.381,1202.542,1103.525z"/>
				<path style="fill:#FFFFFF;" d="M2420.052,1115.373l224.482,2.208c13.496,0.132,23.708-11.258,23.483-25.45l-0.017-1.046
					c-0.224-14.193-10.591-25.835-24.089-25.989l-224.441-2.582c-13.702-0.156-24.197,11.315-23.97,25.63l0.016,1.055
					C2395.745,1103.515,2406.351,1115.239,2420.052,1115.373z"/>
				<path style="fill:#FFFFFF;" d="M1203.533,1230.141l725.716,4.278c13.78,0.081,24.553-11.335,24.329-25.504l-0.037-2.312
					c-0.224-14.17-12.084-25.733-25.864-25.837l-724.962-5.491c-14.417-0.109-27.296,11.586-27.067,26.094l0.037,2.368
					C1175.916,1218.246,1189.118,1230.056,1203.533,1230.141z"/>
				<path style="fill:#FFFFFF;" d="M2718.249,1211.762c-0.219-13.835-12.322-25.111-25.461-25.211l-691.602-5.22
					c-13.729-0.104-25.894,11.309-25.67,25.468l0.037,2.309c0.224,14.159,13.111,25.678,26.84,25.76l691.839,4.071
					c13.138,0.078,24.271-11.085,24.052-24.92L2718.249,1211.762z"/>
				<path style="fill:#FFFFFF;" d="M1213.04,1766.913l1101.833,10.707c13.789,0.135,25.443-11.396,25.216-25.741l-0.017-1.057
					c-0.227-14.346-12.933-26.081-26.724-26.239l-1101.562-12.535c-14.767-0.168-27.87,11.765-27.635,26.627l0.017,1.094
					C1184.404,1754.632,1198.274,1766.77,1213.04,1766.913z"/>
				<path style="fill:#FFFFFF;" d="M2654.41,1728.484l-224.441-2.582c-13.702-0.156-24.197,11.316-23.97,25.632l0.017,1.055
					c0.226,14.315,10.833,26.04,24.535,26.174l224.482,2.208c13.496,0.132,23.708-11.258,23.483-25.451l-0.017-1.046
					C2678.274,1740.281,2667.908,1728.639,2654.41,1728.484z"/>
				<path style="fill:#FFFFFF;" d="M1938.175,1844.155l-724.962-5.49c-14.416-0.109-27.296,11.585-27.066,26.095l0.037,2.366
					c0.229,14.509,13.431,26.319,27.847,26.405l725.716,4.278c13.78,0.082,24.553-11.335,24.329-25.505l-0.037-2.311
					C1963.815,1855.823,1951.956,1844.259,1938.175,1844.155z"/>
				<path style="fill:#FFFFFF;" d="M2660.836,1850.611l-650.694-5.867c-12.917-0.117-24.351,11.284-24.127,25.443l0.036,2.31
					c0.224,14.159,12.36,25.69,25.276,25.784l650.917,4.719c12.361,0.091,22.825-11.062,22.606-24.897l-0.036-2.257
					C2684.595,1862.011,2673.197,1850.724,2660.836,1850.611z"/>
				<path style="fill:#FFFFFF;" d="M1206.844,1369.394l1101.64,1.874c13.785,0.023,25.398-11.593,25.171-25.934l-0.017-1.057
					c-0.227-14.342-12.952-25.984-26.738-26.031l-1101.29-3.702c-14.763-0.05-27.981,11.977-27.746,26.835l0.017,1.095
					C1178.117,1357.332,1192.083,1369.369,1206.844,1369.394z"/>
				<path style="fill:#FFFFFF;" d="M2424.128,1371.477l224.449,0.399c13.493,0.023,23.686-11.451,23.462-25.64l-0.017-1.046
					c-0.225-14.189-10.59-25.74-24.084-25.786l-224.383-0.774c-13.698-0.047-24.224,11.512-23.997,25.824l0.017,1.054
					C2399.8,1359.822,2410.43,1371.453,2424.128,1371.477z"/>
				<path style="fill:#FFFFFF;" d="M1207.823,1495.981l725.608-1.537c13.776-0.029,24.483-11.531,24.258-25.697l-0.036-2.31
					c-0.224-14.166-12.076-25.637-25.853-25.631l-724.763,0.324c-14.412,0.006-27.407,11.794-27.177,26.299l0.037,2.367
					C1180.126,1484.3,1193.411,1496.012,1207.823,1495.981z"/>
				<path style="fill:#FFFFFF;" d="M2680.745,1618.752c-0.219-13.848-11.411-25.013-24.579-24.943l-692.236,3.658
					c-13.761,0.072-25.992,11.64-25.768,25.813l0.036,2.312c0.225,14.172,12.702,25.565,26.462,25.47l692.973-4.816
					c13.167-0.091,23.367-11.387,23.148-25.234L2680.745,1618.752z"/>
				<path style="fill:#FFFFFF;" d="M2285.777,1493.703c14.085-0.03,25.303-11.923,25.067-26.566
					c-0.236-14.642-11.838-26.507-25.924-26.501l-265.193,0.116c-14.333,0.006-25.766,11.999-25.525,26.786
					c0.241,14.787,12.064,26.749,26.396,26.719L2285.777,1493.703z"/>
				<path style="fill:#FFFFFF;" d="M2676.56,1440.465l-317.227,0.138c-14.033,0.006-25.227,11.873-24.991,26.504
					c0.236,14.631,11.811,26.469,25.844,26.439l317.21-0.664c13.743-0.028,24.689-11.777,24.458-26.24
					C2701.624,1452.179,2690.304,1440.458,2676.56,1440.465z"/>
				<path style="fill:#FFFFFF;" d="M1211.616,2035.206l1101.833,10.706c13.789,0.134,25.443-11.396,25.216-25.742l-0.017-1.056
					c-0.227-14.346-12.933-26.082-26.723-26.239l-1101.563-12.535c-14.767-0.169-27.87,11.763-27.634,26.626l0.017,1.095
					C1182.981,2022.923,1196.851,2035.062,1211.616,2035.206z"/>
				<path style="fill:#FFFFFF;" d="M2429.127,2047.054l224.482,2.208c13.497,0.132,23.708-11.258,23.483-25.45l-0.017-1.046
					c-0.224-14.193-10.591-25.835-24.089-25.989l-224.44-2.582c-13.702-0.156-24.197,11.315-23.97,25.63l0.017,1.055
					C2404.819,2035.196,2415.426,2046.92,2429.127,2047.054z"/>
				<path style="fill:#FFFFFF;" d="M1212.608,2161.822l725.716,4.278c13.78,0.081,24.553-11.335,24.328-25.504l-0.036-2.312
					c-0.224-14.17-12.084-25.733-25.864-25.837l-724.961-5.491c-14.417-0.109-27.296,11.586-27.067,26.094l0.037,2.368
					C1184.991,2149.927,1198.192,2161.737,1212.608,2161.822z"/>
				<path style="fill:#FFFFFF;" d="M2727.323,2143.444c-0.219-13.835-12.322-25.112-25.461-25.211l-691.602-5.219
					c-13.729-0.104-25.894,11.309-25.67,25.468l0.037,2.309c0.224,14.159,13.111,25.678,26.84,25.76l691.839,4.071
					c13.138,0.078,24.271-11.085,24.052-24.92L2727.323,2143.444z"/>
				<path style="fill:#FFFFFF;" d="M1215.919,2301.075l1101.639,1.875c13.785,0.023,25.398-11.593,25.171-25.934l-0.017-1.057
					c-0.227-14.342-12.951-25.984-26.738-26.031l-1101.29-3.702c-14.763-0.05-27.981,11.977-27.746,26.835l0.017,1.095
					C1187.192,2289.013,1201.157,2301.05,1215.919,2301.075z"/>
				<path style="fill:#FFFFFF;" d="M2433.202,2303.158l224.449,0.399c13.493,0.023,23.686-11.451,23.462-25.64l-0.017-1.046
					c-0.225-14.189-10.59-25.74-24.084-25.786l-224.384-0.774c-13.698-0.047-24.224,11.512-23.997,25.824l0.017,1.054
					C2408.875,2291.503,2419.505,2303.135,2433.202,2303.158z"/>
				<path style="fill:#FFFFFF;" d="M1216.898,2427.662l725.608-1.537c13.776-0.029,24.483-11.532,24.258-25.697l-0.037-2.31
					c-0.224-14.167-12.076-25.637-25.853-25.631l-724.763,0.324c-14.412,0.006-27.407,11.794-27.177,26.299l0.037,2.366
					C1189.201,2415.981,1202.486,2427.693,1216.898,2427.662z"/>
				<path style="fill:#FFFFFF;" d="M2294.852,2425.384c14.085-0.03,25.303-11.923,25.067-26.566
					c-0.237-14.642-11.838-26.507-25.924-26.501l-265.193,0.116c-14.333,0.006-25.766,11.999-25.525,26.787
					c0.241,14.787,12.064,26.749,26.397,26.719L2294.852,2425.384z"/>
				<path style="fill:#FFFFFF;" d="M2685.635,2372.146l-317.227,0.138c-14.033,0.006-25.227,11.873-24.991,26.505
					c0.236,14.631,11.812,26.468,25.844,26.439l317.21-0.664c13.743-0.029,24.689-11.777,24.458-26.24
					C2710.699,2383.86,2699.379,2372.139,2685.635,2372.146z"/>
				<path style="fill:#FFFFFF;" d="M1381.568,1600.527c-11.749,0.063-21.077,12.334-20.826,27.41
					c0.25,15.075,9.984,27.23,21.732,27.149l483.524-3.353c11.398-0.08,20.436-12.169,20.193-27.005
					c-0.242-14.835-9.674-26.813-21.072-26.753L1381.568,1600.527z"/>
				<path style="fill:#FFFFFF;" d="M1212.401,1601.42c-15.058,0.08-27.07,12.43-26.817,27.586
					c0.253,15.156,12.675,27.357,27.733,27.252l87.811-0.609c14.964-0.104,26.881-12.421,26.63-27.512
					c-0.251-15.09-12.576-27.26-27.542-27.181L1212.401,1601.42z"/>
			</g>
			<g style="opacity:0.8;">
				<path style="fill:#FFFFFF;" d="M1096.272,1057.045c0,18.249-14.794,33.043-33.044,33.043c-18.25,0-33.044-14.794-33.044-33.043
					c0-18.25,14.794-33.044,33.044-33.044C1081.478,1024.001,1096.272,1038.795,1096.272,1057.045z"/>
				<circle style="fill:#FFFFFF;" cx="1063.229" cy="1193.254" r="33.044"/>
				<circle style="fill:#FFFFFF;" cx="1063.229" cy="1329.464" r="33.044"/>
				
					<ellipse transform="matrix(0.7071 -0.7071 0.7071 0.7071 -718.7609 1178.528)" style="fill:#FFFFFF;" cx="1063.229" cy="1456.885" rx="33.044" ry="33.044"/>
				
					<ellipse transform="matrix(0.1299 -0.9915 0.9915 0.1299 -1043.7877 2781.907)" style="fill:#FFFFFF;" cx="1063.229" cy="1985.701" rx="33.043" ry="33.044"/>
				
					<ellipse transform="matrix(0.7071 -0.7071 0.7071 0.7071 -1189.0046 1373.3093)" style="fill:#FFFFFF;" cx="1063.229" cy="2121.91" rx="33.044" ry="33.044"/>
				
					<ellipse transform="matrix(0.7071 -0.7071 0.7071 0.7071 -1285.3192 1413.2041)" style="fill:#FFFFFF;" cx="1063.229" cy="2258.12" rx="33.044" ry="33.044"/>
				<circle style="fill:#FFFFFF;" cx="1063.229" cy="2385.541" r="33.044"/>
				
					<ellipse transform="matrix(0.2298 -0.9732 0.9732 0.2298 -752.9108 2278.7839)" style="fill:#FFFFFF;" cx="1063.229" cy="1615.064" rx="33.044" ry="33.044"/>
				
					<ellipse transform="matrix(0.7071 -0.7071 0.7071 0.7071 -914.497 1259.6045)" style="fill:#FFFFFF;" cx="1063.229" cy="1733.698" rx="33.044" ry="33.044"/>
				
					<ellipse transform="matrix(0.1222 -0.9925 0.9925 0.1222 -909.4951 2685.1265)" style="fill:#FFFFFF;" cx="1063.229" cy="1856.726" rx="33.043" ry="33.044"/>
			</g>
		</g>
		<g>
			
				<linearGradient id="SVGID_00000158006837267959858490000009145191445911461821_" gradientUnits="userSpaceOnUse" x1="-6230.8716" y1="3192.8728" x2="-6047.2544" y2="3192.8728" gradientTransform="matrix(-1 0 0 1 -3471.8828 0)">
				<stop  offset="0" style="stop-color:#53D8FF"/>
				<stop  offset="1" style="stop-color:#3840F7"/>
			</linearGradient>
			<path style="fill:url(#SVGID_00000158006837267959858490000009145191445911461821_);" d="M2580.557,3183.992
				c31.456,2.719,86.049,7.135,129.088,9.03c25.872,1.139,40.766-1.395,49.344-4.829c-0.014,0.967-0.042,1.881-0.08,2.73
				c-0.203,4.529-3.883,8.152-8.458,8.407c-81.324,4.539-146.001,1.571-169.026,0.17c-4.761-0.29-7.598-5.464-5.164-9.523
				C2577.479,3187.947,2578.955,3185.958,2580.557,3183.992z"/>
			
				<linearGradient id="SVGID_00000171697364386643780710000007768529093053603995_" gradientUnits="userSpaceOnUse" x1="-6230.8823" y1="3156.886" x2="-6052.4395" y2="3156.886" gradientTransform="matrix(-1 0 0 1 -3471.8828 0)">
				<stop  offset="0" style="stop-color:#2B3582"/>
				<stop  offset="1" style="stop-color:#150E42"/>
			</linearGradient>
			<path style="fill:url(#SVGID_00000171697364386643780710000007768529093053603995_);" d="M2709.645,3193.021
				c-43.039-1.894-97.632-6.311-129.088-9.03c30.927-37.944,129.088-63.518,129.088-63.518h27.724
				c19.069,27.487,21.83,53.656,21.621,67.718C2750.411,3191.627,2735.517,3194.16,2709.645,3193.021z"/>
			
				<linearGradient id="SVGID_00000044139870651231802880000006715889926230447804_" gradientUnits="userSpaceOnUse" x1="-6213.9199" y1="3106.6438" x2="-6162.1987" y2="3106.6438" gradientTransform="matrix(-1 0 0 1 -3471.8828 0)">
				<stop  offset="0" style="stop-color:#F9B776"/>
				<stop  offset="1" style="stop-color:#F47960"/>
			</linearGradient>
			<path style="fill:url(#SVGID_00000044139870651231802880000006715889926230447804_);" d="M2742.037,3075.214l-2.595,51.34
				c-0.281,5.56-4.442,10.231-10.01,11.027c-5.54,0.792-12.959,0.894-20.826-1.726c-4.84-1.611-8.434-5.689-9.326-10.664
				l-8.965-49.978H2742.037z"/>
			<g>
				
					<linearGradient id="SVGID_00000059293518160636776490000014507294296891611327_" gradientUnits="userSpaceOnUse" x1="-6558.6045" y1="3238.4041" x2="-6488.2393" y2="3238.4041" gradientTransform="matrix(-1 0 0 1 -3471.8828 0)">
					<stop  offset="0" style="stop-color:#53D8FF"/>
					<stop  offset="1" style="stop-color:#3840F7"/>
				</linearGradient>
				<path style="fill:url(#SVGID_00000059293518160636776490000014507294296891611327_);" d="M3063.809,3243.217
					c13.642-2.459,19.813-11.617,22.401-21.409c0.017,0.088,0.034,0.176,0.051,0.263c2.007,10.329-2.645,21.033-11.947,26.123
					c-11.242,6.153-23.535,7.202-33.078,6.693c-10.239-0.545-19.636-6.021-24.802-14.785l-0.078-0.132
					C3026.634,3246.543,3041.06,3247.317,3063.809,3243.217z"/>
				
					<linearGradient id="SVGID_00000098919569428650768660000005575866065313690510_" gradientUnits="userSpaceOnUse" x1="-6558.0928" y1="3168.3823" x2="-6454.8105" y2="3168.3823" gradientTransform="matrix(-1 0 0 1 -3471.8828 0)">
					<stop  offset="0" style="stop-color:#2B3582"/>
					<stop  offset="1" style="stop-color:#150E42"/>
				</linearGradient>
				<path style="fill:url(#SVGID_00000098919569428650768660000005575866065313690510_);" d="M2999.494,3091.032h22.863
					c34.826-0.92,56.695,94.013,63.853,130.776c-2.588,9.791-8.76,18.949-22.401,21.409c-22.749,4.101-37.175,3.327-47.452-3.245
					c-18.814-31.998-28.143-78.863-32.626-106.214C2978.631,3102.651,2999.494,3091.032,2999.494,3091.032z"/>
			</g>
			
				<linearGradient id="SVGID_00000004546024924046060280000007275710550829670588_" gradientUnits="userSpaceOnUse" x1="-6504.4082" y1="3079.6731" x2="-6442.5962" y2="3079.6731" gradientTransform="matrix(-1 0 0 1 -3471.8828 0)">
				<stop  offset="0" style="stop-color:#F9B776"/>
				<stop  offset="1" style="stop-color:#F47960"/>
			</linearGradient>
			<path style="fill:url(#SVGID_00000004546024924046060280000007275710550829670588_);" d="M3019.418,3043.379l12.696,50.495
				c1.557,6.191-1.406,12.595-7.131,15.532c-7.102,3.645-17.102,7.475-26.291,6.366c-4.322-0.521-7.912-3.565-9.34-7.635
				l-18.639-53.126L3019.418,3043.379z"/>
			
				<linearGradient id="SVGID_00000064335384106313151600000014378061855457634476_" gradientUnits="userSpaceOnUse" x1="3437.293" y1="1716.9702" x2="3199.5457" y2="2090.5732">
				<stop  offset="0" style="stop-color:#2B3582"/>
				<stop  offset="1" style="stop-color:#150E42"/>
			</linearGradient>
			<path style="fill:url(#SVGID_00000064335384106313151600000014378061855457634476_);" d="M2572.812,2378.331
				c0,0,113.455,709.191,111.586,713.089c0,0,31.335,14.242,65.496,1.815c0,0-10.259-379.113-34.3-524.475
				c0,0,193.63,338.853,255.119,507.697c0,0,32.071-3.824,58.617-21.296c0,0-208.485-609.92-264.106-691.158L2572.812,2378.331z"/>
			
				<linearGradient id="SVGID_00000115473798258773716000000002323384789388520599_" gradientUnits="userSpaceOnUse" x1="3117.8694" y1="2285.4746" x2="3722.4297" y2="1959.4202">
				<stop  offset="0" style="stop-color:#2B3582"/>
				<stop  offset="1" style="stop-color:#150E42"/>
			</linearGradient>
			<path style="fill:url(#SVGID_00000115473798258773716000000002323384789388520599_);" d="M2711.073,2566.277
				c-1.522,0-3.011-0.757-3.872-2.137l-41.366-66.064l-29.272-5.888c-2.476-0.498-4.073-2.902-3.571-5.369
				c0.502-2.476,2.894-4.035,5.369-3.571l31.196,6.277c1.229,0.247,2.308,0.991,2.969,2.049l42.403,67.724
				c1.338,2.137,0.686,4.951-1.447,6.285C2712.729,2566.055,2711.893,2566.277,2711.073,2566.277z"/>
			
				<linearGradient id="SVGID_00000152241819377474569930000016234946736757373066_" gradientUnits="userSpaceOnUse" x1="-5654.21" y1="1777.6653" x2="-5899.0205" y2="2096.1572" gradientTransform="matrix(-1 0 0 1 -3471.8828 0)">
				<stop  offset="0" style="stop-color:#F9B776"/>
				<stop  offset="1" style="stop-color:#F47960"/>
			</linearGradient>
			<path style="fill:url(#SVGID_00000152241819377474569930000016234946736757373066_);" d="M2052.172,1683.879
				c0,0,76.558,16.885,123.122,38.384c9.248,4.27,16.625,11.736,20.826,20.938c13.926,30.506,55.592,107.004,136.397,143.511
				c-11.636,15.445-30.374,47.572-38.536,101.571c-48.532-36.122-90.43-96.446-110.545-195.38c0,0-15.318,8.327-34.426-0.953
				c-10.095-4.903-21.752-11.857-30.502-17.327c-8.718-5.45-15.212-13.922-17.734-23.816c-3.33-13.065-1.369-24.553-1.369-36.878
				l-39.352-12.192C2060.054,1701.738,2048.224,1697.272,2052.172,1683.879z"/>
			
				<linearGradient id="SVGID_00000012460372806007656470000013235497708480772536_" gradientUnits="userSpaceOnUse" x1="-5944.6265" y1="1852.2717" x2="-6761.9575" y2="2820.9602" gradientTransform="matrix(-1 0 0 1 -3471.8828 0)">
				<stop  offset="0" style="stop-color:#CB236D"/>
				<stop  offset="1" style="stop-color:#4C246D"/>
			</linearGradient>
			<path style="fill:url(#SVGID_00000012460372806007656470000013235497708480772536_);" d="M2293.981,1988.283
				c8.162-53.999,26.899-86.126,38.536-101.571c50.197,22.679,115.493,29.929,198.642,1.117c7.665-2.656,15.659-4.211,23.766-4.687
				c44.264-2.596,190.129-7.331,310.829,32.546c25.402,8.392,45.976,27.171,56.58,51.503
				c32.65,74.928,85.511,245.567-61.236,331.715c-11.275-27.991-24.288-50.491-35.416-67.022
				c23.633-39.862,30.632-94.306-11.305-165.203c-30.579,82.57-44.925,203.05-47.923,256.369
				c-0.987,17.555,2.093,35.076,8.98,51.284l0.751,1.768c1.474,3.468-0.554,7.454-4.262,8.287
				c-82.613,18.557-168.537,13.515-194.208,11.395c-4.583-0.378-8.39-3.657-9.442-8.087
				c-40.172-169.27-40.264-284.735-30.428-357.726C2500.267,2038.371,2385.355,2056.291,2293.981,1988.283z"/>
			
				<linearGradient id="SVGID_00000021088655953384201560000014166882472674632361_" gradientUnits="userSpaceOnUse" x1="2533.123" y1="1979.1598" x2="2571.5674" y2="1979.1598">
				<stop  offset="0" style="stop-color:#CB236D"/>
				<stop  offset="1" style="stop-color:#4C246D"/>
			</linearGradient>
			<path style="fill:url(#SVGID_00000021088655953384201560000014166882472674632361_);" d="M2537.689,2035.726
				c-0.201,0-0.402-0.013-0.611-0.038c-2.492-0.33-4.249-2.622-3.914-5.119c9.685-73.21,29.172-104.574,30-105.87
				c1.355-2.12,4.182-2.735,6.281-1.409c2.124,1.347,2.76,4.161,1.422,6.289c-0.192,0.301-19.278,31.263-28.67,102.186
				C2541.896,2034.058,2539.938,2035.726,2537.689,2035.726z"/>
			
				<linearGradient id="SVGID_00000142855364357638074090000017057545630676763576_" gradientUnits="userSpaceOnUse" x1="-6199.8877" y1="1983.5115" x2="-6173.105" y2="1842.9023" gradientTransform="matrix(-1 0 0 1 -3471.8828 0)">
				<stop  offset="0" style="stop-color:#F9B776"/>
				<stop  offset="1" style="stop-color:#F47960"/>
			</linearGradient>
			<path style="fill:url(#SVGID_00000142855364357638074090000017057545630676763576_);" d="M2741.558,1784.536
				c0,0,8.357,88.365,15.716,114.504c1.116,3.966-0.606,8.147-4.209,10.206c-12.489,7.136-42.443,18.776-83.416-1.305
				c-6.638-3.253-10.628-10.172-10.319-17.495l3.61-85.39L2741.558,1784.536z"/>
			<g>
				
					<linearGradient id="SVGID_00000123424117595304645190000007380844561738723496_" gradientUnits="userSpaceOnUse" x1="-6127.4175" y1="1725.5386" x2="-6280.229" y2="1842.4626" gradientTransform="matrix(-1 0 0 1 -3471.8828 0)">
					<stop  offset="0" style="stop-color:#F9B776"/>
					<stop  offset="1" style="stop-color:#F47960"/>
				</linearGradient>
				<path style="fill:url(#SVGID_00000123424117595304645190000007380844561738723496_);" d="M2661.138,1671.489
					c0,0-26.731,61.405-28.526,93.635c-1.795,32.229-8.74,53.143,28.526,59.633c37.266,6.49,68.659-12.074,85.667-44.179
					c0,0,26.648-49.469,20.67-69.728C2761.497,1690.59,2661.138,1671.489,2661.138,1671.489z"/>
				
					<linearGradient id="SVGID_00000170977535622135441420000010334976753697945531_" gradientUnits="userSpaceOnUse" x1="-6234.9902" y1="1632.9601" x2="-6092.6704" y2="1816.1967" gradientTransform="matrix(-1 0 0 1 -3471.8828 0)">
					<stop  offset="0" style="stop-color:#2B3582"/>
					<stop  offset="1" style="stop-color:#150E42"/>
				</linearGradient>
				<path style="fill:url(#SVGID_00000170977535622135441420000010334976753697945531_);" d="M2734.07,1757.495l-2.121-0.935
					c-2.701-1.191-3.856-4.405-2.499-7.027c5.255-10.153,15.5-33.42,2.265-38.848c-17.056-6.995-84.616-20.772-99.192-44.745
					c-14.01-23.04-1.597-52.78,17.058-61.239c1.249-0.566,2.72-0.117,3.361,1.095l1.555,2.942c1.064,2.013,4.038,1.708,4.671-0.479
					c0.608-2.1,3.401-2.508,4.56-0.654c4.481,7.172,16.577,18.799,48.926,24.77c45.974,8.485,76.369,27.089,77.126,58.858
					c0.048,2.018,2.195,3.141,3.919,2.09c3.394-2.069,8.827-3.039,16.086,3.065c12.626,10.616,7.459,38.156-20.219,60.809
					c-1.314,1.076-1.304,3.129,0.12,4.056c5.018,3.266,12.498,11.039-6.884,21.399c-20.048,10.716-35.018,9.837-40.782,8.886
					c-1.434-0.237-2.358-1.625-2.046-3.045l6.153-27.922c0.348-1.58-0.855-3.077-2.473-3.077H2734.07z"/>
				
					<linearGradient id="SVGID_00000072246634925858059680000008947912141753196428_" gradientUnits="userSpaceOnUse" x1="-6146.3716" y1="1700.7661" x2="-6299.1836" y2="1817.6907" gradientTransform="matrix(-1 0 0 1 -3471.8828 0)">
					<stop  offset="0" style="stop-color:#F9B776"/>
					<stop  offset="1" style="stop-color:#F47960"/>
				</linearGradient>
				<path style="fill:url(#SVGID_00000072246634925858059680000008947912141753196428_);" d="M2732.913,1763.387
					c0,0,10.198-39.225,27.784-28.226c17.586,10.998-9.126,43.949-23.264,45.417L2732.913,1763.387z"/>
			</g>
			<path style="fill:#F8A570;" d="M2163.018,1784.987c-1.321,0-2.635-0.573-3.538-1.681c-10.998-13.528-29.724-34.993-36.239-38.673
				c-5.738-3.241-9.008-6.887-10.011-11.144c-0.853-3.609,0.042-7.402,2.651-11.278c1.029-1.522,2.81-2.275,4.675-1.919
				l33.421,6.695c0.77,0.155,1.48,0.502,2.074,1.012l17.764,15.251c1.915,1.639,2.133,4.516,0.493,6.427
				c-1.647,1.915-4.525,2.128-6.431,0.489l-16.861-14.473l-28.863-5.783c-0.209,0.811-0.1,1.271-0.05,1.484
				c0.368,1.581,2.367,3.463,5.62,5.302c10.095,5.7,35.922,37.276,38.832,40.856c1.589,1.957,1.288,4.826-0.661,6.415
				C2165.051,1784.652,2164.03,1784.987,2163.018,1784.987z"/>
			
				<linearGradient id="SVGID_00000054965519463944435960000017046624078339869067_" gradientUnits="userSpaceOnUse" x1="-6085.7817" y1="2136.0637" x2="-6173.4688" y2="2267.5942" gradientTransform="matrix(-1 0 0 1 -3471.8828 0)">
				<stop  offset="0" style="stop-color:#F9B776"/>
				<stop  offset="1" style="stop-color:#F47960"/>
			</linearGradient>
			<path style="fill:url(#SVGID_00000054965519463944435960000017046624078339869067_);" d="M2733.666,2359.255l-120.629-2.626
				c0,0,105.191-29.734,111.718-21.635c0,0,65.197-42.844,100.927-103.109c11.128,16.531,24.141,39.031,35.416,67.022
				C2829.067,2317.71,2787.001,2350.376,2733.666,2359.255z"/>
			
				<linearGradient id="SVGID_00000129176781473649038590000010477932878704709050_" gradientUnits="userSpaceOnUse" x1="2788.8235" y1="2157.3083" x2="2702.9011" y2="2286.1917">
				<stop  offset="0" style="stop-color:#F9B776"/>
				<stop  offset="1" style="stop-color:#F47960"/>
			</linearGradient>
			<path style="fill:url(#SVGID_00000129176781473649038590000010477932878704709050_);" d="M2737.067,2338.367
				c0,0,2.488,48.063-60.602,41.083c-34.288-3.793-89.643-35.762-89.643-35.762S2731.103,2343.305,2737.067,2338.367z"/>
			<g>
				
					<linearGradient id="SVGID_00000096780664660137243210000011745510832421569421_" gradientUnits="userSpaceOnUse" x1="3734.1235" y1="2514.2356" x2="3492.4934" y2="2580.4602" gradientTransform="matrix(0.9988 -0.0494 0.0494 0.9988 -1090.6158 -55.0328)">
					<stop  offset="0" style="stop-color:#2B3582"/>
					<stop  offset="1" style="stop-color:#150E42"/>
				</linearGradient>
				<path style="fill:url(#SVGID_00000096780664660137243210000011745510832421569421_);" d="M2712.362,2351.26
					c-0.229,0.011-0.459,0.017-0.69,0.015l-299.925-0.323c-7.414-0.006-13.418-5.959-13.41-13.296
					c0.007-7.338,6.046-13.401,13.44-13.269l299.925,0.324c7.414,0.006,13.418,5.959,13.41,13.295
					C2725.104,2345.115,2719.455,2350.914,2712.362,2351.26z"/>
				
					<linearGradient id="SVGID_00000180349306269957877540000000312780587871935367_" gradientUnits="userSpaceOnUse" x1="3484.7041" y1="2117.5322" x2="3314.2646" y2="2297.6763" gradientTransform="matrix(1 0 0 1 -1049.1469 0)">
					<stop  offset="0" style="stop-color:#2B3582"/>
					<stop  offset="1" style="stop-color:#150E42"/>
				</linearGradient>
				<path style="fill:url(#SVGID_00000180349306269957877540000000312780587871935367_);" d="M2142.129,2081.824h249.779
					c18.426,0,35.197,10.521,43.057,27.011l115.473,242.267h-310.408c-11.875,0-22.543-7.179-26.907-18.105l-89.544-224.182
					C2118.404,2095.862,2128.052,2081.824,2142.129,2081.824z"/>
				
					<linearGradient id="SVGID_00000047048946419672937190000016704525432408336258_" gradientUnits="userSpaceOnUse" x1="3381.3533" y1="2162.5576" x2="3304.3096" y2="2278.5769" gradientTransform="matrix(1 0 0 1 -1049.1469 0)">
					<stop  offset="0" style="stop-color:#53D8FF"/>
					<stop  offset="1" style="stop-color:#3840F7"/>
				</linearGradient>
				<path style="fill:url(#SVGID_00000047048946419672937190000016704525432408336258_);" d="M2318.101,2206.042
					c5.413,16.639,1.414,32.798-8.931,36.093c-10.346,3.294-23.12-7.523-28.533-24.162c-5.413-16.639-1.414-32.799,8.931-36.093
					C2299.914,2178.585,2312.688,2189.403,2318.101,2206.042z"/>
			</g>
		</g>
		<g>
			
				<linearGradient id="SVGID_00000161631614959861159270000011771310567602893246_" gradientUnits="userSpaceOnUse" x1="1970.0999" y1="3061.1746" x2="2061.0251" y2="3061.1746">
				<stop  offset="0" style="stop-color:#CB236D"/>
				<stop  offset="1" style="stop-color:#4C246D"/>
			</linearGradient>
			<path style="fill-rule:evenodd;clip-rule:evenodd;fill:url(#SVGID_00000161631614959861159270000011771310567602893246_);" d="
				M1977.675,3040.106l-7.576,8.757l5.198,19.012c1.363,4.986,5.464,8.739,10.548,9.669c16.921,3.099,55.294,8.704,75.036,0.206
				c0,0,6.141-41.144-61.878-28.887L1977.675,3040.106z"/>
			
				<linearGradient id="SVGID_00000073684672535924332790000012982312546239792041_" gradientUnits="userSpaceOnUse" x1="1859.6385" y1="3076.7729" x2="1910.2134" y2="3076.7729">
				<stop  offset="0" style="stop-color:#CB236D"/>
				<stop  offset="1" style="stop-color:#4C246D"/>
			</linearGradient>
			<path style="fill-rule:evenodd;clip-rule:evenodd;fill:url(#SVGID_00000073684672535924332790000012982312546239792041_);" d="
				M1863.673,3048.074l-4.035,9.903l1.636,35.657c0.229,5.011,4.272,9.216,9.722,10.057c7.438,1.148,18.256,2.308,28.435,1.521
				c7.969-0.615,12.961-8.101,9.842-14.783l-12.003-25.719c-1.796-3.848-5.076-6.802-9.09-8.186L1863.673,3048.074z"/>
			
				<linearGradient id="SVGID_00000042733860615483847790000015716988889147134910_" gradientUnits="userSpaceOnUse" x1="1831.3177" y1="2914.208" x2="1906.364" y2="2914.208">
				<stop  offset="0" style="stop-color:#F9B776"/>
				<stop  offset="1" style="stop-color:#F47960"/>
			</linearGradient>
			<path style="fill-rule:evenodd;clip-rule:evenodd;fill:url(#SVGID_00000042733860615483847790000015716988889147134910_);" d="
				M1831.318,2772.968c0,0,19.795,220.684,32.867,288.206c0,0,9.781,7.127,24.414-2.063l17.765-294.505L1831.318,2772.968z"/>
			
				<linearGradient id="SVGID_00000181063887347008826190000009019669038447686334_" gradientUnits="userSpaceOnUse" x1="1914.6541" y1="2920.7371" x2="2002.8109" y2="2920.7371">
				<stop  offset="0" style="stop-color:#F9B776"/>
				<stop  offset="1" style="stop-color:#F47960"/>
			</linearGradient>
			<path style="fill-rule:evenodd;clip-rule:evenodd;fill:url(#SVGID_00000181063887347008826190000009019669038447686334_);" d="
				M1914.654,2800.102l54.229,247.138c0,0,14.754,15.297,33.928,0l-9.346-259.805L1914.654,2800.102z"/>
			
				<linearGradient id="SVGID_00000153672885651510968450000012035628743669575073_" gradientUnits="userSpaceOnUse" x1="1921.5398" y1="2883.5239" x2="1884.0343" y2="2558.1394">
				<stop  offset="0" style="stop-color:#CB236D"/>
				<stop  offset="1" style="stop-color:#4C246D"/>
			</linearGradient>
			<path style="fill-rule:evenodd;clip-rule:evenodd;fill:url(#SVGID_00000153672885651510968450000012035628743669575073_);" d="
				M1952.184,2581.481c0,0,77.428,170.67,93.67,270.358c0.835,5.127-2.428,9.974-7.298,10.865
				c-9.212,1.685-25.346,5.829-46.831,15.984c-34.839,16.466-65.088,15.471-92.819,10.187c-21.767-4.147-75.206-4.12-97.186-3.916
				c-5.237,0.048-9.383-4.624-8.98-10.12c2.772-37.817,19.357-192.382,47.258-285.873L1952.184,2581.481z"/>
			
				<linearGradient id="SVGID_00000075122528942175665240000005594021402098541465_" gradientUnits="userSpaceOnUse" x1="1627.7798" y1="2441.8882" x2="1907.783" y2="2122.0171">
				<stop  offset="0" style="stop-color:#2B3582"/>
				<stop  offset="1" style="stop-color:#150E42"/>
			</linearGradient>
			<path style="fill-rule:evenodd;clip-rule:evenodd;fill:url(#SVGID_00000075122528942175665240000005594021402098541465_);" d="
				M1913.944,2180.098c-43.952-30.496-97.471-34.06-136.877-13.237c-11.852,6.263-25.522,8.376-38.808,6.594
				c-25.05-3.359-50.539,6.533-65.411,27.968c-0.04,0.058-0.079,0.115-0.119,0.173c-6.766,9.817-17.678,16.057-29.595,15.688
				c-35.212-1.091-95.179,35.08-115.139,63.847c-33.198,47.846-13.553,107.486,40.272,144.833
				c53.825,37.346,147.952,16.632,181.15-31.214c4.628-6.67,8.284-13.753,11.004-21.106c3.622-9.791,15.18-13.584,23.732-7.596
				c0.173,0.121,0.347,0.242,0.521,0.363c59.639,41.38,130.887,31.809,166.584-19.64
				C1986.953,2295.323,1973.583,2221.478,1913.944,2180.098z"/>
			
				<linearGradient id="SVGID_00000057138200334527257740000012363884146420324482_" gradientUnits="userSpaceOnUse" x1="1604.84" y1="2806.0374" x2="1850.3582" y2="2468.699">
				<stop  offset="0" style="stop-color:#F9B776"/>
				<stop  offset="1" style="stop-color:#F47960"/>
			</linearGradient>
			<path style="fill-rule:evenodd;clip-rule:evenodd;fill:url(#SVGID_00000057138200334527257740000012363884146420324482_);" d="
				M1819.682,2437.765l-13.57,1.513c-26.268,28.167-74.454,221.719-91.833,262.877l-70.725-11.552
				c-2.772-0.57-5.036,2.184-3.965,4.804c3.14,7.673,14.92,29.81,60.824,29.81c21.446,0-12.03,16.644,0.796,22.354
				c0,0,28.185-10.148,28.23-27.996c0,0,80.798-184.038,97.41-203.41C1843.464,2496.794,1819.682,2437.765,1819.682,2437.765z"/>
			
				<linearGradient id="SVGID_00000078755718533774195290000016728747763502802867_" gradientUnits="userSpaceOnUse" x1="2152.9734" y1="2322.1787" x2="1963.1709" y2="2560.9626">
				<stop  offset="0" style="stop-color:#F9B776"/>
				<stop  offset="1" style="stop-color:#F47960"/>
			</linearGradient>
			<path style="fill-rule:evenodd;clip-rule:evenodd;fill:url(#SVGID_00000078755718533774195290000016728747763502802867_);" d="
				M1967.71,2440.214c0,0,84.481,100.132,151.016-33.244l20.183,7.379c0,0-16.239,169.406-175.599,96.837L1967.71,2440.214z"/>
			
				<linearGradient id="SVGID_00000075120991815037948720000012804712784656516797_" gradientUnits="userSpaceOnUse" x1="2201.9023" y1="2361.5327" x2="2012.9476" y2="2599.2498">
				<stop  offset="0" style="stop-color:#F9B776"/>
				<stop  offset="1" style="stop-color:#F47960"/>
			</linearGradient>
			<path style="fill:url(#SVGID_00000075120991815037948720000012804712784656516797_);" d="M2120.473,2412.6
				c0,0-9.642-16.17,10.78-21.998c15.915-4.542,31.706-9.795,40.065-15.428c1.951-1.315,4.332,1.006,3.212,3.149
				c-2.138,4.093-6.514,9.344-15.387,14.761c0,0,9.131,6.855,21.788,13.033c6.676,3.259,21.602,0.308,28.155,0.421
				c4.258,0.073,6.267,5.515,3.26,8.707c-9.962,10.579-27.789,23.428-65.883,0.661L2120.473,2412.6z"/>
			
				<linearGradient id="SVGID_00000173124454721063191510000002224773092536428695_" gradientUnits="userSpaceOnUse" x1="1942.2667" y1="2412.2305" x2="1730.2378" y2="2771.4526">
				<stop  offset="0" style="stop-color:#A737D5"/>
				<stop  offset="1" style="stop-color:#EF497A"/>
			</linearGradient>
			<path style="fill-rule:evenodd;clip-rule:evenodd;fill:url(#SVGID_00000173124454721063191510000002224773092536428695_);" d="
				M1806.112,2438.096c0,0,71.877-23.906,161.598,0.84c0,0-3.425,108.416-8.057,147.172c-0.535,4.475-4.448,8.042-9.43,8.54
				c-38.454,3.843-76.056,3.681-112.973,0.303c-6.888-0.63-12.383-5.436-13.148-11.613L1806.112,2438.096z"/>
			
				<linearGradient id="SVGID_00000159466698850222305550000017476945812031570106_" gradientUnits="userSpaceOnUse" x1="1879.3481" y1="2505.1121" x2="1886.6625" y2="2430.7493">
				<stop  offset="0" style="stop-color:#F9B776"/>
				<stop  offset="1" style="stop-color:#F47960"/>
			</linearGradient>
			<path style="fill-rule:evenodd;clip-rule:evenodd;fill:url(#SVGID_00000159466698850222305550000017476945812031570106_);" d="
				M1859.792,2355.27l-7.745,76.716c0,0,41.701,14.143,69.166-1.82l-7.423-77.027L1859.792,2355.27z"/>
			<g>
				
					<linearGradient id="SVGID_00000089537461722426721960000000163616826059217316_" gradientUnits="userSpaceOnUse" x1="1145.4386" y1="2392.3318" x2="1155.1797" y2="2247.4316" gradientTransform="matrix(0.9852 -0.1732 0.1896 1.0333 328.727 130.4457)">
					<stop  offset="0" style="stop-color:#F9B776"/>
					<stop  offset="1" style="stop-color:#F47960"/>
				</linearGradient>
				<path style="fill-rule:evenodd;clip-rule:evenodd;fill:url(#SVGID_00000089537461722426721960000000163616826059217316_);" d="
					M1965.337,2280.894c11.937,46.128,8.453,99.138-45.817,111.032c-37.548,8.229-77.006-30.029-88.943-76.157
					c-11.937-46.128,8.501-81.256,45.714-90.886C1913.504,2215.251,1953.4,2234.766,1965.337,2280.894z"/>
				
					<linearGradient id="SVGID_00000023277000403694669010000010857810108316346546_" gradientUnits="userSpaceOnUse" x1="1232.7335" y1="2600.3394" x2="1242.4863" y2="2455.2668" gradientTransform="matrix(0.9842 -0.1769 0.1769 0.9842 306.8014 46.5997)">
					<stop  offset="0" style="stop-color:#F9B776"/>
					<stop  offset="1" style="stop-color:#F47960"/>
				</linearGradient>
				<path style="fill-rule:evenodd;clip-rule:evenodd;fill:url(#SVGID_00000023277000403694669010000010857810108316346546_);" d="
					M1961.256,2295.123c0,0,1.778-27.891,15.689-19.29c13.911,8.603-5.377,42.03-13.975,43.99
					C1954.371,2321.782,1961.256,2295.123,1961.256,2295.123z"/>
				
					<linearGradient id="SVGID_00000017509830042527626160000017122018794109212035_" gradientUnits="userSpaceOnUse" x1="1095.8839" y1="2591.1384" x2="1105.6367" y2="2446.0645" gradientTransform="matrix(0.9842 -0.1769 0.1769 0.9842 306.8014 46.5997)">
					<stop  offset="0" style="stop-color:#F9B776"/>
					<stop  offset="1" style="stop-color:#F47960"/>
				</linearGradient>
				<path style="fill-rule:evenodd;clip-rule:evenodd;fill:url(#SVGID_00000017509830042527626160000017122018794109212035_);" d="
					M1842.247,2327.292c0,0-4.161-21.276-19.234-11.442s13.686,44.597,31.411,36.864L1842.247,2327.292z"/>
				
					<linearGradient id="SVGID_00000075140050985002281150000016586483101018096513_" gradientUnits="userSpaceOnUse" x1="1689.1454" y1="2495.6045" x2="1969.1481" y2="2175.7341">
					<stop  offset="0" style="stop-color:#2B3582"/>
					<stop  offset="1" style="stop-color:#150E42"/>
				</linearGradient>
				<path style="fill-rule:evenodd;clip-rule:evenodd;fill:url(#SVGID_00000075140050985002281150000016586483101018096513_);" d="
					M1819.938,2310.376c0,0,43.155,46.719,65.575-50.227c0,0,22.374,28.96,32.585,3.344c0,0,44.542,15.266,49.464-3.47
					c4.922-18.736-60.217-69.54-112.601-33.08C1802.578,2263.405,1819.938,2310.376,1819.938,2310.376z"/>
			</g>
		</g>
		<g>
			<g>
				<g>
					
						<linearGradient id="SVGID_00000065760687776410357800000012008789002781886635_" gradientUnits="userSpaceOnUse" x1="2576.2075" y1="970.5529" x2="2088.9409" y2="1907.3818">
						<stop  offset="0" style="stop-color:#FDF53F"/>
						<stop  offset="1" style="stop-color:#D93C65"/>
					</linearGradient>
					
						<circle style="fill:url(#SVGID_00000065760687776410357800000012008789002781886635_);" cx="2420.386" cy="1270.139" r="317.671"/>
					
						<linearGradient id="SVGID_00000179640090967291810690000000809087688901466549_" gradientUnits="userSpaceOnUse" x1="2652.552" y1="919.4016" x2="1392.5709" y2="2822.8738">
						<stop  offset="0" style="stop-color:#FDF53F"/>
						<stop  offset="1" style="stop-color:#D93C65"/>
					</linearGradient>
					
						<circle style="fill:url(#SVGID_00000179640090967291810690000000809087688901466549_);" cx="2420.386" cy="1270.139" r="307.108"/>
					<path style="fill:#FFFFFF;" d="M2137.286,1258.338c-0.058,0-0.116,0-0.173-0.003c-1.79-0.095-3.163-1.622-3.07-3.409
						c0.63-12.065,2.032-24.182,4.168-36.017c0.317-1.762,1.993-2.934,3.769-2.617c1.764,0.32,2.934,2.006,2.615,3.77
						c-2.084,11.565-3.455,23.409-4.073,35.199C2140.432,1256.995,2139,1258.338,2137.286,1258.338z"/>
					<path style="fill:#FFFFFF;" d="M2167.146,1145.809c-0.491,0-0.99-0.111-1.46-0.349c-1.6-0.808-2.242-2.76-1.433-4.357
						c49.101-97.276,147.244-157.706,256.133-157.706c17.365,0,34.768,1.565,51.725,4.659c1.763,0.319,2.932,2.008,2.611,3.773
						c-0.321,1.764-2.004,2.943-3.774,2.607c-16.574-3.019-33.584-4.549-50.561-4.549c-106.425,0-202.35,59.064-250.342,154.137
						C2169.474,1145.156,2168.332,1145.809,2167.146,1145.809z"/>
					
						<ellipse transform="matrix(0.7071 -0.7071 0.7071 0.7071 -191.9803 2090.1775)" style="opacity:0.78;fill:#FFFFFF;" cx="2427.077" cy="1276.829" rx="259.929" ry="259.929"/>
				</g>
			</g>
			<g>
				
					<linearGradient id="SVGID_00000116208244858108640140000001944219315645558709_" gradientUnits="userSpaceOnUse" x1="2294.6226" y1="1241.4143" x2="2327.9358" y2="1932.6643">
					<stop  offset="0" style="stop-color:#2B3582"/>
					<stop  offset="1" style="stop-color:#150E42"/>
				</linearGradient>
				<path style="fill:url(#SVGID_00000116208244858108640140000001944219315645558709_);" d="M2231.427,1272.746l127.656-59.307
					v28.191l-96.54,42.286v0.531l96.54,42.286v28.191l-127.656-59.307V1272.746z"/>
				
					<linearGradient id="SVGID_00000088133821639272288950000009398824941587465615_" gradientUnits="userSpaceOnUse" x1="2419.0366" y1="1235.4186" x2="2452.3499" y2="1926.668">
					<stop  offset="0" style="stop-color:#2B3582"/>
					<stop  offset="1" style="stop-color:#150E42"/>
				</linearGradient>
				<path style="fill:url(#SVGID_00000088133821639272288950000009398824941587465615_);" d="M2378.777,1365.563l56.913-192.813
					h26.859l-56.913,192.813H2378.777z"/>
				
					<linearGradient id="SVGID_00000142167431164194962540000005547070959468227206_" gradientUnits="userSpaceOnUse" x1="2537.7705" y1="1229.6964" x2="2571.0835" y2="1920.9463">
					<stop  offset="0" style="stop-color:#2B3582"/>
					<stop  offset="1" style="stop-color:#150E42"/>
				</linearGradient>
				<path style="fill:url(#SVGID_00000142167431164194962540000005547070959468227206_);" d="M2605.634,1296.414l-127.656,58.51
					v-28.191l98.668-42.286v-0.531l-98.668-42.286v-28.191l127.656,58.51V1296.414z"/>
			</g>
		</g>
		<g>
			
				<linearGradient id="SVGID_00000179606260462705861240000006206886435147990948_" gradientUnits="userSpaceOnUse" x1="1828.5769" y1="1441.5701" x2="726.4456" y2="3379.3796" gradientTransform="matrix(-0.994 -0.109 -0.109 0.994 2451.0046 341.1347)">
				<stop  offset="0" style="stop-color:#ED539F"/>
				<stop  offset="1" style="stop-color:#A061C2"/>
			</linearGradient>
			<path style="fill:url(#SVGID_00000179606260462705861240000006206886435147990948_);" d="M968.531,2709.271
				c146.627-57.063,221.312-300.029,151.311-389.329c-47.299-60.339-129.981-11.392-197.49-75.965
				c-86.195-82.445-2.078-210.699-56.746-394.988c-46.523-156.832-181.992-315.261-273.436-295.826
				c-95.721,20.343-169.165,241.096-105.187,385.81c41.605,94.11,119.665,107.066,127.68,191.231
				c9.301,97.66-90.988,130.736-101.658,223.258C493.839,2519.658,774.555,2784.763,968.531,2709.271z"/>
			
				<linearGradient id="SVGID_00000038400282596395212150000001117351946489488008_" gradientUnits="userSpaceOnUse" x1="1502.1943" y1="1732.5603" x2="1326.0619" y2="2587.0439" gradientTransform="matrix(-0.994 -0.109 -0.109 0.994 2451.0046 341.1347)">
				<stop  offset="0" style="stop-color:#2B3582"/>
				<stop  offset="1" style="stop-color:#150E42"/>
			</linearGradient>
			<path style="fill:url(#SVGID_00000038400282596395212150000001117351946489488008_);" d="M886.715,2764.621
				c0.827,0.091,1.687,0.001,2.524-0.298c2.958-1.055,4.5-4.306,3.444-7.262c-142.342-399.071-148.07-844.554-148.112-849.007
				c-0.028-3.139-2.601-5.663-5.735-5.63c-3.138,0.028-5.66,2.597-5.63,5.735c0.042,4.472,5.794,451.868,148.771,852.72
				C882.734,2762.998,884.619,2764.391,886.715,2764.621z"/>
			<path style="fill:#F0F0F0;" d="M588.375,2006.798c-1.139,0-2.252-0.574-2.894-1.612
				c-91.59-148.503-87.154-251.943-67.304-312.567c21.619-66.027,64.502-96.217,66.318-97.471c1.542-1.065,3.655-0.68,4.721,0.866
				c1.066,1.542,0.68,3.655-0.861,4.723c-0.428,0.298-43.037,30.388-63.856,94.409c-19.256,59.208-23.304,160.436,66.764,306.471
				c0.985,1.599,0.489,3.692-1.108,4.677C589.599,2006.635,588.984,2006.798,588.375,2006.798z"/>
			<path style="fill:#F0F0F0;" d="M984.962,2678.251c-0.784,0-1.57-0.269-2.212-0.819c-1.423-1.224-1.584-3.366-0.362-4.79
				c101.975-118.661,143.02-213.946,121.996-283.21c-18.29-60.263-79.498-77.941-80.115-78.11c-1.806-0.504-2.864-2.375-2.363-4.183
				c0.502-1.804,2.368-2.859,4.177-2.365c0.652,0.179,65.344,18.76,84.774,82.594c21.806,71.639-19.685,169.11-123.318,289.698
				C986.867,2677.85,985.917,2678.251,984.962,2678.251z"/>
		</g>
		<g>
			<g>
				<g>
					
						<linearGradient id="SVGID_00000152227673864659752700000012347634797277899151_" gradientUnits="userSpaceOnUse" x1="10931.6973" y1="2644.1406" x2="10083.9043" y2="3193.7219" gradientTransform="matrix(-1 0 0 1 11862.3076 0)">
						<stop  offset="0" style="stop-color:#53D8FF"/>
						<stop  offset="1" style="stop-color:#3840F7"/>
					</linearGradient>
					<path style="fill:url(#SVGID_00000152227673864659752700000012347634797277899151_);" d="M598.618,2816.1l920.687,0.001
						v-177.512l-920.687,0.001C618.324,2638.59,618.324,2816.1,598.618,2816.1z"/>
					
						<linearGradient id="SVGID_00000037687243876036471860000007387178387457122447_" gradientUnits="userSpaceOnUse" x1="746.4769" y1="2364.9304" x2="1160.8358" y2="2833.6323">
						<stop  offset="0.3251" style="stop-color:#A737D5"/>
						<stop  offset="1" style="stop-color:#EF497A"/>
					</linearGradient>
					<path style="fill:url(#SVGID_00000037687243876036471860000007387178387457122447_);" d="M1519.305,2771.679v-81.238
						c0-28.637-18.194-51.852-40.638-51.852H602.5c-17.65,0-31.958-13.782-31.958-30.785c0-5.166,4.348-9.353,9.71-9.353h957.582
						c21.96,0,56.826,33.259,56.826,74.287v113.458c0,38.683-33.848,70.042-54.553,70.042H585.289
						c-8.145,0-14.748-6.361-14.748-14.206c0-14.322,12.052-25.932,26.92-25.932h887.03
						C1503.718,2816.1,1519.305,2796.212,1519.305,2771.679z"/>
				</g>
				<path style="fill:#FFFFFF;" d="M1493.77,2678.235H630.5c-1.781,0-3.226-1.443-3.226-3.224c0-1.781,1.444-3.224,3.226-3.224
					h863.27c1.781,0,3.226,1.443,3.226,3.224C1496.995,2676.792,1495.551,2678.235,1493.77,2678.235z"/>
				<path style="fill:#FFFFFF;" d="M1493.77,2704.583H630.5c-1.781,0-3.226-1.443-3.226-3.224c0-1.781,1.444-3.224,3.226-3.224
					h863.27c1.781,0,3.226,1.443,3.226,3.224C1496.995,2703.141,1495.551,2704.583,1493.77,2704.583z"/>
				<path style="fill:#FFFFFF;" d="M1493.77,2730.932H630.5c-1.781,0-3.226-1.443-3.226-3.224s1.444-3.224,3.226-3.224h863.27
					c1.781,0,3.226,1.443,3.226,3.224S1495.551,2730.932,1493.77,2730.932z"/>
				<path style="fill:#FFFFFF;" d="M1493.77,2757.281H630.5c-1.781,0-3.226-1.443-3.226-3.224c0-1.781,1.444-3.224,3.226-3.224
					h863.27c1.781,0,3.226,1.443,3.226,3.224C1496.995,2755.838,1495.551,2757.281,1493.77,2757.281z"/>
				<path style="fill:#FFFFFF;" d="M1493.77,2783.629H630.5c-1.781,0-3.226-1.443-3.226-3.224c0-1.781,1.444-3.224,3.226-3.224
					h863.27c1.781,0,3.226,1.443,3.226,3.224C1496.995,2782.186,1495.551,2783.629,1493.77,2783.629z"/>
			</g>
			<g>
				
					<linearGradient id="SVGID_00000079443545450570260890000014572358322115889810_" gradientUnits="userSpaceOnUse" x1="1079.4744" y1="2714.8242" x2="1048.5454" y2="3228.2429">
					<stop  offset="0" style="stop-color:#53D8FF"/>
					<stop  offset="0.7685" style="stop-color:#3840F7"/>
				</linearGradient>
				<path style="fill:url(#SVGID_00000079443545450570260890000014572358322115889810_);" d="M1662.087,3150.95H462.184
					c-7.971,0-14.434-6.462-14.434-14.433v-267.738c0-7.971,6.462-14.433,14.433-14.433h1199.902
					c7.971,0,14.433,6.462,14.433,14.433v267.738C1676.52,3144.489,1670.058,3150.95,1662.087,3150.95z"/>
				
					<linearGradient id="SVGID_00000076596369711236630040000014522475279088036504_" gradientUnits="userSpaceOnUse" x1="1567.9497" y1="2527.1494" x2="1515.6312" y2="3081.7266">
					<stop  offset="0" style="stop-color:#53D8FF"/>
					<stop  offset="1" style="stop-color:#3840F7"/>
				</linearGradient>
				<path style="fill:url(#SVGID_00000076596369711236630040000014522475279088036504_);" d="M1591.087,3109.381h-134.58
					c-2.699,0-4.886-2.188-4.886-4.886V2885.84c0-2.699,2.188-4.886,4.886-4.886h134.58c2.699,0,4.886,2.188,4.886,4.886v218.655
					C1595.974,3107.194,1593.786,3109.381,1591.087,3109.381z"/>
				
					<linearGradient id="SVGID_00000084508914235487372410000015059049910229932163_" gradientUnits="userSpaceOnUse" x1="1403.989" y1="2512.04" x2="1351.7228" y2="3066.0627">
					<stop  offset="0" style="stop-color:#53D8FF"/>
					<stop  offset="1" style="stop-color:#3840F7"/>
				</linearGradient>
				<path style="fill:url(#SVGID_00000084508914235487372410000015059049910229932163_);" d="M1380.957,3115.324h-46.214
					c-2.195,0-3.974-1.779-3.974-3.974v-220.479c0-2.195,1.779-3.974,3.974-3.974h46.214c2.195,0,3.974,1.779,3.974,3.974v220.479
					C1384.931,3113.545,1383.152,3115.324,1380.957,3115.324z"/>
			</g>
		</g>
		<g>
			<g>
				
					<linearGradient id="SVGID_00000057851479128100833420000005590443547444433032_" gradientUnits="userSpaceOnUse" x1="1027.7284" y1="2150.481" x2="1027.7284" y2="2643.7737">
					<stop  offset="0" style="stop-color:#FDF53F"/>
					<stop  offset="1" style="stop-color:#D93C65"/>
				</linearGradient>
				<path style="fill:url(#SVGID_00000057851479128100833420000005590443547444433032_);" d="M906.643,2147.919
					c13.977-9.61,29.431-16.855,45.814-21.313c6.154-1.675,39.38,7.982,59.919,7.51c28.195-0.648,56.894-13.479,80.134-7.688
					c23.085,5.753,41.979,13.267,52.889,21.027c32.655,23.225,51.828,66.532,63.511,109.429
					c-22.123,22.71-49.965,32.804-49.965,32.804l-5.145,208.512l-123.297,63.084l-140.729-70.654l5.041-203.767
					c0,0-44.689-20.811-47.967-28.382C843.569,2250.912,867.216,2175.028,906.643,2147.919z"/>
				
					<linearGradient id="SVGID_00000005233383274032013390000006478995622330051474_" gradientUnits="userSpaceOnUse" x1="818.3325" y1="2212.9326" x2="1052.6317" y2="2778.9023">
					<stop  offset="0" style="stop-color:#F9B776"/>
					<stop  offset="1" style="stop-color:#F47960"/>
				</linearGradient>
				<path style="fill:url(#SVGID_00000005233383274032013390000006478995622330051474_);" d="M848.93,2257.572
					c0,0-59.885,166.025,76.675,234.261c28.355-3.767,17.449-50.856,17.449-50.856s-59.336-13.131-41.516-151.628
					C885.131,2275.849,848.93,2257.572,848.93,2257.572z"/>
				
					<linearGradient id="SVGID_00000149368511393595282710000002526690345952742030_" gradientUnits="userSpaceOnUse" x1="-5400.7642" y1="2211.7161" x2="-5166.4648" y2="2777.6858" gradientTransform="matrix(-1 0 0 1 -4167.0742 0)">
					<stop  offset="0" style="stop-color:#F9B776"/>
					<stop  offset="1" style="stop-color:#F47960"/>
				</linearGradient>
				<path style="fill:url(#SVGID_00000149368511393595282710000002526690345952742030_);" d="M1206.031,2257.572
					c0,0,41.208,173.308-76.675,234.261c-28.355-3.767-17.449-50.856-17.449-50.856s47.821-23.552,41.516-151.628
					C1169.829,2275.849,1206.031,2257.572,1206.031,2257.572z"/>
				
					<linearGradient id="SVGID_00000065794586810533211390000012791397284796757655_" gradientUnits="userSpaceOnUse" x1="1026.4563" y1="2285.9565" x2="1014.2654" y2="2779.6975">
					<stop  offset="0" style="stop-color:#2B3582"/>
					<stop  offset="1" style="stop-color:#150E42"/>
				</linearGradient>
				<path style="fill:url(#SVGID_00000065794586810533211390000012791397284796757655_);" d="M1154.472,2503.493H892.207
					c-2.23,0-4.055-1.825-4.055-4.055v-174.485c0-2.23,1.825-4.055,4.055-4.055h262.266c2.23,0,4.055,1.825,4.055,4.055v174.485
					C1158.527,2501.668,1156.702,2503.493,1154.472,2503.493z"/>
				<g>
					
						<linearGradient id="SVGID_00000046330781977691845720000018230073102331174537_" gradientUnits="userSpaceOnUse" x1="1177.2413" y1="2556.9993" x2="1305.2777" y2="2556.9993" gradientTransform="matrix(1 0.0077 -0.0077 1 9.5247 16.8137)">
						<stop  offset="0" style="stop-color:#2C759E"/>
						<stop  offset="1" style="stop-color:#051042"/>
					</linearGradient>
					<path style="fill:url(#SVGID_00000046330781977691845720000018230073102331174537_);" d="M1277.118,2557.626
						c-30.943-7.103-102.458-3.284-102.458-3.284l-2.909,7.877l-4.817,39.154c0,0,68.106,12.276,101.676,12.246
						c3.425-0.003,6.558-0.517,9.42-1.408c1.023-0.918,2.024-1.871,2.97-2.904
						C1295.243,2593.753,1291.13,2570.902,1277.118,2557.626z"/>
					
						<linearGradient id="SVGID_00000001654410392302516610000012198520294350764724_" gradientUnits="userSpaceOnUse" x1="1321.0011" y1="2558.5881" x2="1208.5818" y2="2557.239" gradientTransform="matrix(1 0.0077 -0.0077 1 9.5247 16.8137)">
						<stop  offset="0" style="stop-color:#53EAC9"/>
						<stop  offset="0.9964" style="stop-color:#45AED8"/>
					</linearGradient>
					<path style="fill:url(#SVGID_00000001654410392302516610000012198520294350764724_);" d="M1280.184,2558.402
						c-0.969-0.273-1.995-0.53-3.066-0.776c14.012,13.276,18.125,36.127,3.883,51.682c-0.946,1.033-1.946,1.986-2.97,2.904
						C1303.215,2604.373,1306.196,2565.72,1280.184,2558.402z"/>
					
						<linearGradient id="SVGID_00000098214553482837820800000018288831533362045339_" gradientUnits="userSpaceOnUse" x1="1251.5857" y1="2352.0232" x2="1116.4347" y2="2718.0942">
						<stop  offset="0" style="stop-color:#F9B776"/>
						<stop  offset="1" style="stop-color:#F47960"/>
					</linearGradient>
					<path style="fill:url(#SVGID_00000098214553482837820800000018288831533362045339_);" d="M1154.112,2552.137l12.11,0.516
						c6.506,0.278,12.638,3.448,17.012,8.796c4.375,5.348,6.625,12.424,6.242,19.633c-0.305,5.748-2.664,11.124-6.553,14.937
						c-3.889,3.813-8.989,5.75-14.17,5.381l-18.529-1.318L1154.112,2552.137z"/>
				</g>
				<g>
					
						<linearGradient id="SVGID_00000132088223206924542990000008944914057172776886_" gradientUnits="userSpaceOnUse" x1="-5721.8643" y1="2519.1521" x2="-5593.7739" y2="2519.1521" gradientTransform="matrix(-0.9998 -0.02 -0.02 0.9998 -4813.9961 -50.8396)">
						<stop  offset="0" style="stop-color:#2C759E"/>
						<stop  offset="1" style="stop-color:#051042"/>
					</linearGradient>
					<path style="fill:url(#SVGID_00000132088223206924542990000008944914057172776886_);" d="M746.917,2553.859
						c31.108-6.151,102.5-0.139,102.5-0.139l2.711,7.964l3.839,39.287c0,0-68.386,10.181-101.943,9.121
						c-3.424-0.108-6.542-0.719-9.381-1.697c-1.001-0.949-1.977-1.932-2.896-2.994
						C727.896,2589.416,732.579,2566.701,746.917,2553.859z"/>
					
						<linearGradient id="SVGID_00000085947346176695667990000017154974646681342886_" gradientUnits="userSpaceOnUse" x1="-5578.0864" y1="2520.644" x2="-5690.1382" y2="2519.2993" gradientTransform="matrix(-0.9998 -0.02 -0.02 0.9998 -4813.9961 -50.8396)">
						<stop  offset="0" style="stop-color:#53EAC9"/>
						<stop  offset="0.9964" style="stop-color:#45AED8"/>
					</linearGradient>
					<path style="fill:url(#SVGID_00000085947346176695667990000017154974646681342886_);" d="M743.833,2554.541
						c0.975-0.243,2.008-0.469,3.084-0.682c-14.338,12.842-19.02,35.556-5.171,51.542c0.92,1.062,1.896,2.045,2.896,2.994
						C719.663,2599.788,717.647,2561.058,743.833,2554.541z"/>
					
						<linearGradient id="SVGID_00000031890856465000268950000000997810472033395597_" gradientUnits="userSpaceOnUse" x1="980.8074" y1="2241.7073" x2="845.5853" y2="2607.9712">
						<stop  offset="0" style="stop-color:#F9B776"/>
						<stop  offset="1" style="stop-color:#F47960"/>
					</linearGradient>
					<path style="fill:url(#SVGID_00000031890856465000268950000000997810472033395597_);" d="M870.013,2552.147l-12.118,0.145
						c-6.511,0.078-12.719,3.059-17.226,8.271c-4.506,5.212-6.931,12.216-6.729,19.434c0.162,5.755,2.385,11.201,6.178,15.132
						c3.793,3.931,8.842,6.024,14.03,5.814l18.555-0.75L870.013,2552.147z"/>
				</g>
				
					<linearGradient id="SVGID_00000160173858126828510320000017356925657833831582_" gradientUnits="userSpaceOnUse" x1="1308.8702" y1="2344.957" x2="957.5267" y2="2608.8845">
					<stop  offset="0" style="stop-color:#CB236D"/>
					<stop  offset="1" style="stop-color:#4C246D"/>
				</linearGradient>
				<path style="fill:url(#SVGID_00000160173858126828510320000017356925657833831582_);" d="M1285.771,2434.881
					c-14.032-32.296-48.353-37.538-77.563-22.438c-0.509,0.668-185.506,95.481-348.65,137.034
					c4.671,14.973,7.072,30.905,7.596,46.565c0.094,3.489,0.036,6.93-0.168,10.326c125.108-6.426,260.888-48.149,377.564-84.816
					C1280.73,2509.883,1301.324,2470.676,1285.771,2434.881z"/>
				
					<linearGradient id="SVGID_00000098209646579579128760000000478840763044454545_" gradientUnits="userSpaceOnUse" x1="991.1482" y1="2581.6741" x2="899.0659" y2="2346.8645">
					<stop  offset="0" style="stop-color:#CB236D"/>
					<stop  offset="1" style="stop-color:#4C246D"/>
				</linearGradient>
				<path style="fill:url(#SVGID_00000098209646579579128760000000478840763044454545_);" d="M1155.001,2598.496
					c-0.489-18.051,3.02-34.854,10.528-50.41c0.215-0.713,0.471-1.396,0.698-2.101c-9.316-2.885-21.351-6.795-37.162-12.158
					c-115.849-39.646-204.228-79.679-288.577-125.762c-32.768-17.903-70.026-5.904-80.515,32.869
					c-9.364,34.613,11.199,64.164,42.409,74.549c93.37,31.07,44.755,22.44,75.249,32.253
					c81.895,25.324,183.803,48.391,277.565,54.689C1155.125,2601.115,1155.045,2599.803,1155.001,2598.496z"/>
				
					<linearGradient id="SVGID_00000064333397443036197280000007453200580848627895_" gradientUnits="userSpaceOnUse" x1="1024.0135" y1="2259.6633" x2="1020.8961" y2="1988.4219">
					<stop  offset="0" style="stop-color:#F9B776"/>
					<stop  offset="1" style="stop-color:#F47960"/>
				</linearGradient>
				<path style="fill:url(#SVGID_00000064333397443036197280000007453200580848627895_);" d="M952.456,2126.605
					c0,0,12.459,53.992,72.95,52.871c61.611-1.121,67.104-53.048,67.104-53.048l-40.246-8.612l-3.364-44.844l-60.539,4.485
					l-1.12,42.601L952.456,2126.605z"/>
				<g>
					
						<linearGradient id="SVGID_00000091735170530050005700000008507497653607498402_" gradientUnits="userSpaceOnUse" x1="331.9341" y1="2126.2942" x2="301.144" y2="1879.9725" gradientTransform="matrix(0.9289 -0.3701 0.3701 0.9289 54.0703 232.7222)">
						<stop  offset="0" style="stop-color:#F9B776"/>
						<stop  offset="1" style="stop-color:#F47960"/>
					</linearGradient>
					<path style="fill-rule:evenodd;clip-rule:evenodd;fill:url(#SVGID_00000091735170530050005700000008507497653607498402_);" d="
						M1098.936,2014.647c0,0-6.634-16.983,8.787-20.536c15.421-3.553,2.064,42.525,2.064,42.525L1098.936,2014.647z"/>
					
						<linearGradient id="SVGID_00000133504213030639191260000009017446904556946567_" gradientUnits="userSpaceOnUse" x1="1220.772" y1="663.5051" x2="609.1053" y2="1320.6688" gradientTransform="matrix(0.8869 -0.462 0.462 0.8869 64.7817 350.3032)">
						<stop  offset="0" style="stop-color:#CB236D"/>
						<stop  offset="1" style="stop-color:#4C246D"/>
					</linearGradient>
					<path style="fill-rule:evenodd;clip-rule:evenodd;fill:url(#SVGID_00000133504213030639191260000009017446904556946567_);" d="
						M1106.071,2013.167c0,0,14.725-27.157-5.553-40.549c0,0,9.894-23.8-10.765-40.132c0,0-34.423-73.985-100.024-19.24
						c0,0-58.466-15.386-74.813,57.233c0,0-18.917,11.419-9.242,38.05c0,0,1.004,99.892,87.365,63.469L1106.071,2013.167z"/>
					
						<linearGradient id="SVGID_00000062879106769807198540000000176311972642905784_" gradientUnits="userSpaceOnUse" x1="254.2283" y1="2114.311" x2="229.792" y2="1918.8204" gradientTransform="matrix(0.9289 -0.3701 0.3701 0.9289 54.0703 232.7222)">
						<stop  offset="0" style="stop-color:#F9B776"/>
						<stop  offset="1" style="stop-color:#F47960"/>
					</linearGradient>
					<path style="fill-rule:evenodd;clip-rule:evenodd;fill:url(#SVGID_00000062879106769807198540000000176311972642905784_);" d="
						M1075.512,1958.322c0,0,77.655,109.321,2.167,145.957c-71.244,34.576-104.048-38.612-104.048-38.612
						s-32.823-31.917-22.953-57.605C960.548,1982.375,1057.008,1945.019,1075.512,1958.322z"/>
					
						<linearGradient id="SVGID_00000130616661269705508300000013161864224217134732_" gradientUnits="userSpaceOnUse" x1="1348.9359" y1="799.6546" x2="737.2163" y2="1456.8751" gradientTransform="matrix(0.9289 -0.3701 0.3701 0.9289 54.0703 232.7222)">
						<stop  offset="0" style="stop-color:#CB236D"/>
						<stop  offset="1" style="stop-color:#4C246D"/>
					</linearGradient>
					<path style="fill-rule:evenodd;clip-rule:evenodd;fill:url(#SVGID_00000130616661269705508300000013161864224217134732_);" d="
						M965.846,2048.308c0,0,71.807-25.262,64.245-67.904c0,0,12.605,0.856,15.991-14.067c0,0,36.612,30.893,45.282,8.203
						c0,0-7.991-55.247-50.91-35.9c-42.918,19.347-82.06,38.881-93.296,52.042C935.923,2003.845,927.241,2035.106,965.846,2048.308z
						"/>
					
						<linearGradient id="SVGID_00000042704523083267917040000011799305980347131299_" gradientUnits="userSpaceOnUse" x1="182.0166" y1="2120.9563" x2="157.9659" y2="1928.5499" gradientTransform="matrix(0.9289 -0.3701 0.3701 0.9289 54.0703 232.7222)">
						<stop  offset="0" style="stop-color:#F9B776"/>
						<stop  offset="1" style="stop-color:#F47960"/>
					</linearGradient>
					<path style="fill-rule:evenodd;clip-rule:evenodd;fill:url(#SVGID_00000042704523083267917040000011799305980347131299_);" d="
						M983.459,2075.334l-14.009-35.013c0,0-25.261-10.651-21.37,8.515C951.97,2068.003,974.681,2077.938,983.459,2075.334z"/>
				</g>
			</g>
			
				<linearGradient id="SVGID_00000038372970128348175570000001003277809389192577_" gradientUnits="userSpaceOnUse" x1="1025.0802" y1="2248.3364" x2="1017.2065" y2="2625.1375">
				<stop  offset="0" style="stop-color:#53D8FF"/>
				<stop  offset="1" style="stop-color:#3840F7"/>
			</linearGradient>
			<path style="fill:url(#SVGID_00000038372970128348175570000001003277809389192577_);" d="M1039.287,2370.347
				c1.433,9.687-3.757,18.48-13.444,19.914c-9.687,1.434-18.703-5.258-20.136-14.945s3.001-19.309,12.688-20.742
				C1028.083,2353.14,1037.854,2360.66,1039.287,2370.347z"/>
		</g>
		<g>
			
				<linearGradient id="SVGID_00000007394936858231000080000007459919915747464333_" gradientUnits="userSpaceOnUse" x1="1539.7303" y1="2146.2429" x2="2143.4275" y2="625.8215">
				<stop  offset="0" style="stop-color:#B37CFF"/>
				<stop  offset="1" style="stop-color:#F895E7"/>
			</linearGradient>
			
				<circle style="fill:url(#SVGID_00000007394936858231000080000007459919915747464333_);" cx="1675.112" cy="1805.282" r="277.75"/>
			<g>
				<path style="fill:#FFFFFF;" d="M1483.701,1756.449v44.734h43.351v-44.734h26.254v116.41h-26.254v-48.706h-43.351v48.706h-26.425
					v-116.41H1483.701z"/>
				<path style="fill:#FFFFFF;" d="M1598.737,1778.557h-31.262v-22.108h89.468v22.108h-31.781v94.302h-26.425V1778.557z"/>
				<path style="fill:#FFFFFF;" d="M1768.696,1828.299c-0.519-13.991-1.037-30.917-1.037-47.842h-0.517
					c-3.627,14.853-8.464,31.433-12.953,45.079l-14.164,45.424h-20.553l-12.435-45.079c-3.799-13.644-7.772-30.224-10.535-45.424
					h-0.347c-0.69,15.717-1.208,33.68-2.071,48.188l-2.073,44.215h-24.352l7.426-116.41h35.061l11.399,38.86
					c3.627,13.472,7.255,27.982,9.845,41.625h0.519c3.282-13.472,7.255-28.844,11.054-41.797l12.435-38.688h34.371l6.391,116.41
					h-25.735L1768.696,1828.299z"/>
				<path style="fill:#FFFFFF;" d="M1816.376,1756.449h26.425v94.302h46.289v22.108h-72.714V1756.449z"/>
			</g>
		</g>
		<g>
			
				<linearGradient id="SVGID_00000018215445566270000440000002703620495322335618_" gradientUnits="userSpaceOnUse" x1="977.6635" y1="1791.8795" x2="1570.7965" y2="298.0639">
				<stop  offset="0" style="stop-color:#B37CFF"/>
				<stop  offset="1" style="stop-color:#F895E7"/>
			</linearGradient>
			
				<circle style="fill:url(#SVGID_00000018215445566270000440000002703620495322335618_);" cx="1110.676" cy="1456.885" r="272.89"/>
			<g>
				<path style="fill:#FFFFFF;" d="M1020.86,1523.703c-5.606,2.804-18.216,5.805-34.63,5.805c-46.634,0-70.655-29.024-70.655-67.454
					c0-46.034,32.827-71.654,73.659-71.654c15.811,0,27.822,3.201,33.224,6.005l-6.205,24.218
					c-6.202-2.602-14.812-5.003-25.62-5.003c-24.217,0-43.033,14.609-43.033,44.635c0,27.02,16.014,44.033,43.235,44.033
					c9.206,0,19.415-2.002,25.417-4.403L1020.86,1523.703z"/>
				<path style="fill:#FFFFFF;" d="M1137.572,1421.023v43.636h41.831v18.812h-41.831v44.036h-19.618v-44.036h-41.831v-18.812h41.831
					v-43.636H1137.572z"/>
				<path style="fill:#FFFFFF;" d="M1256.88,1421.023v43.636h41.831v18.812h-41.831v44.036h-19.618v-44.036h-41.831v-18.812h41.831
					v-43.636H1256.88z"/>
			</g>
		</g>
	</g>
</g>
</svg>
