<?xml version="1.0" encoding="utf-8"?>
<!-- Generator: Adobe Illustrator 27.5.0, SVG Export Plug-In . SVG Version: 6.00 Build 0)  -->
<svg version="1.1" xmlns="http://www.w3.org/2000/svg" xmlns:xlink="http://www.w3.org/1999/xlink" x="0px" y="0px"
	 viewBox="0 0 3710 3710" style="enable-background:new 0 0 3710 3710;" xml:space="preserve">
<g id="Background">
	<g>
		<g>
			<rect style="fill:#FFFFFF;" width="3710" height="3710"/>
		</g>
	</g>
</g>
<g id="Illustration">
	<g>
		<linearGradient id="SVGID_1_" gradientUnits="userSpaceOnUse" x1="3367.668" y1="3531.1343" x2="1367.2438" y2="1371.946">
			<stop  offset="0" style="stop-color:#B37CFF"/>
			<stop  offset="1" style="stop-color:#F895E7"/>
		</linearGradient>
		<path style="opacity:0.3;fill:url(#SVGID_1_);" d="M3088.896,2300.694c-274.873,642.483-1000.449,918.445-1568.948,871.393
			c-155.224-12.847-467.537-38.696-711.394-269.303c-468.31-442.867-396.186-1368.581,52.121-1913.591
			c57.733-70.186,457.35-540.424,1080.079-534.13c455.928,4.609,775.94,262.156,814.852,294.242
			c49.157,40.533,157.576,136.851,255.288,289.654C3240.482,1397.992,3260.664,1899.206,3088.896,2300.694z"/>
		<g>
			
				<linearGradient id="SVGID_00000096758365247510658570000010390587358738448775_" gradientUnits="userSpaceOnUse" x1="1590.4058" y1="2591.0261" x2="2178.4231" y2="826.9693">
				<stop  offset="0" style="stop-color:#2B3582"/>
				<stop  offset="1" style="stop-color:#150E42"/>
			</linearGradient>
			<path style="fill:url(#SVGID_00000096758365247510658570000010390587358738448775_);" d="M3036.453,2676.655
				c0,26.026-19.574,47.32-43.496,47.32H640.871c-23.922,0-43.496-21.294-43.496-47.32l-19.572-1471.94
				c0-26.026,28.158-76.836,79.763-73.018l2298.718-64.771c30.016-0.846,59.038,11.735,80.293,34.807
				c21.256,23.072,32.886,54.616,32.177,87.272L3036.453,2676.655z"/>
			
				<linearGradient id="SVGID_00000039812405166617723730000001560447931888337079_" gradientUnits="userSpaceOnUse" x1="2878.4648" y1="737.1207" x2="-296.6867" y2="4363.6841">
				<stop  offset="0" style="stop-color:#FDF53F"/>
				<stop  offset="1" style="stop-color:#D93C65"/>
			</linearGradient>
			<path style="fill:url(#SVGID_00000039812405166617723730000001560447931888337079_);" d="M2993.511,2631.257
				c0,24.646-18.518,44.811-41.15,44.811H697.593c-22.633,0-41.15-20.165-41.15-44.811l-18.469-1336.241
				c2.175-80.411,66.914-109.312,106.157-107.606c0,0,1796.658-52.49,2203.111-64.365c21.088-0.616,41.477,8.231,56.412,24.454
				c14.936,16.223,23.15,38.424,22.621,61.39L2993.511,2631.257z"/>
			<g>
				<path style="fill:#FFFFFF;" d="M680.809,1992.98c-1.692,0-3.076-1.361-3.098-3.057l-1.461-108.369
					c-0.023-1.712,1.346-3.119,3.057-3.142c1.691-0.059,3.118,1.345,3.142,3.057l1.461,108.368c0.023,1.712-1.346,3.12-3.057,3.142
					C680.838,1992.98,680.825,1992.98,680.809,1992.98z"/>
				<path style="fill:#FFFFFF;" d="M677.228,1727.424c-1.692,0-3.076-1.361-3.098-3.058l-5.597-415.044
					c0.121-28.925,8.706-51.707,25.519-67.77c27.901-26.651,69.318-25.24,71.045-25.178l703.55-20.56
					c1.797-0.08,3.141,1.297,3.189,3.007c0.05,1.712-1.297,3.139-3.007,3.189l-703.744,20.561
					c-1.895-0.073-40.735-1.389-66.751,23.465c-15.548,14.853-23.488,36.136-23.602,63.258l5.597,414.988
					c0.023,1.712-1.346,3.119-3.057,3.142C677.257,1727.424,677.243,1727.424,677.228,1727.424z"/>
			</g>
			<path style="opacity:0.37;fill:#FFFFFF;" d="M755.779,2557.129c2.361-110.442,1.482-1088.433-4.337-1172.896
				c-5.819-84.464,114.98-100.307,300.443-109.812c185.463-9.506,1750.286-47.138,1790.577-50.696
				c90.565-7.997,109.31,139.413,100.25,459.43c-6.807,240.425-18.089,636.485-23.28,818.623
				c-1.545,54.233-42.25,97.263-92.076,97.412c-376.561,1.127-1819.806,5.631-1915.885,8.747
				C800.906,2611.522,754.844,2600.921,755.779,2557.129z"/>
			
				<linearGradient id="SVGID_00000047762161307505338530000008385689702787434676_" gradientUnits="userSpaceOnUse" x1="2895.7524" y1="2524.8792" x2="419.5174" y2="3127.2063">
				<stop  offset="0" style="stop-color:#2B3582"/>
				<stop  offset="1" style="stop-color:#150E42"/>
			</linearGradient>
			<path style="fill:url(#SVGID_00000047762161307505338530000008385689702787434676_);" d="M3219.759,2846.165H461.754
				c-4.128,0-7.505-3.377-7.505-7.505v-114.32c0-4.128,3.377-7.505,7.505-7.505h2758.006c4.128,0,7.505,3.377,7.505,7.505v114.32
				C3227.264,2842.787,3223.887,2846.165,3219.759,2846.165z"/>
		</g>
		<g>
			
				<linearGradient id="SVGID_00000077322789896096302680000017869435837410347929_" gradientUnits="userSpaceOnUse" x1="2587.5007" y1="1065.1069" x2="2634.1479" y2="919.3346" gradientTransform="matrix(1.1658 0.0701 -0.0712 1.1846 -253.3649 -78.6342)">
				<stop  offset="0" style="stop-color:#53D8FF"/>
				<stop  offset="1" style="stop-color:#3840F7"/>
			</linearGradient>
			<path style="fill:url(#SVGID_00000077322789896096302680000017869435837410347929_);" d="M2564.29,895.401l-52.892,115.816
				c0,0,29.301,193.496,233.157,268.911c203.856,75.415,294.573-22.575,294.573-22.575l64.873-170.706L2564.29,895.401z"/>
			
				<linearGradient id="SVGID_00000127722772162328136290000011879279833994399146_" gradientUnits="userSpaceOnUse" x1="2594.2202" y1="967.2415" x2="2821.6113" y2="463.8718" gradientTransform="matrix(1.1658 0.0701 -0.0712 1.1846 -253.3649 -78.6342)">
				<stop  offset="0" style="stop-color:#53D8FF"/>
				<stop  offset="1" style="stop-color:#3840F7"/>
			</linearGradient>
			<path style="fill:url(#SVGID_00000127722772162328136290000011879279833994399146_);" d="M2897.566,735.06l-426.454,81.337
				c-21.959,4.188-30.493,31.548-14.883,47.747c76.143,79.013,248.831,262.637,311.261,365.908
				c6.679,11.047,19.913,16.023,32.103,12.126l436.543-139.532c19.747-6.312,26.169-31.464,11.902-46.659
				c-75.238-80.131-266.97-281.06-331.81-317.878C2910.561,734.89,2903.955,733.842,2897.566,735.06z"/>
			
				<linearGradient id="SVGID_00000065790077421851575660000018280763935732780678_" gradientUnits="userSpaceOnUse" x1="2889.2559" y1="1210.1954" x2="2842.6123" y2="914.7855" gradientTransform="matrix(1.1658 0.0701 -0.0712 1.1846 -253.3649 -78.6342)">
				<stop  offset="0" style="stop-color:#53D8FF"/>
				<stop  offset="1" style="stop-color:#3840F7"/>
			</linearGradient>
			<path style="fill:url(#SVGID_00000065790077421851575660000018280763935732780678_);" d="M2869.303,952.629
				c0,0,209.246,161.917,223.282,195.9c14.036,33.983-33.009,178.583-33.009,178.583c23.894,128.064,17.094,264.212-48.144,329.94
				c0,0-58.217-170.793-19.625-237.154c38.591-66.361,53.615-93.636,53.615-93.636s42.299-154.849,35.296-178.148
				C3080.719,1148.115,2849.686,959.953,2869.303,952.629z"/>
			<path style="fill:#FFFFFF;" d="M2523.288,860.978l193.744,231.769l48.436,57.942l12.109,14.486l6.054,7.243
				c1.948,2.294,4.023,4.364,6.35,6.215c9.311,7.343,21.991,10.176,33.556,7.39l146.704-35.851c1.026-0.251,2.062,0.377,2.313,1.404
				c0.25,1.022-0.373,2.053-1.391,2.309l-146.498,36.844c-12.952,3.218-27.26,0.138-37.808-8.074
				c-2.623-2.047-5.031-4.422-7.169-6.915l-6.103-7.202l-12.206-14.404l-48.824-57.616l-195.296-230.463
				c-1.407-1.66-1.202-4.147,0.459-5.554s4.147-1.201,5.554,0.459L2523.288,860.978z"/>
			<path style="fill:#FFFFFF;" d="M3036.366,1401.151l-0.485,0.44l-0.556,0.562l-1.123,1.134l-2.171,2.489
				c-1.431,1.684-2.725,3.539-4.094,5.305l-3.701,5.677c-1.156,1.948-2.212,3.967-3.326,5.947c-1.165,1.954-2.069,4.056-3.023,6.13
				c-0.931,2.085-1.957,4.13-2.816,6.25l-2.393,6.449c-0.785,2.155-1.666,4.278-2.23,6.515l-1.91,6.634
				c-0.625,2.216-1.344,4.407-1.742,6.685c-0.924,4.521-1.936,9.029-2.794,13.569l-1.854,13.764
				c-0.141,1.149-0.341,2.292-0.434,3.447l-0.221,3.472l-0.444,6.945c-0.88,9.253-0.427,18.566-0.499,27.868
				c-0.053,2.328,0.124,4.65,0.29,6.973l0.469,6.97c0.334,4.646,0.575,9.302,0.984,13.944c1.23,9.242,2.268,18.521,3.656,27.75
				l5.125,27.554l0.013,0.072c0.138,0.744-0.353,1.459-1.096,1.597c-0.733,0.136-1.438-0.34-1.592-1.066l-5.786-27.583
				c-1.61-9.257-2.871-18.583-4.323-27.881c-0.521-4.675-0.873-9.373-1.318-14.062l-0.634-7.038
				c-0.221-2.346-0.452-4.692-0.455-7.052c-0.146-9.428-0.815-18.864-0.14-28.31l0.291-7.087l0.146-3.545
				c0.069-1.18,0.245-2.354,0.362-3.531l1.577-14.129c0.772-4.68,1.704-9.341,2.553-14.018c0.361-2.352,1.047-4.638,1.64-6.944
				l1.822-6.912c0.534-2.326,1.395-4.561,2.162-6.824l2.344-6.78c0.847-2.238,1.871-4.414,2.801-6.625
				c0.954-2.203,1.858-4.428,3.042-6.535c1.132-2.128,2.204-4.288,3.39-6.392l3.835-6.183c1.448-1.973,2.799-3.997,4.354-5.918
				l2.386-2.859l1.315-1.394l0.667-0.699l0.801-0.755c1.583-1.492,4.077-1.418,5.569,0.166c1.492,1.583,1.418,4.077-0.166,5.569
				c-0.013,0.012-0.025,0.024-0.039,0.036L3036.366,1401.151z"/>
			<path style="fill:#FFFFFF;" d="M3037.845,1460.159l-0.803,8.948l-0.786,9.926l-1.47,19.893l-2.782,39.823l-5.329,79.676
				c-0.075,1.18-1.093,2.076-2.274,2.001c-1.163-0.074-2.05-1.074-2.003-2.233l3.533-79.792l1.885-39.898l1.024-19.957l0.565-9.993
				l0.328-5.028l0.177-2.525c0.101-1.05,0.277-2.268,0.472-3.379c0.366-2.087,2.354-3.482,4.441-3.116
				c1.975,0.346,3.331,2.146,3.16,4.106L3037.845,1460.159z"/>
		</g>
		<g>
			
				<linearGradient id="SVGID_00000167358587993401030690000007774123474745132958_" gradientUnits="userSpaceOnUse" x1="2032.6129" y1="2189.2351" x2="1456.5848" y2="2968.5684">
				<stop  offset="0" style="stop-color:#53D8FF"/>
				<stop  offset="1" style="stop-color:#3840F7"/>
			</linearGradient>
			
				<circle style="fill:url(#SVGID_00000167358587993401030690000007774123474745132958_);" cx="1895.552" cy="2374.671" r="203.546"/>
			<g>
				
					<linearGradient id="SVGID_00000105392467753631061300000005289465100328032410_" gradientUnits="userSpaceOnUse" x1="1693.8716" y1="2366.0063" x2="1745.2185" y2="2366.0063">
					<stop  offset="0" style="stop-color:#2B3582"/>
					<stop  offset="1" style="stop-color:#150E42"/>
				</linearGradient>
				<path style="fill:url(#SVGID_00000105392467753631061300000005289465100328032410_);" d="M1693.872,2362.732l51.347-26.775
					v11.409c0,0.865-0.217,1.655-0.649,2.368c-0.433,0.713-1.146,1.327-2.139,1.847l-23.534,12.059
					c-0.995,0.519-2.042,0.962-3.145,1.33c-1.102,0.367-2.28,0.703-3.533,1.005c1.252,0.302,2.431,0.637,3.533,1.005
					c1.103,0.367,2.15,0.81,3.145,1.329l23.534,12.124c0.993,0.517,1.706,1.133,2.139,1.847c0.432,0.713,0.649,1.502,0.649,2.366
					v11.411l-51.347-26.84V2362.732z"/>
				
					<linearGradient id="SVGID_00000160878607833994502490000014699201259515247256_" gradientUnits="userSpaceOnUse" x1="1768.6206" y1="2361.4995" x2="1826.5793" y2="2361.4995">
					<stop  offset="0" style="stop-color:#2B3582"/>
					<stop  offset="1" style="stop-color:#150E42"/>
				</linearGradient>
				<path style="fill:url(#SVGID_00000160878607833994502490000014699201259515247256_);" d="M1768.621,2409.669v-96.339h16.014
					v37.019c2.593-2.463,5.446-4.451,8.558-5.964c3.112-1.511,6.764-2.269,10.956-2.269c3.631,0,6.85,0.616,9.66,1.849
					c2.809,1.23,5.154,2.961,7.034,5.185c1.88,2.226,3.306,4.885,4.279,7.975c0.973,3.09,1.458,6.494,1.458,10.21v42.334h-16.013
					v-42.334c0-4.063-0.94-7.207-2.82-9.433c-1.88-2.224-4.7-3.339-8.461-3.339c-2.767,0-5.359,0.627-7.78,1.88
					c-2.421,1.254-4.712,2.961-6.872,5.122v48.104H1768.621z"/>
				
					<linearGradient id="SVGID_00000060010802644820928080000007709243670685703326_" gradientUnits="userSpaceOnUse" x1="1836.3041" y1="2366.7512" x2="1881.6217" y2="2366.7512">
					<stop  offset="0" style="stop-color:#2B3582"/>
					<stop  offset="1" style="stop-color:#150E42"/>
				</linearGradient>
				<path style="fill:url(#SVGID_00000060010802644820928080000007709243670685703326_);" d="M1864.181,2410.708
					c-5.749,0-10.178-1.631-13.29-4.896c-3.112-3.263-4.668-7.768-4.668-13.517v-37.147h-6.742c-0.865,0-1.611-0.281-2.237-0.844
					c-0.627-0.562-0.94-1.403-0.94-2.528v-6.352l10.698-1.752l3.371-18.151c0.172-0.865,0.572-1.534,1.199-2.011
					c0.627-0.475,1.415-0.713,2.367-0.713h8.298v20.941h17.505v11.411h-17.505v36.046c0,2.074,0.519,3.695,1.557,4.862
					s2.42,1.75,4.149,1.75c0.994,0,1.825-0.118,2.495-0.354c0.67-0.239,1.254-0.488,1.751-0.747c0.497-0.26,0.94-0.507,1.33-0.745
					c0.388-0.236,0.778-0.356,1.167-0.356c0.475,0,0.864,0.12,1.167,0.356c0.302,0.239,0.626,0.595,0.972,1.07l4.798,7.779
					c-2.334,1.946-5.014,3.415-8.04,4.409C1870.557,2410.21,1867.423,2410.708,1864.181,2410.708z"/>
				
					<linearGradient id="SVGID_00000163044232714496149570000014440597724632734650_" gradientUnits="userSpaceOnUse" x1="1892.5114" y1="2375.8923" x2="1985.9331" y2="2375.8923">
					<stop  offset="0" style="stop-color:#2B3582"/>
					<stop  offset="1" style="stop-color:#150E42"/>
				</linearGradient>
				<path style="fill:url(#SVGID_00000163044232714496149570000014440597724632734650_);" d="M1892.511,2409.669v-66.515h9.79
					c2.074,0,3.436,0.971,4.084,2.917l1.037,4.928c1.167-1.298,2.388-2.486,3.664-3.567c1.274-1.08,2.636-2.009,4.084-2.788
					c1.448-0.779,3.004-1.393,4.668-1.846c1.663-0.454,3.49-0.682,5.479-0.682c4.191,0,7.639,1.135,10.34,3.404
					c2.701,2.269,4.722,5.282,6.062,9.043c1.037-2.203,2.334-4.094,3.889-5.673c1.557-1.576,3.264-2.862,5.122-3.858
					c1.858-0.992,3.836-1.726,5.932-2.203c2.096-0.475,4.203-0.714,6.321-0.714c3.673,0,6.937,0.562,9.79,1.686
					c2.852,1.125,5.251,2.767,7.197,4.926c1.945,2.163,3.424,4.799,4.44,7.91c1.015,3.113,1.524,6.677,1.524,10.698v42.334h-16.014
					v-42.334c0-4.235-0.93-7.422-2.787-9.562c-1.859-2.14-4.583-3.21-8.169-3.21c-1.643,0-3.167,0.283-4.57,0.844
					c-1.406,0.561-2.637,1.372-3.696,2.431c-1.06,1.059-1.891,2.387-2.496,3.987c-0.606,1.6-0.907,3.436-0.907,5.51v42.334h-16.078
					v-42.334c0-4.451-0.898-7.692-2.691-9.725c-1.794-2.03-4.441-3.047-7.941-3.047c-2.292,0-4.441,0.574-6.451,1.718
					c-2.009,1.146-3.879,2.714-5.607,4.702v48.687H1892.511z"/>
				
					<linearGradient id="SVGID_00000029048001654715623890000013703808725092575882_" gradientUnits="userSpaceOnUse" x1="2002.7245" y1="2361.4995" x2="2018.7382" y2="2361.4995">
					<stop  offset="0" style="stop-color:#2B3582"/>
					<stop  offset="1" style="stop-color:#150E42"/>
				</linearGradient>
				<path style="fill:url(#SVGID_00000029048001654715623890000013703808725092575882_);" d="M2018.738,2313.33v96.339h-16.014
					v-96.339H2018.738z"/>
				
					<linearGradient id="SVGID_00000002385680770849284250000018254100760110128270_" gradientUnits="userSpaceOnUse" x1="2043.1143" y1="2366.0063" x2="2094.4602" y2="2366.0063">
					<stop  offset="0" style="stop-color:#2B3582"/>
					<stop  offset="1" style="stop-color:#150E42"/>
				</linearGradient>
				<path style="fill:url(#SVGID_00000002385680770849284250000018254100760110128270_);" d="M2043.114,2396.055v-11.411
					c0-0.863,0.215-1.653,0.648-2.366c0.432-0.713,1.145-1.33,2.14-1.847l23.533-12.124c1.901-0.949,4.127-1.728,6.678-2.334
					c-1.254-0.302-2.431-0.637-3.534-1.005c-1.102-0.367-2.15-0.81-3.145-1.33l-23.533-12.059c-0.995-0.519-1.708-1.133-2.14-1.847
					c-0.433-0.713-0.648-1.502-0.648-2.368v-11.409l51.346,26.775v6.483L2043.114,2396.055z"/>
			</g>
		</g>
		<g>
			
				<linearGradient id="SVGID_00000023271921327519556800000015100189928472746377_" gradientUnits="userSpaceOnUse" x1="1142.7433" y1="1456.0859" x2="590.4317" y2="2767.4006">
				<stop  offset="0" style="stop-color:#53D8FF"/>
				<stop  offset="1" style="stop-color:#3840F7"/>
			</linearGradient>
			
				<circle style="fill:url(#SVGID_00000023271921327519556800000015100189928472746377_);" cx="1053.976" cy="1666.84" r="228.626"/>
			<g>
				
					<linearGradient id="SVGID_00000080915561944443321130000016177711283227541387_" gradientUnits="userSpaceOnUse" x1="851.9326" y1="1659.5315" x2="900.7182" y2="1659.5315">
					<stop  offset="0" style="stop-color:#2B3582"/>
					<stop  offset="1" style="stop-color:#150E42"/>
				</linearGradient>
				<path style="fill:url(#SVGID_00000080915561944443321130000016177711283227541387_);" d="M851.933,1656.421l48.786-25.439
					v10.842c0,0.822-0.206,1.57-0.618,2.248c-0.411,0.678-1.089,1.261-2.031,1.754l-22.361,11.457
					c-0.944,0.493-1.939,0.914-2.987,1.263c-1.047,0.349-2.166,0.668-3.357,0.954c1.191,0.289,2.31,0.606,3.357,0.954
					c1.049,0.349,2.043,0.77,2.987,1.263l22.361,11.519c0.942,0.491,1.62,1.077,2.031,1.754c0.411,0.678,0.618,1.428,0.618,2.25
					v10.839l-48.786-25.501V1656.421z"/>
				
					<linearGradient id="SVGID_00000000932682945689888200000006427841114223817917_" gradientUnits="userSpaceOnUse" x1="922.9525" y1="1655.2516" x2="978.018" y2="1655.2516">
					<stop  offset="0" style="stop-color:#2B3582"/>
					<stop  offset="1" style="stop-color:#150E42"/>
				</linearGradient>
				<path style="fill:url(#SVGID_00000000932682945689888200000006427841114223817917_);" d="M922.953,1701.017v-91.532h15.215
					v35.169c2.462-2.338,5.173-4.227,8.131-5.666c2.955-1.436,6.426-2.153,10.408-2.153c3.451,0,6.508,0.583,9.179,1.754
					c2.669,1.169,4.896,2.813,6.683,4.927c1.787,2.117,3.14,4.642,4.064,7.577c0.924,2.937,1.385,6.17,1.385,9.703v40.222h-15.213
					v-40.222c0-3.862-0.894-6.849-2.681-8.963c-1.786-2.115-4.465-3.172-8.038-3.172c-2.629,0-5.091,0.594-7.391,1.785
					c-2.3,1.191-4.477,2.815-6.529,4.868v45.704H922.953z"/>
				
					<linearGradient id="SVGID_00000172418397243869783530000002588531904515407544_" gradientUnits="userSpaceOnUse" x1="988.7372" y1="1669.3875" x2="1046.4514" y2="1669.3875">
					<stop  offset="0" style="stop-color:#2B3582"/>
					<stop  offset="1" style="stop-color:#150E42"/>
				</linearGradient>
				<path style="fill:url(#SVGID_00000172418397243869783530000002588531904515407544_);" d="M1019.104,1636.835
					c3.982,0,7.647,0.635,10.994,1.909c3.346,1.271,6.232,3.132,8.654,5.574c2.422,2.442,4.313,5.442,5.666,8.993
					c1.355,3.551,2.033,7.607,2.033,12.165c0,1.151-0.052,2.105-0.154,2.863c-0.102,0.762-0.287,1.355-0.553,1.789
					c-0.267,0.429-0.628,0.738-1.079,0.922c-0.451,0.185-1.027,0.277-1.724,0.277h-39.051c0.451,6.489,2.195,11.253,5.235,14.292
					c3.038,3.04,7.062,4.558,12.073,4.558c2.464,0,4.59-0.287,6.376-0.864c1.785-0.573,3.346-1.209,4.68-1.909
					c1.335-0.698,2.504-1.333,3.511-1.909c1.007-0.573,1.981-0.862,2.927-0.862c0.616,0,1.149,0.124,1.6,0.369
					c0.451,0.247,0.842,0.598,1.171,1.047l4.435,5.546c-1.684,1.969-3.573,3.623-5.666,4.956c-2.095,1.335-4.283,2.402-6.561,3.204
					c-2.28,0.8-4.6,1.364-6.962,1.692c-2.36,0.329-4.65,0.493-6.867,0.493c-4.393,0-8.479-0.73-12.257-2.186
					c-3.779-1.458-7.064-3.613-9.855-6.468c-2.793-2.853-4.991-6.384-6.591-10.595c-1.602-4.207-2.402-9.085-2.402-14.629
					c0-4.311,0.698-8.365,2.093-12.165c1.396-3.798,3.397-7.104,6.005-9.917s5.791-5.039,9.548-6.683
					C1010.141,1637.655,1014.38,1636.835,1019.104,1636.835z M1019.411,1647.734c-4.435,0-7.906,1.255-10.41,3.758
					c-2.504,2.506-4.106,6.059-4.804,10.657h28.58c0-1.971-0.267-3.828-0.8-5.574c-0.533-1.745-1.355-3.274-2.464-4.59
					c-1.109-1.313-2.504-2.35-4.189-3.11C1023.64,1648.115,1021.669,1647.734,1019.411,1647.734z"/>
				
					<linearGradient id="SVGID_00000052807290045063285410000005356025532461826491_" gradientUnits="userSpaceOnUse" x1="1055.6888" y1="1669.3252" x2="1108.3542" y2="1669.3252">
					<stop  offset="0" style="stop-color:#2B3582"/>
					<stop  offset="1" style="stop-color:#150E42"/>
				</linearGradient>
				<path style="fill:url(#SVGID_00000052807290045063285410000005356025532461826491_);" d="M1108.354,1701.017h-6.837
					c-1.438,0-2.566-0.216-3.389-0.648c-0.822-0.431-1.438-1.303-1.847-2.617l-1.355-4.497c-1.602,1.438-3.172,2.701-4.712,3.788
					c-1.54,1.089-3.132,2.001-4.774,2.741c-1.644,0.74-3.389,1.293-5.235,1.662c-1.849,0.371-3.902,0.555-6.16,0.555
					c-2.671,0-5.135-0.361-7.393-1.081c-2.258-0.722-4.199-1.803-5.821-3.244c-1.622-1.442-2.885-3.236-3.788-5.378
					c-0.904-2.142-1.355-4.636-1.355-7.479c0-2.39,0.626-4.748,1.879-7.076c1.253-2.328,3.336-4.429,6.252-6.302
					c2.915-1.877,6.795-3.431,11.641-4.668c4.846-1.235,10.861-1.853,18.048-1.853v-3.725c0-4.261-0.892-7.417-2.679-9.464
					c-1.786-2.049-4.385-3.072-7.792-3.072c-2.464,0-4.517,0.287-6.16,0.862c-1.644,0.573-3.07,1.221-4.281,1.941
					c-1.213,0.718-2.332,1.364-3.359,1.939s-2.155,0.862-3.387,0.862c-1.026,0-1.909-0.267-2.649-0.8
					c-0.74-0.533-1.335-1.191-1.786-1.973l-2.771-4.864c7.268-6.653,16.035-9.979,26.301-9.979c3.695,0,6.992,0.607,9.887,1.818
					c2.893,1.211,5.348,2.893,7.361,5.049c2.011,2.157,3.541,4.734,4.588,7.732c1.049,2.998,1.572,6.282,1.572,9.855V1701.017z
					 M1078.787,1691.53c1.56,0,2.998-0.14,4.311-0.423c1.315-0.283,2.557-0.708,3.728-1.273c1.171-0.565,2.3-1.263,3.389-2.091
					c1.087-0.828,2.185-1.811,3.294-2.941v-10.579c-4.435,0-8.141,0.281-11.118,0.838c-2.978,0.557-5.37,1.271-7.176,2.141
					c-1.807,0.868-3.09,1.881-3.85,3.04c-0.76,1.157-1.139,2.418-1.139,3.782c0,2.691,0.79,4.614,2.372,5.771
					C1074.178,1690.952,1076.241,1691.53,1078.787,1691.53z"/>
				
					<linearGradient id="SVGID_00000158024181261918008690000005332714222117658263_" gradientUnits="userSpaceOnUse" x1="1118.9491" y1="1655.7128" x2="1177.0944" y2="1655.7128">
					<stop  offset="0" style="stop-color:#2B3582"/>
					<stop  offset="1" style="stop-color:#150E42"/>
				</linearGradient>
				<path style="fill:url(#SVGID_00000158024181261918008690000005332714222117658263_);" d="M1167.795,1701.017
					c-1.971,0-3.266-0.926-3.882-2.773l-1.231-6.097c-1.315,1.478-2.691,2.813-4.126,4.002c-1.438,1.193-2.988,2.218-4.652,3.08
					c-1.662,0.862-3.449,1.532-5.357,2.003c-1.911,0.471-3.974,0.708-6.192,0.708c-3.449,0-6.611-0.718-9.486-2.156
					c-2.873-1.438-5.348-3.519-7.421-6.252c-2.075-2.729-3.675-6.108-4.806-10.132c-1.129-4.026-1.692-8.624-1.692-13.799
					c0-4.68,0.636-9.033,1.909-13.057s3.1-7.515,5.482-10.471c2.382-2.96,5.235-5.269,8.562-6.93
					c3.326-1.664,7.062-2.496,11.21-2.496c3.531,0,6.551,0.565,9.055,1.694c2.504,1.131,4.742,2.639,6.715,4.527v-33.385h15.213
					v91.532H1167.795z M1147.53,1689.867c3.162,0,5.851-0.656,8.068-1.971c2.218-1.313,4.311-3.18,6.284-5.606v-28.332
					c-1.726-2.095-3.605-3.573-5.636-4.435c-2.033-0.862-4.221-1.295-6.561-1.295c-2.3,0-4.383,0.433-6.252,1.295
					s-3.449,2.166-4.744,3.91c-1.293,1.746-2.288,3.964-2.986,6.653c-0.7,2.691-1.049,5.863-1.049,9.516
					c0,3.697,0.299,6.829,0.894,9.394c0.594,2.569,1.448,4.662,2.557,6.282c1.109,1.624,2.462,2.795,4.064,3.513
					C1143.772,1689.508,1145.558,1689.867,1147.53,1689.867z"/>
				
					<linearGradient id="SVGID_00000000218631890024754090000003273447798707156403_" gradientUnits="userSpaceOnUse" x1="1199.5153" y1="1659.5315" x2="1248.2988" y2="1659.5315">
					<stop  offset="0" style="stop-color:#2B3582"/>
					<stop  offset="1" style="stop-color:#150E42"/>
				</linearGradient>
				<path style="fill:url(#SVGID_00000000218631890024754090000003273447798707156403_);" d="M1199.515,1688.081v-10.839
					c0-0.822,0.204-1.572,0.615-2.25c0.409-0.678,1.087-1.263,2.033-1.754l22.359-11.519c1.807-0.902,3.92-1.64,6.344-2.218
					c-1.191-0.287-2.31-0.606-3.356-0.954c-1.047-0.349-2.043-0.77-2.988-1.263l-22.359-11.457
					c-0.946-0.493-1.624-1.077-2.033-1.754c-0.411-0.678-0.615-1.426-0.615-2.248v-10.842l48.784,25.439v6.16L1199.515,1688.081z"/>
			</g>
		</g>
		<g>
			<circle style="fill:#FFFFFF;" cx="1740.419" cy="1753.266" r="331.104"/>
			<g>
				
					<linearGradient id="SVGID_00000132066133112193451890000003352792032734825621_" gradientUnits="userSpaceOnUse" x1="1565.3744" y1="1759.9122" x2="1661.069" y2="1759.9122">
					<stop  offset="0" style="stop-color:#2B3582"/>
					<stop  offset="1" style="stop-color:#150E42"/>
				</linearGradient>
				<path style="fill:url(#SVGID_00000132066133112193451890000003352792032734825621_);" d="M1565.374,1753.808l95.695-49.898
					v21.262c0,1.613-0.409,3.083-1.211,4.413c-0.806,1.329-2.135,2.478-3.988,3.445l-43.857,22.473
					c-1.853,0.964-3.803,1.793-5.86,2.474c-2.053,0.688-4.252,1.31-6.584,1.872c2.332,0.563,4.531,1.192,6.584,1.876
					c2.057,0.684,4.008,1.51,5.86,2.474l43.857,22.595c1.853,0.967,3.182,2.116,3.988,3.445c0.802,1.326,1.211,2.797,1.211,4.405
					v21.27l-95.695-50.024V1753.808z"/>
				
					<linearGradient id="SVGID_00000158745683951219204690000017241868565341450383_" gradientUnits="userSpaceOnUse" x1="1686.5551" y1="1757.2516" x2="1785.0302" y2="1757.2516">
					<stop  offset="0" style="stop-color:#2B3582"/>
					<stop  offset="1" style="stop-color:#150E42"/>
				</linearGradient>
				<path style="fill:url(#SVGID_00000158745683951219204690000017241868565341450383_);" d="M1715.069,1841.645
					c-0.724,1.856-1.652,3.465-2.777,4.838c-1.129,1.369-2.415,2.517-3.866,3.442c-1.451,0.924-2.981,1.632-4.59,2.112
					c-1.612,0.488-3.186,0.728-4.712,0.728h-12.57l70.563-180.51c1.369-3.382,3.339-5.982,5.919-7.791
					c2.58-1.813,5.679-2.722,9.305-2.722h12.688L1715.069,1841.645z"/>
				
					<linearGradient id="SVGID_00000066475362163308721340000007028304109514342294_" gradientUnits="userSpaceOnUse" x1="1809.9185" y1="1759.9122" x2="1905.609" y2="1759.9122">
					<stop  offset="0" style="stop-color:#2B3582"/>
					<stop  offset="1" style="stop-color:#150E42"/>
				</linearGradient>
				<path style="fill:url(#SVGID_00000066475362163308721340000007028304109514342294_);" d="M1809.918,1815.915v-21.27
					c0-1.609,0.401-3.079,1.203-4.405c0.806-1.329,2.135-2.478,3.988-3.445l43.861-22.595c3.54-1.77,7.689-3.221,12.444-4.35
					c-2.336-0.562-4.531-1.184-6.584-1.872c-2.053-0.68-4.012-1.51-5.86-2.474l-43.861-22.473c-1.853-0.968-3.182-2.116-3.988-3.445
					c-0.802-1.329-1.203-2.8-1.203-4.413v-21.262l95.691,49.898v12.082L1809.918,1815.915z"/>
			</g>
		</g>
		<g>
			
				<linearGradient id="SVGID_00000114063947010107183610000006726062813385771146_" gradientUnits="userSpaceOnUse" x1="1066.3314" y1="2800.728" x2="2135.3491" y2="-159.631">
				<stop  offset="0" style="stop-color:#53D8FF"/>
				<stop  offset="1" style="stop-color:#3840F7"/>
			</linearGradient>
			
				<circle style="fill:url(#SVGID_00000114063947010107183610000006726062813385771146_);" cx="1272.943" cy="2228.572" r="202.718"/>
			<g>
				
					<linearGradient id="SVGID_00000157999276136040982450000009414089300135054769_" gradientUnits="userSpaceOnUse" x1="1139.9991" y1="2237.4502" x2="1210.5247" y2="2237.4502">
					<stop  offset="0" style="stop-color:#2B3582"/>
					<stop  offset="1" style="stop-color:#150E42"/>
				</linearGradient>
				<path style="fill:url(#SVGID_00000157999276136040982450000009414089300135054769_);" d="M1158.383,2252.073v34.785h-18.384
					v-98.817h32.187c6.606,0,12.324,0.774,17.154,2.323c4.828,1.551,8.816,3.715,11.959,6.493c3.143,2.779,5.467,6.104,6.971,9.977
					c1.503,3.873,2.255,8.108,2.255,12.711c0,4.783-0.798,9.167-2.391,13.154c-1.595,3.986-3.987,7.415-7.175,10.286
					c-3.19,2.87-7.177,5.101-11.959,6.696c-4.784,1.595-10.388,2.392-16.812,2.392H1158.383z M1158.383,2237.723h13.803
					c3.371,0,6.31-0.421,8.816-1.264c2.505-0.843,4.579-2.051,6.219-3.622c1.641-1.573,2.871-3.486,3.691-5.742
					c0.82-2.256,1.23-4.772,1.23-7.55c0-2.643-0.41-5.034-1.23-7.177c-0.82-2.14-2.05-3.964-3.691-5.468
					c-1.64-1.501-3.714-2.652-6.219-3.45c-2.506-0.796-5.445-1.197-8.816-1.197h-13.803V2237.723z"/>
				
					<linearGradient id="SVGID_00000099661781851635232410000012213669564211218102_" gradientUnits="userSpaceOnUse" x1="1224.8074" y1="2237.4502" x2="1308.1808" y2="2237.4502">
					<stop  offset="0" style="stop-color:#2B3582"/>
					<stop  offset="1" style="stop-color:#150E42"/>
				</linearGradient>
				<path style="fill:url(#SVGID_00000099661781851635232410000012213669564211218102_);" d="M1308.181,2286.859h-18.52v-43.19
					h-46.334v43.19h-18.52v-98.817h18.52v42.505h46.334v-42.505h18.52V2286.859z"/>
				
					<linearGradient id="SVGID_00000103261961353205633320000009579682443946277536_" gradientUnits="userSpaceOnUse" x1="1328.7502" y1="2237.4502" x2="1399.2756" y2="2237.4502">
					<stop  offset="0" style="stop-color:#2B3582"/>
					<stop  offset="1" style="stop-color:#150E42"/>
				</linearGradient>
				<path style="fill:url(#SVGID_00000103261961353205633320000009579682443946277536_);" d="M1347.134,2252.073v34.785h-18.384
					v-98.817h32.187c6.606,0,12.324,0.774,17.154,2.323c4.828,1.551,8.816,3.715,11.959,6.493c3.143,2.779,5.467,6.104,6.971,9.977
					c1.503,3.873,2.255,8.108,2.255,12.711c0,4.783-0.797,9.167-2.391,13.154c-1.595,3.986-3.988,7.415-7.175,10.286
					c-3.19,2.87-7.176,5.101-11.959,6.696c-4.784,1.595-10.388,2.392-16.812,2.392H1347.134z M1347.134,2237.723h13.803
					c3.371,0,6.31-0.421,8.816-1.264c2.505-0.843,4.579-2.051,6.219-3.622c1.641-1.573,2.871-3.486,3.691-5.742
					c0.82-2.256,1.23-4.772,1.23-7.55c0-2.643-0.411-5.034-1.23-7.177c-0.82-2.14-2.05-3.964-3.691-5.468
					c-1.639-1.501-3.714-2.652-6.219-3.45c-2.506-0.796-5.445-1.197-8.816-1.197h-13.803V2237.723z"/>
			</g>
		</g>
		<g>
			
				<linearGradient id="SVGID_00000023263396278759284630000005745994092039202185_" gradientUnits="userSpaceOnUse" x1="2519.5139" y1="1812.751" x2="2076.7288" y2="2773.3718">
				<stop  offset="0" style="stop-color:#53D8FF"/>
				<stop  offset="1" style="stop-color:#3840F7"/>
			</linearGradient>
			
				<circle style="fill:url(#SVGID_00000023263396278759284630000005745994092039202185_);" cx="2518.969" cy="1813.932" r="257.72"/>
			<g>
				
					<linearGradient id="SVGID_00000012440595518767617510000008153957335428346262_" gradientUnits="userSpaceOnUse" x1="2364.8735" y1="1841.5887" x2="2473.0083" y2="1841.5887">
					<stop  offset="0" style="stop-color:#2B3582"/>
					<stop  offset="1" style="stop-color:#150E42"/>
				</linearGradient>
				<path style="fill:url(#SVGID_00000012440595518767617510000008153957335428346262_);" d="M2459.646,1875.17
					c1.288,0,2.404,0.498,3.34,1.494l9.321,10.114c-5.16,6.388-11.504,11.281-19.034,14.681c-7.532,3.4-16.573,5.1-27.122,5.1
					c-9.438,0-17.921-1.614-25.453-4.837s-13.963-7.707-19.297-13.451c-5.334-5.744-9.421-12.604-12.263-20.571
					c-2.845-7.973-4.264-16.676-4.264-26.111c0-9.553,1.583-18.301,4.748-26.243c3.165-7.944,7.618-14.784,13.362-20.531
					c5.744-5.741,12.618-10.211,20.617-13.405c8.002-3.194,16.836-4.791,26.506-4.791c9.436,0,17.686,1.508,24.749,4.527
					c7.06,3.016,13.113,7.017,18.153,11.997l-7.91,10.99c-0.469,0.704-1.071,1.322-1.803,1.849c-0.733,0.527-1.746,0.79-3.033,0.79
					c-1.348,0-2.725-0.527-4.133-1.58c-1.405-1.059-3.194-2.198-5.363-3.428c-2.169-1.233-4.908-2.375-8.219-3.431
					c-3.311-1.056-7.518-1.583-12.615-1.583c-5.978,0-11.473,1.042-16.484,3.122c-5.011,2.08-9.321,5.054-12.924,8.923
					c-3.606,3.866-6.419,8.571-8.439,14.112c-2.023,5.538-3.034,11.765-3.034,18.682c0,7.149,1.01,13.508,3.034,19.077
					c2.02,5.569,4.759,10.257,8.219,14.066c3.457,3.809,7.53,6.725,12.22,8.749c4.688,2.021,9.727,3.034,15.122,3.034
					c3.223,0,6.139-0.177,8.749-0.53c2.607-0.352,5.011-0.907,7.209-1.668s4.276-1.746,6.242-2.948
					c1.963-1.202,3.912-2.679,5.847-4.439c0.584-0.529,1.199-0.953,1.846-1.273
					C2458.181,1875.333,2458.885,1875.17,2459.646,1875.17z"/>
				
					<linearGradient id="SVGID_00000048479392375418962810000004632631369769899418_" gradientUnits="userSpaceOnUse" x1="2485.3142" y1="1846.2035" x2="2571.1208" y2="1846.2035">
					<stop  offset="0" style="stop-color:#2B3582"/>
					<stop  offset="1" style="stop-color:#150E42"/>
				</linearGradient>
				<path style="fill:url(#SVGID_00000048479392375418962810000004632631369769899418_);" d="M2536.922,1802.027v36.042h34.199
					v16.089h-34.199v36.222h-17.583v-36.222h-34.024v-16.089h34.024v-36.042H2536.922z"/>
				
					<linearGradient id="SVGID_00000072279188853987554590000014061249541589996714_" gradientUnits="userSpaceOnUse" x1="2587.2959" y1="1846.2035" x2="2673.0996" y2="1846.2035">
					<stop  offset="0" style="stop-color:#2B3582"/>
					<stop  offset="1" style="stop-color:#150E42"/>
				</linearGradient>
				<path style="fill:url(#SVGID_00000072279188853987554590000014061249541589996714_);" d="M2638.901,1802.027v36.042h34.199
					v16.089h-34.199v36.222h-17.583v-36.222h-34.021v-16.089h34.021v-36.042H2638.901z"/>
			</g>
		</g>
		<g>
			
				<linearGradient id="SVGID_00000034078715651205333080000004879744523922156422_" gradientUnits="userSpaceOnUse" x1="2294.8315" y1="1041.3784" x2="1844.1729" y2="2345.917">
				<stop  offset="0" style="stop-color:#53D8FF"/>
				<stop  offset="1" style="stop-color:#3840F7"/>
			</linearGradient>
			
				<circle style="fill:url(#SVGID_00000034078715651205333080000004879744523922156422_);" cx="2207.002" cy="1295.622" r="249.674"/>
			<g>
				
					<linearGradient id="SVGID_00000085240936240796814270000009178836789706380223_" gradientUnits="userSpaceOnUse" x1="2033.2018" y1="1209.2766" x2="2079.834" y2="1209.2766">
					<stop  offset="0" style="stop-color:#2B3582"/>
					<stop  offset="1" style="stop-color:#150E42"/>
				</linearGradient>
				<path style="fill:url(#SVGID_00000085240936240796814270000009178836789706380223_);" d="M2079.834,1222.861
					c0,5.498-0.675,10.455-2.028,14.87c-1.351,4.416-3.366,8.178-6.048,11.286c-2.682,3.109-6.026,5.498-10.037,7.163
					c-4.011,1.668-8.675,2.501-13.99,2.501c-2.433,0-4.823-0.147-7.163-0.44c-2.345-0.293-4.801-0.755-7.366-1.386l0.946-10.813
					c0.088-0.99,0.46-1.791,1.113-2.398c0.654-0.609,1.61-0.913,2.873-0.913c0.766,0,1.769,0.158,3.008,0.473
					c1.239,0.315,2.805,0.473,4.697,0.473c2.57,0,4.844-0.372,6.824-1.115c1.985-0.744,3.639-1.925,4.968-3.549
					c1.329-1.621,2.332-3.727,3.01-6.319c0.675-2.592,1.012-5.733,1.012-9.429v-63.395h18.181V1222.861z"/>
				
					<linearGradient id="SVGID_00000049904953853617835180000017978528599588628153_" gradientUnits="userSpaceOnUse" x1="2086.5947" y1="1208.7355" x2="2181.9561" y2="1208.7355">
					<stop  offset="0" style="stop-color:#2B3582"/>
					<stop  offset="1" style="stop-color:#150E42"/>
				</linearGradient>
				<path style="fill:url(#SVGID_00000049904953853617835180000017978528599588628153_);" d="M2181.956,1257.6H2167.9
					c-1.577,0-2.871-0.394-3.887-1.181c-1.012-0.788-1.747-1.769-2.196-2.942l-7.3-19.937h-40.483l-7.298,19.937
					c-0.363,1.038-1.074,1.984-2.13,2.84c-1.061,0.856-2.354,1.283-3.885,1.283h-14.127l38.389-97.729h18.586L2181.956,1257.6z
					 M2118.698,1220.698h31.155l-11.893-32.508c-0.541-1.441-1.14-3.144-1.791-5.104c-0.654-1.958-1.296-4.088-1.927-6.387
					c-0.629,2.299-1.25,4.44-1.857,6.422c-0.609,1.982-1.206,3.716-1.791,5.203L2118.698,1220.698z"/>
				
					<linearGradient id="SVGID_00000025400506004952624120000006743983481071474613_" gradientUnits="userSpaceOnUse" x1="2171.0085" y1="1208.7355" x2="2266.3721" y2="1208.7355">
					<stop  offset="0" style="stop-color:#2B3582"/>
					<stop  offset="1" style="stop-color:#150E42"/>
				</linearGradient>
				<path style="fill:url(#SVGID_00000025400506004952624120000006743983481071474613_);" d="M2171.009,1159.871h14.666
					c1.58,0,2.862,0.383,3.854,1.148c0.99,0.768,1.734,1.758,2.231,2.974l22.977,59.61c0.766,1.938,1.498,4.068,2.196,6.387
					c0.7,2.321,1.364,4.765,1.996,7.333c1.036-5.181,2.321-9.755,3.852-13.719l22.911-59.61c0.405-1.036,1.126-1.982,2.163-2.838
					c1.036-0.856,2.321-1.285,3.852-1.285h14.666l-39.469,97.729h-16.423L2171.009,1159.871z"/>
				
					<linearGradient id="SVGID_00000087414627252943559280000007157404849824879527_" gradientUnits="userSpaceOnUse" x1="2255.6951" y1="1208.7355" x2="2351.0564" y2="1208.7355">
					<stop  offset="0" style="stop-color:#2B3582"/>
					<stop  offset="1" style="stop-color:#150E42"/>
				</linearGradient>
				<path style="fill:url(#SVGID_00000087414627252943559280000007157404849824879527_);" d="M2351.056,1257.6H2337
					c-1.577,0-2.871-0.394-3.887-1.181c-1.012-0.788-1.747-1.769-2.196-2.942l-7.3-19.937h-40.483l-7.298,19.937
					c-0.363,1.038-1.074,1.984-2.13,2.84c-1.06,0.856-2.354,1.283-3.885,1.283h-14.127l38.389-97.729h18.586L2351.056,1257.6z
					 M2287.798,1220.698h31.155l-11.893-32.508c-0.541-1.441-1.14-3.144-1.791-5.104c-0.653-1.958-1.296-4.088-1.927-6.387
					c-0.629,2.299-1.25,4.44-1.857,6.422c-0.609,1.982-1.206,3.716-1.791,5.203L2287.798,1220.698z"/>
				
					<linearGradient id="SVGID_00000029725302501175076160000001299084396884430764_" gradientUnits="userSpaceOnUse" x1="2033.0654" y1="1370.9419" x2="2099.0977" y2="1370.9419">
					<stop  offset="0" style="stop-color:#2B3582"/>
					<stop  offset="1" style="stop-color:#150E42"/>
				</linearGradient>
				<path style="fill:url(#SVGID_00000029725302501175076160000001299084396884430764_);" d="M2092.878,1339.851
					c-0.495,0.992-1.072,1.69-1.723,2.097c-0.656,0.405-1.43,0.607-2.332,0.607s-1.916-0.348-3.041-1.047
					c-1.126-0.697-2.457-1.474-3.989-2.332c-1.533-0.856-3.324-1.633-5.372-2.332c-2.053-0.697-4.473-1.047-7.267-1.047
					c-2.523,0-4.719,0.306-6.589,0.913c-1.87,0.607-3.448,1.452-4.73,2.535c-1.285,1.082-2.242,2.376-2.873,3.885
					c-0.631,1.511-0.946,3.166-0.946,4.968c0,2.299,0.642,4.215,1.925,5.747c1.285,1.531,2.986,2.838,5.104,3.918
					c2.116,1.082,4.528,2.051,7.231,2.906c2.704,0.858,5.463,1.769,8.279,2.737c2.816,0.97,5.575,2.097,8.281,3.379
					c2.702,1.285,5.113,2.906,7.229,4.866c2.119,1.96,3.819,4.36,5.104,7.199s1.927,6.286,1.927,10.34
					c0,4.416-0.757,8.549-2.266,12.402c-1.509,3.852-3.718,7.21-6.622,10.07c-2.908,2.862-6.455,5.115-10.644,6.758
					c-4.193,1.646-8.989,2.469-14.397,2.469c-3.109,0-6.173-0.304-9.192-0.913c-3.019-0.607-5.914-1.476-8.686-2.603
					c-2.77-1.124-5.361-2.477-7.771-4.055c-2.411-1.577-4.563-3.333-6.455-5.271l5.271-8.719c0.495-0.629,1.091-1.16,1.791-1.589
					c0.7-0.427,1.474-0.642,2.332-0.642c1.126,0,2.341,0.464,3.65,1.386c1.305,0.924,2.849,1.949,4.629,3.076
					c1.78,1.126,3.875,2.152,6.286,3.076c2.411,0.924,5.307,1.384,8.686,1.384c5.179,0,9.192-1.225,12.03-3.683
					c2.838-2.455,4.257-5.982,4.257-10.578c0-2.568-0.64-4.662-1.925-6.286c-1.285-1.621-2.988-2.983-5.104-4.088
					c-2.116-1.104-4.528-2.037-7.229-2.805c-2.706-0.766-5.454-1.599-8.246-2.501c-2.794-0.9-5.544-1.982-8.246-3.243
					c-2.704-1.261-5.115-2.906-7.234-4.935c-2.116-2.026-3.817-4.561-5.102-7.603c-1.283-3.041-1.925-6.792-1.925-11.253
					c0-3.557,0.708-7.027,2.13-10.406c1.417-3.379,3.489-6.376,6.217-8.989c2.724-2.614,6.07-4.708,10.036-6.286
					c3.965-1.577,8.492-2.365,13.583-2.365c5.769,0,11.084,0.902,15.95,2.702c4.866,1.804,9.011,4.325,12.435,7.57
					L2092.878,1339.851z"/>
				
					<linearGradient id="SVGID_00000005267199355479622920000009154420364798047381_" gradientUnits="userSpaceOnUse" x1="2107.4094" y1="1385.1003" x2="2165.8694" y2="1385.1003">
					<stop  offset="0" style="stop-color:#2B3582"/>
					<stop  offset="1" style="stop-color:#150E42"/>
				</linearGradient>
				<path style="fill:url(#SVGID_00000005267199355479622920000009154420364798047381_);" d="M2160.8,1365.129
					c-0.495,0.631-0.979,1.126-1.452,1.487c-0.473,0.361-1.162,0.539-2.062,0.539c-0.856,0-1.69-0.257-2.501-0.777
					c-0.81-0.517-1.778-1.104-2.904-1.758c-1.126-0.651-2.469-1.239-4.022-1.756c-1.555-0.519-3.48-0.779-5.78-0.779
					c-2.928,0-5.498,0.53-7.705,1.589c-2.207,1.06-4.046,2.581-5.507,4.563c-1.465,1.982-2.559,4.382-3.278,7.198
					c-0.722,2.816-1.083,6.004-1.083,9.561c0,3.696,0.394,6.985,1.184,9.87c0.788,2.882,1.925,5.304,3.412,7.264
					c1.487,1.96,3.289,3.448,5.406,4.46c2.119,1.014,4.506,1.522,7.166,1.522c2.658,0,4.809-0.328,6.453-0.981
					c1.646-0.651,3.032-1.373,4.158-2.163c1.126-0.788,2.105-1.509,2.939-2.163c0.834-0.651,1.769-0.979,2.805-0.979
					c1.353,0,2.365,0.517,3.042,1.553l4.796,6.083c-1.848,2.163-3.85,3.978-6.015,5.441c-2.16,1.465-4.405,2.636-6.723,3.513
					c-2.321,0.88-4.721,1.498-7.199,1.859s-4.932,0.541-7.366,0.541c-4.281,0-8.314-0.801-12.098-2.4
					c-3.786-1.597-7.086-3.929-9.902-6.994c-2.816-3.065-5.047-6.814-6.69-11.253c-1.643-4.438-2.466-9.495-2.466-15.174
					c0-5.091,0.73-9.81,2.196-14.157c1.465-4.349,3.617-8.112,6.455-11.288c2.838-3.175,6.354-5.665,10.543-7.467
					c4.191-1.802,9.011-2.704,14.463-2.704c5.183,0,9.722,0.834,13.618,2.502c3.899,1.668,7.401,4.055,10.512,7.163L2160.8,1365.129
					z"/>
				
					<linearGradient id="SVGID_00000088833419605553722780000013827026748428339072_" gradientUnits="userSpaceOnUse" x1="2176.5483" y1="1384.4919" x2="2220.7473" y2="1384.4919">
					<stop  offset="0" style="stop-color:#2B3582"/>
					<stop  offset="1" style="stop-color:#150E42"/>
				</linearGradient>
				<path style="fill:url(#SVGID_00000088833419605553722780000013827026748428339072_);" d="M2176.548,1419.805v-69.341h9.799
					c1.712,0,2.906,0.315,3.582,0.946c0.678,0.631,1.126,1.712,1.351,3.243l1.017,8.38c2.477-4.279,5.381-7.658,8.717-10.138
					c3.335-2.477,7.073-3.716,11.22-3.716c3.423,0,6.261,0.788,8.514,2.365l-2.16,12.503c-0.136,0.812-0.431,1.386-0.88,1.725
					c-0.451,0.337-1.06,0.506-1.826,0.506c-0.673,0-1.597-0.158-2.77-0.473c-1.173-0.315-2.726-0.473-4.662-0.473
					c-3.472,0-6.446,0.957-8.923,2.873c-2.477,1.914-4.572,4.719-6.283,8.413v43.187H2176.548z"/>
				
					<linearGradient id="SVGID_00000096023957474851750410000009018212496764454284_" gradientUnits="userSpaceOnUse" x1="2230.6829" y1="1369.6901" x2="2252.0408" y2="1369.6901">
					<stop  offset="0" style="stop-color:#2B3582"/>
					<stop  offset="1" style="stop-color:#150E42"/>
				</linearGradient>
				<path style="fill:url(#SVGID_00000096023957474851750410000009018212496764454284_);" d="M2252.041,1330.254
					c0,1.443-0.295,2.794-0.88,4.055c-0.585,1.263-1.364,2.367-2.332,3.313c-0.968,0.946-2.108,1.701-3.412,2.264
					c-1.309,0.563-2.704,0.845-4.191,0.845c-1.443,0-2.803-0.282-4.088-0.845s-2.4-1.318-3.346-2.264
					c-0.946-0.946-1.701-2.05-2.264-3.313c-0.563-1.261-0.845-2.612-0.845-4.055c0-1.487,0.281-2.882,0.845-4.189
					s1.318-2.433,2.264-3.379c0.946-0.946,2.061-1.701,3.346-2.266c1.285-0.561,2.645-0.845,4.088-0.845
					c1.487,0,2.882,0.284,4.191,0.845c1.305,0.565,2.444,1.32,3.412,2.266c0.968,0.946,1.747,2.073,2.332,3.379
					S2252.041,1328.767,2252.041,1330.254z M2249.539,1350.464v69.341h-16.694v-69.341H2249.539z"/>
				
					<linearGradient id="SVGID_00000147189168289740702440000002151840446563977090_" gradientUnits="userSpaceOnUse" x1="2268.396" y1="1395.8124" x2="2332.1953" y2="1395.8124">
					<stop  offset="0" style="stop-color:#2B3582"/>
					<stop  offset="1" style="stop-color:#150E42"/>
				</linearGradient>
				<path style="fill:url(#SVGID_00000147189168289740702440000002151840446563977090_);" d="M2268.396,1442.446v-91.982h10.204
					c1.083,0,2.006,0.247,2.772,0.742c0.766,0.497,1.261,1.263,1.487,2.299l1.351,6.42c2.794-3.199,6.004-5.788,9.632-7.771
					c3.626-1.982,7.872-2.974,12.738-2.974c3.784,0,7.243,0.788,10.375,2.365c3.131,1.577,5.834,3.863,8.109,6.86
					s4.033,6.69,5.271,11.084c1.241,4.394,1.859,9.429,1.859,15.105c0,5.181-0.698,9.982-2.094,14.395
					c-1.397,4.418-3.39,8.246-5.982,11.491c-2.592,3.243-5.722,5.777-9.394,7.603c-3.674,1.824-7.784,2.737-12.333,2.737
					c-3.92,0-7.242-0.598-9.97-1.791c-2.726-1.192-5.17-2.849-7.331-4.968v28.385H2268.396z M2300.836,1362.357
					c-3.469,0-6.431,0.733-8.886,2.198c-2.458,1.463-4.743,3.525-6.86,6.184v31.089c1.892,2.343,3.951,3.976,6.182,4.9
					c2.231,0.924,4.629,1.386,7.198,1.386c2.521,0,4.809-0.473,6.86-1.419c2.05-0.948,3.784-2.389,5.205-4.328
					c1.417-1.936,2.51-4.38,3.278-7.333c0.766-2.95,1.148-6.431,1.148-10.442c0-4.055-0.328-7.491-0.981-10.307
					c-0.654-2.814-1.589-5.102-2.803-6.86c-1.219-1.755-2.693-3.04-4.429-3.852
					C2305.014,1362.764,2303.042,1362.357,2300.836,1362.357z"/>
				
					<linearGradient id="SVGID_00000028301534109250999370000010228383824338372769_" gradientUnits="userSpaceOnUse" x1="2338.5469" y1="1375.0637" x2="2385.7908" y2="1375.0637">
					<stop  offset="0" style="stop-color:#2B3582"/>
					<stop  offset="1" style="stop-color:#150E42"/>
				</linearGradient>
				<path style="fill:url(#SVGID_00000028301534109250999370000010228383824338372769_);" d="M2367.61,1420.887
					c-5.993,0-10.611-1.701-13.856-5.104c-3.243-3.401-4.866-8.098-4.866-14.091v-38.725h-7.027c-0.902,0-1.681-0.293-2.332-0.88
					c-0.654-0.585-0.981-1.463-0.981-2.636v-6.622l11.154-1.826l3.513-18.923c0.178-0.902,0.596-1.599,1.25-2.097
					c0.654-0.495,1.476-0.744,2.466-0.744h8.651v21.831h18.25v11.896h-18.25v37.577c0,2.163,0.541,3.852,1.624,5.069
					c1.083,1.217,2.521,1.824,4.325,1.824c1.036,0,1.903-0.123,2.601-0.37c0.699-0.249,1.307-0.508,1.826-0.779
					c0.519-0.271,0.981-0.528,1.386-0.776c0.405-0.246,0.81-0.372,1.217-0.372c0.495,0,0.9,0.125,1.217,0.372
					c0.314,0.249,0.651,0.62,1.012,1.115l5.003,8.109c-2.433,2.029-5.227,3.56-8.382,4.596
					C2374.256,1420.368,2370.989,1420.887,2367.61,1420.887z"/>
			</g>
		</g>
		<g>
			
				<linearGradient id="SVGID_00000111891778939168466080000000834175597669079725_" gradientUnits="userSpaceOnUse" x1="2671.1335" y1="1517.3163" x2="1788.0343" y2="2763.2751" gradientTransform="matrix(-0.9849 -0.1731 -0.1731 0.9849 5026.7104 669.1506)">
				<stop  offset="0" style="stop-color:#2B3582"/>
				<stop  offset="1" style="stop-color:#150E42"/>
			</linearGradient>
			<path style="fill:url(#SVGID_00000111891778939168466080000000834175597669079725_);" d="M2463.289,2078.762
				c4.258-4.142,4.062-11.039-0.424-14.933l-530.019-472.904c-1.486-1.326-3.624-1.63-5.422-0.77l0,0
				c-3.153,1.509-3.784,5.728-1.21,8.094l523.136,480.712C2453.314,2082.602,2459.431,2082.515,2463.289,2078.762L2463.289,2078.762
				z"/>
			
				<linearGradient id="SVGID_00000008136690418576276470000018023992117264882585_" gradientUnits="userSpaceOnUse" x1="1760.5603" y1="3207.1824" x2="1861.2899" y2="3207.1824" gradientTransform="matrix(-1 0 0 1 4634.4971 0)">
				<stop  offset="0" style="stop-color:#CB236D"/>
				<stop  offset="1" style="stop-color:#4C246D"/>
			</linearGradient>
			<path style="fill:url(#SVGID_00000008136690418576276470000018023992117264882585_);" d="M2773.208,3243.049
				c-0.012-0.75,0.038-1.51,0.231-2.275c11.345-44.979,67.654-72.994,67.654-72.994l22.313,1.749
				c12.829,39.644,11.181,63.957,9.12,74.787c-0.057,0.303-0.15,0.591-0.23,0.886
				C2853.891,3246.846,2816.005,3247.92,2773.208,3243.049z"/>
			
				<linearGradient id="SVGID_00000098209046674203327080000001614523918034516109_" gradientUnits="userSpaceOnUse" x1="2012.7323" y1="3088.3503" x2="1646.2742" y2="3376.0942" gradientTransform="matrix(-1 0 0 1 4634.4971 0)">
				<stop  offset="0" style="stop-color:#53D8FF"/>
				<stop  offset="1" style="stop-color:#3840F7"/>
			</linearGradient>
			<path style="fill:url(#SVGID_00000098209046674203327080000001614523918034516109_);" d="M2872.297,3245.202
				c-0.994,3.616-3.663,6.431-7.081,7.15c-26.184,5.507-67.799,1.075-85.272-1.21c-3.855-0.504-6.673-4.069-6.736-8.094
				C2816.005,3247.92,2853.891,3246.846,2872.297,3245.202z"/>
			
				<linearGradient id="SVGID_00000080189543232062540950000005213801978605144462_" gradientUnits="userSpaceOnUse" x1="1625.4883" y1="2516.0608" x2="1759.8231" y2="2516.0608" gradientTransform="matrix(-1 0 0 1 4634.4971 0)">
				<stop  offset="0" style="stop-color:#F9B776"/>
				<stop  offset="1" style="stop-color:#F47960"/>
			</linearGradient>
			<path style="fill:url(#SVGID_00000080189543232062540950000005213801978605144462_);" d="M2960.657,2446.827
				c13.781,14.709,34.072,27.42,48.351,35.346c-21.324,26.357-50.178,52.753-88.376,78.589l-10.932,24.532l-35.027-41.981
				C2874.674,2543.313,2937.525,2512.037,2960.657,2446.827z"/>
			
				<linearGradient id="SVGID_00000026161128533522905810000007245244576445351552_" gradientUnits="userSpaceOnUse" x1="1788.5724" y1="3092.5056" x2="1769.3312" y2="3260.4302" gradientTransform="matrix(-1 0 0 1 4634.4971 0)">
				<stop  offset="0" style="stop-color:#F9B776"/>
				<stop  offset="1" style="stop-color:#F47960"/>
			</linearGradient>
			<path style="fill:url(#SVGID_00000026161128533522905810000007245244576445351552_);" d="M2872.379,3136.294l-9.45,45.494
				c-0.692,3.334-3.254,5.83-6.356,6.121c-3.798,0.356-9.204,0.565-14.641-0.233c-4.875-0.716-8.271-5.671-7.406-10.987
				l6.569-40.395H2872.379z"/>
			
				<linearGradient id="SVGID_00000166655610475558973940000017114581504178717587_" gradientUnits="userSpaceOnUse" x1="2077.8311" y1="3171.2571" x2="1711.3728" y2="3459.001" gradientTransform="matrix(-1 0 0 1 4634.4971 0)">
				<stop  offset="0" style="stop-color:#53D8FF"/>
				<stop  offset="1" style="stop-color:#3840F7"/>
			</linearGradient>
			<path style="fill:url(#SVGID_00000166655610475558973940000017114581504178717587_);" d="M2676.573,3244.745
				c24.643-0.69,37.39-3.593,43.979-6.286c0.015,2.45,0.001,4.944-0.078,7.527c-0.085,2.76-2.129,4.964-4.643,4.948l-135.308-0.874
				c-4.318-0.028-6.841-5.036-4.97-8.995C2593.293,3242.531,2638.478,3245.811,2676.573,3244.745z"/>
			
				<linearGradient id="SVGID_00000172425677208997364700000011378353265721291916_" gradientUnits="userSpaceOnUse" x1="1913.9448" y1="3209.8618" x2="2058.9441" y2="3209.8618" gradientTransform="matrix(-1 0 0 1 4634.4971 0)">
				<stop  offset="0" style="stop-color:#CB236D"/>
				<stop  offset="1" style="stop-color:#4C246D"/>
			</linearGradient>
			<path style="fill:url(#SVGID_00000172425677208997364700000011378353265721291916_);" d="M2575.553,3241.065
				c0.163-0.344,0.303-0.696,0.536-1.02c11.949-16.697,42.384-49.945,102.523-64.365l28.851-0.91c0,0,12.846,22.329,13.089,63.69
				c-6.589,2.693-19.336,5.596-43.979,6.286C2638.478,3245.811,2593.293,3242.531,2575.553,3241.065z"/>
			
				<linearGradient id="SVGID_00000142861404923798706150000003957299495646334131_" gradientUnits="userSpaceOnUse" x1="1945.3055" y1="3110.4648" x2="1926.0642" y2="3278.3894" gradientTransform="matrix(-1 0 0 1 4634.4971 0)">
				<stop  offset="0" style="stop-color:#F9B776"/>
				<stop  offset="1" style="stop-color:#F47960"/>
			</linearGradient>
			<path style="fill:url(#SVGID_00000142861404923798706150000003957299495646334131_);" d="M2712.813,3131.046
				c-0.321,2.15-4.275,34.835-5.806,47.508c-0.364,3.012-2.544,5.342-5.295,5.671c-4.912,0.587-12.862,1.121-19.817-0.305
				c-3.752-0.769-6.468-4.373-6.468-8.564v-51.306L2712.813,3131.046z"/>
			
				<linearGradient id="SVGID_00000075864606538826743850000012427913524005232280_" gradientUnits="userSpaceOnUse" x1="2173.9236" y1="2342.5815" x2="1558.5211" y2="3297.5173" gradientTransform="matrix(-1 0 0 1 4634.4971 0)">
				<stop  offset="0" style="stop-color:#7C27DD"/>
				<stop  offset="1" style="stop-color:#2B41D9"/>
			</linearGradient>
			<path style="fill:url(#SVGID_00000075864606538826743850000012427913524005232280_);" d="M2735.959,2534.567
				c0,0-69.585,264.45-68.328,597.235c0.023,6.067,4.283,11.304,10.22,12.554c8.749,1.843,21.61,4.031,32.257,3.732
				c5.684-0.159,10.435-4.374,11.391-9.979c9.757-57.218,65.75-379.559,97.653-431.89c0,0,20.99,287.091,14.281,436.036
				c-0.167,3.703,2.545,6.916,6.227,7.342c5.586,0.646,14.523,1.136,25.897-0.072c4.317-0.459,7.801-3.722,8.417-8.02
				c6.95-48.426,46.952-336.672,45.251-544.314c-0.096-11.709-30.966-62.623-30.966-62.623H2735.959z"/>
			
				<linearGradient id="SVGID_00000136378706327097672070000012411496891471793838_" gradientUnits="userSpaceOnUse" x1="2092.6511" y1="2029.8268" x2="786.1605" y2="3399.6929" gradientTransform="matrix(-1 0 0 1 4634.4971 0)">
				<stop  offset="0" style="stop-color:#CB236D"/>
				<stop  offset="1" style="stop-color:#4C246D"/>
			</linearGradient>
			<path style="fill:url(#SVGID_00000136378706327097672070000012411496891471793838_);" d="M2629.246,2178.389
				c12.186-31.144,32.74-52.468,53.412-77.106c77.466,14.046,204.438,26.579,257.388,33.25c16.53,2.082,31.65,10.232,42.544,22.839
				c43.202,49.996,138.003,186.874,26.419,324.801c-14.279-7.926-34.57-20.637-48.351-35.346
				c12.345-34.8,13.356-79.271-12.516-133.804c-0.884,4.321-1.977,8.601-3.305,12.813
				c-35.659,112.968-37.561,206.976-37.481,228.642c0.01,2.943-1.756,5.592-4.487,6.686c-46.931,18.807-137.27,7.613-167.595,3.094
				c-5.561-0.829-9.302-6.005-8.532-11.575c14.884-107.826-61.5-285.206-81.674-329.634c-2.952-6.499-8.152-11.719-14.656-14.661
				c-3.263-1.478-6.46-2.984-9.621-4.504C2623.196,2195.284,2625.965,2186.772,2629.246,2178.389z"/>
			
				<linearGradient id="SVGID_00000107587901666245191670000008041199699229146005_" gradientUnits="userSpaceOnUse" x1="1831.3925" y1="2004.4774" x2="1752.4592" y2="2345.5818" gradientTransform="matrix(-1 0 0 1 4634.4971 0)">
				<stop  offset="0" style="stop-color:#F9B776"/>
				<stop  offset="1" style="stop-color:#F47960"/>
			</linearGradient>
			<path style="fill:url(#SVGID_00000107587901666245191670000008041199699229146005_);" d="M2858.93,2030.797l5.525,96.4
				c0.163,2.842-1.691,5.407-4.451,6.104c-12.234,3.087-46.048,9.227-75.477-7.52c-3.813-2.17-5.579-6.743-4.38-10.963
				l24.611-86.617L2858.93,2030.797z"/>
			<g>
				
					<linearGradient id="SVGID_00000016764094322756137150000001048550586516248510_" gradientUnits="userSpaceOnUse" x1="-134.9752" y1="769.6989" x2="-265.3144" y2="942.127" gradientTransform="matrix(-0.6854 -0.7281 -0.7281 0.6854 3283.4978 1318.7853)">
					<stop  offset="0" style="stop-color:#F9B776"/>
					<stop  offset="1" style="stop-color:#F47960"/>
				</linearGradient>
				<path style="fill:url(#SVGID_00000016764094322756137150000001048550586516248510_);" d="M2798.61,1925.472
					c-1.251,1.178-52.804,102.416-52.804,102.416l58.431,28.207l63.117-88.693
					C2867.354,1967.402,2819.556,1905.755,2798.61,1925.472z"/>
				
					<linearGradient id="SVGID_00000063615095634273962690000006393979757377690003_" gradientUnits="userSpaceOnUse" x1="-234.5173" y1="811.1078" x2="-78.8253" y2="811.1078" gradientTransform="matrix(-0.6854 -0.7281 -0.7281 0.6854 3283.4978 1318.7853)">
					<stop  offset="0" style="stop-color:#2B3582"/>
					<stop  offset="1" style="stop-color:#150E42"/>
				</linearGradient>
				<path style="fill:url(#SVGID_00000063615095634273962690000006393979757377690003_);" d="M2841.501,1969.858
					c1.043,2.697,0.787,5.706-0.701,8.186l-29.143,48.579c-0.442,0.737-0.968,1.403-1.598,1.99
					c-3.469,3.228-15.339,12.621-24.515-0.167c-7.82-10.898-15.158-20.807-23.021-24.893c-4.592-2.387-10.242-0.48-12.573,4.139
					c-4.801,9.516-14.101,28.915-19.944,47.31c-1.465,4.611,0.915,9.561,5.398,11.377c11.832,4.793,35.216,13.462,55.966,16.326
					c3.409,0.471,6.783-0.967,8.812-3.746c8.927-12.23,34.09-46.408,42.677-54.964c7.979-7.948,22.703-4.951,29.339-3.044
					c2.518,0.723,5.2,0.375,7.445-0.977c6.732-4.055,18.479-14.153,7.733-31.248c-2.672-4.251-1.309-9.913,2.885-12.671
					c7.516-4.944,15.672-14.225,7.902-29.253c-7.866-15.214-21.913-16.58-31.48-15.411c-4.233,0.517-8.531-1.703-10.155-5.646
					c-0.722-1.754-2.15-3.249-4.809-3.788c-5.014-1.017-8.305-5.603-7.321-10.624c1.687-8.609,0.417-19.793-13.33-27.352
					c-25.211-13.861-47.295,8.725-52.91,27.791c-5.615,19.067,22.573,32.541,40.304,34.789
					C2831.486,1948.213,2838.627,1962.428,2841.501,1969.858z"/>
				
					<linearGradient id="SVGID_00000141450621130525776240000002736965430693617330_" gradientUnits="userSpaceOnUse" x1="-325.8712" y1="906.2495" x2="-221.3281" y2="798.9911" gradientTransform="matrix(-0.6854 -0.7281 -0.7281 0.6854 3283.4978 1318.7853)">
					<stop  offset="0" style="stop-color:#F9B776"/>
					<stop  offset="1" style="stop-color:#F47960"/>
				</linearGradient>
				<path style="fill:url(#SVGID_00000141450621130525776240000002736965430693617330_);" d="M2831.914,2041.835
					c0,0,11.211-32.802,25.561-31.598c14.35,1.204,25.644,15.5,7.86,31.57C2843.213,2061.798,2831.914,2041.835,2831.914,2041.835z"
					/>
			</g>
			
				<linearGradient id="SVGID_00000049937238561667277120000009350618447520643729_" gradientUnits="userSpaceOnUse" x1="3048.6768" y1="2057.8879" x2="2856.9668" y2="2451.0562">
				<stop  offset="0" style="stop-color:#CB236D"/>
				<stop  offset="1" style="stop-color:#4C246D"/>
			</linearGradient>
			<path style="fill:url(#SVGID_00000049937238561667277120000009350618447520643729_);" d="M2952.875,2304.573
				c18.915-51.765,12.053-114.272,11.981-114.897l-5.212,0.596c0.07,0.614,6.785,61.922-11.699,112.501L2952.875,2304.573z"/>
			
				<linearGradient id="SVGID_00000054981009830439292090000010261075532252944023_" gradientUnits="userSpaceOnUse" x1="1828.7904" y1="2598.9946" x2="1777.1893" y2="2690.8269" gradientTransform="matrix(-1 0 0 1 4634.4971 0)">
				<stop  offset="0" style="stop-color:#2B3582"/>
				<stop  offset="1" style="stop-color:#150E42"/>
			</linearGradient>
			<path style="fill:url(#SVGID_00000054981009830439292090000010261075532252944023_);" d="M2821.71,2699.479
				c1.165,0,2.231-0.783,2.536-1.966c5.771-22.256,48.981-46.714,49.417-46.959c1.263-0.708,1.714-2.308,1.004-3.572
				c-0.71-1.263-2.301-1.715-3.572-1.004c-1.858,1.042-45.599,25.802-51.928,50.218c-0.363,1.403,0.479,2.836,1.881,3.198
				C2821.269,2699.451,2821.492,2699.479,2821.71,2699.479z"/>
			<g>
				
					<linearGradient id="SVGID_00000046299367683045688950000007367127741577461935_" gradientUnits="userSpaceOnUse" x1="2154.5889" y1="2081.2249" x2="836.9334" y2="3462.7974" gradientTransform="matrix(-1 0 0 1 4634.4971 0)">
					<stop  offset="0" style="stop-color:#CB236D"/>
					<stop  offset="1" style="stop-color:#4C246D"/>
				</linearGradient>
				<path style="fill:url(#SVGID_00000046299367683045688950000007367127741577461935_);" d="M2452.039,2131.193
					c73.657,26.92,230.618-29.91,230.618-29.91l10.801,128.242c-125.693,39.74-207.484,28.169-260.672-5.182
					C2429.479,2186.437,2440.872,2153.445,2452.039,2131.193z"/>
				
					<linearGradient id="SVGID_00000021824782524858970730000004052953893080636816_" gradientUnits="userSpaceOnUse" x1="2306.4197" y1="1882.6957" x2="2226.9299" y2="2142.4712" gradientTransform="matrix(-1 0 0 1 4634.4971 0)">
					<stop  offset="0" style="stop-color:#F9B776"/>
					<stop  offset="1" style="stop-color:#F47960"/>
				</linearGradient>
				<path style="fill:url(#SVGID_00000021824782524858970730000004052953893080636816_);" d="M2334.766,1998.84l30.825-6.105
					c0,0,8.406,98.08,77.063,134.337c2.942,1.554,6.086,2.915,9.385,4.121c-11.167,22.251-22.561,55.243-19.253,93.149
					C2324.705,2156.571,2334.766,1998.84,2334.766,1998.84z"/>
			</g>
			
				<linearGradient id="SVGID_00000045598984032434448710000011769906699910336136_" gradientUnits="userSpaceOnUse" x1="2337.3701" y1="1892.1665" x2="2257.8801" y2="2151.9426" gradientTransform="matrix(-1 0 0 1 4634.4971 0)">
				<stop  offset="0" style="stop-color:#F9B776"/>
				<stop  offset="1" style="stop-color:#F47960"/>
			</linearGradient>
			<path style="fill:url(#SVGID_00000045598984032434448710000011769906699910336136_);" d="M2364.027,2001.285l1.564-8.549
				c0,0,6.429-20.882-10.579-41.439c-24.584-29.714-42.577-18.788-42.577-18.788s1.277,6.357,1.19,11.991
				c-0.07,4.548-5.521,6.85-8.87,3.772l-40.124-36.87c0,0-11.234,58.555,74.812,98.804L2364.027,2001.285z"/>
		</g>
		<g>
			
				<linearGradient id="SVGID_00000052820224373763599740000000036294076003806105_" gradientUnits="userSpaceOnUse" x1="20323.5996" y1="2635.8342" x2="19964.3301" y2="2840.9004" gradientTransform="matrix(1 0 0 1 -19064.6211 0)">
				<stop  offset="0" style="stop-color:#C4421B"/>
				<stop  offset="1" style="stop-color:#5C0E16"/>
			</linearGradient>
			<path style="fill:url(#SVGID_00000052820224373763599740000000036294076003806105_);" d="M1204.357,2970.14
				c-0.424-0.163-228.305-399.237-259.098-436.793c-5.181-6.316-13.198-9.533-21.311-8.567l-63.605,7.58l-74.723,161.653
				l124.486-72.499c-12.318,85.192,147.601,211.797,202.447,257.995c5.566,4.688,6.023,13.085,0.996,18.348l-21.896,22.921
				c35.948,36.438,77.428,59.834,124.246,70.656L1204.357,2970.14z"/>
			
				<linearGradient id="SVGID_00000096769436114292658930000015421785609125266590_" gradientUnits="userSpaceOnUse" x1="-10154.7227" y1="-4235.0552" x2="-10182.3027" y2="-3812.1648" gradientTransform="matrix(-0.8974 -0.4412 -0.4412 0.8974 -9769.3428 2161.1482)">
				<stop  offset="0" style="stop-color:#CB236D"/>
				<stop  offset="1" style="stop-color:#4C246D"/>
			</linearGradient>
			<path style="fill:url(#SVGID_00000096769436114292658930000015421785609125266590_);" d="M1104.318,2908.407
				c0,0-13.975,4.514-18.706,16.96c-2.264,5.955,0.177,12.699,5.355,16.409c23.011,16.486,98.914,69.711,133.94,80.135
				c2.871,0.854,5.603-1.743,4.957-4.668c-1.798-8.137-7.612-24.386-26.344-48.173l1.681,3.399c2.127,4.302-2.558,8.781-6.737,6.422
				C1175.037,2965.667,1127.319,2936.72,1104.318,2908.407z"/>
			
				<linearGradient id="SVGID_00000064330742951792344830000015438791382538528914_" gradientUnits="userSpaceOnUse" x1="20288.8457" y1="2686.9758" x2="21518.0879" y2="1917.4506" gradientTransform="matrix(1 0 0 1 -19064.6211 0)">
				<stop  offset="0" style="stop-color:#C4421B"/>
				<stop  offset="1" style="stop-color:#5C0E16"/>
			</linearGradient>
			<path style="fill:url(#SVGID_00000064330742951792344830000015438791382538528914_);" d="M1115.595,3068.086
				c-0.382-0.245-34.572-82.619-34.954-82.864c-31.348-190.859-107.831-354.316-130.386-397.327
				c-3.795-7.234-10.995-12.006-19.136-12.702l-63.823-5.45L761.404,2712.93l136.582-45.805
				c-29.304,80.936,101.684,237.286,146.046,293.626c4.502,5.718,3.25,14.034-2.738,18.17l-26.082,18.016
				c27.829,42.958,63.717,74.266,107.375,94.338L1115.595,3068.086z"/>
			
				<linearGradient id="SVGID_00000042699754106249655780000011171375820308742274_" gradientUnits="userSpaceOnUse" x1="-8482.417" y1="-6907.7954" x2="-8509.9951" y2="-6484.9331" gradientTransform="matrix(-0.7895 -0.6137 -0.6137 0.7895 -9786.9316 3191.1018)">
				<stop  offset="0" style="stop-color:#CB236D"/>
				<stop  offset="1" style="stop-color:#4C246D"/>
			</linearGradient>
			<path style="fill:url(#SVGID_00000042699754106249655780000011171375820308742274_);" d="M1030.12,2987.385
				c0,0-14.599,1.592-21.752,12.824c-3.422,5.374-2.397,12.472,1.923,17.154c19.198,20.801,82.759,88.285,114.951,105.583
				c2.639,1.418,5.84-0.573,5.799-3.569c-0.113-8.332-2.519-25.422-16.049-52.508l0.958,3.669c1.212,4.643-4.282,8.082-7.897,4.926
				C1087.788,3057.771,1046.915,3019.767,1030.12,2987.385z"/>
			<g>
				
					<linearGradient id="SVGID_00000115477936277460645070000015455944172493497992_" gradientUnits="userSpaceOnUse" x1="1033.6039" y1="2006.514" x2="545.6722" y2="2989.1533">
					<stop  offset="0" style="stop-color:#CB236D"/>
					<stop  offset="1" style="stop-color:#4C246D"/>
				</linearGradient>
				<path style="fill:url(#SVGID_00000115477936277460645070000015455944172493497992_);" d="M568.547,2539.589
					c0,0-57.736,85.875-62.474,125.048c-4.737,39.172,15.965,52.719,76.396,57.715c179.831,14.866,268.481-39.03,268.481-39.03
					c12.302-78.436,21.055-98.39,123.796-141.037c0,0-129.95,10.317-156.103,0.168
					C792.49,2532.304,568.547,2539.589,568.547,2539.589z"/>
			</g>
			<g>
				
					<linearGradient id="SVGID_00000025404874276502567880000004393042926520308668_" gradientUnits="userSpaceOnUse" x1="-13274.6641" y1="-762.0645" x2="-13186.3193" y2="-540.452" gradientTransform="matrix(-0.9446 -0.3283 -0.3283 0.9446 -11929.085 -1699.1722)">
					<stop  offset="0" style="stop-color:#2B3582"/>
					<stop  offset="1" style="stop-color:#150E42"/>
				</linearGradient>
				<path style="fill:url(#SVGID_00000025404874276502567880000004393042926520308668_);" d="M798.781,2058.46
					c0,0-40.213-47.578-82.964,10.797c-7.743,10.573-37.483,1.85-48.385,23.98c-5.629,11.426-17.788,17.917-30.314,15.606
					c-31.196-5.754-82.188-6.239-107.364,42.648c-19.217,37.315-4.38,59.153,14.83,71.603c14.109,9.145,19.145,27.71,10.613,42.197
					c-8.183,13.896-9.722,32.713,11.408,55.36c47.351,50.749,141.084-32.206,141.084-32.206l74.423-175.863L798.781,2058.46z"/>
				
					<linearGradient id="SVGID_00000072991130997942558830000014983663631571828629_" gradientUnits="userSpaceOnUse" x1="110.9278" y1="2964.8403" x2="937.7714" y2="2154.1028">
					<stop  offset="0" style="stop-color:#A737D5"/>
					<stop  offset="1" style="stop-color:#EF497A"/>
				</linearGradient>
				<path style="fill:url(#SVGID_00000072991130997942558830000014983663631571828629_);" d="M724.69,2528.22
					c0,0,67.234-64.021,100.33-106.425c17.89-22.921,23.508-53.096,15.235-80.971c-15.11-50.906-41.963-103.631-44.412-111.837
					c-3.754-12.578-79.141-12.055-79.141-12.055s-148.348,96.279-206.634,259.368l65.459,20.379c0,0,38.734-64.982,77.005-106.297
					c0,0-66.223,87.482-68.555,123.295L724.69,2528.22z"/>
				
					<linearGradient id="SVGID_00000124149292056615325040000017304248945588242589_" gradientUnits="userSpaceOnUse" x1="-11297.8887" y1="2517.6318" x2="-10940.0029" y2="2517.6318" gradientTransform="matrix(-1 0 0 1 -10668.1592 0)">
					<stop  offset="0" style="stop-color:#C4421B"/>
					<stop  offset="1" style="stop-color:#5C0E16"/>
				</linearGradient>
				<path style="fill:url(#SVGID_00000124149292056615325040000017304248945588242589_);" d="M852.792,2553.484l-50.52-54.966
					l-58.345,15.71c0,0-68.021,10.539-106.952,0c-38.931-10.538-38.931-10.538-38.931-10.538l-87.976-27.389l-13.817,39.049
					c-3.509,9.915,0.017,20.921,8.589,27.013c7.611,5.408,16.533,11.352,22.22,13.84c11.586,5.068,266.887,1.603,266.887,1.603
					L852.792,2553.484z"/>
				
					<linearGradient id="SVGID_00000154403325459411706470000007838316109417851327_" gradientUnits="userSpaceOnUse" x1="-13096.9287" y1="1300.8333" x2="-13079.4346" y2="1172.8447" gradientTransform="matrix(-0.9974 -0.0717 -0.0717 0.9974 -12194.2148 110.0794)">
					<stop  offset="0" style="stop-color:#C4421B"/>
					<stop  offset="1" style="stop-color:#5C0E16"/>
				</linearGradient>
				<path style="fill:url(#SVGID_00000154403325459411706470000007838316109417851327_);" d="M768.513,2126.292l-50.668,94.219
					c3.346,20.567,55.147,21.147,63.148,8.866c0.815-1.25,1.28-2.695,1.59-4.155l30.31-62.954
					c1.301-6.139-15.528-26.823-21.067-29.772l-20.139-10.72C763.932,2117.648,796.291,2117.323,768.513,2126.292z"/>
				<g>
					
						<linearGradient id="SVGID_00000085954118016757348430000001072515086273640893_" gradientUnits="userSpaceOnUse" x1="-9689.7197" y1="-4482.2793" x2="-9524.9941" y2="-4775.4351" gradientTransform="matrix(-0.5458 -0.8379 -0.8379 0.5458 -8281.1396 -3435.0791)">
						<stop  offset="0" style="stop-color:#C4421B"/>
						<stop  offset="1" style="stop-color:#5C0E16"/>
					</linearGradient>
					<path style="fill:url(#SVGID_00000085954118016757348430000001072515086273640893_);" d="M871.057,2104.18
						c0,0,5.719,31.832-19.3,72.305c-25.02,40.473-49.934,38.646-62.592,24.212c-12.658-14.434-27.82-38.473-20.921-78.841
						C775.143,2081.489,862.414,2063.586,871.057,2104.18z"/>
					
						<linearGradient id="SVGID_00000091009126609651193950000008214336317700386233_" gradientUnits="userSpaceOnUse" x1="-11288.2441" y1="-5623.2349" x2="-11205.8828" y2="-5416.6313" gradientTransform="matrix(-0.5458 -0.8379 -0.8379 0.5458 -9915.0449 -4320.769)">
						<stop  offset="0" style="stop-color:#2B3582"/>
						<stop  offset="1" style="stop-color:#150E42"/>
					</linearGradient>
					<path style="fill:url(#SVGID_00000091009126609651193950000008214336317700386233_);" d="M798.532,2126.243
						c0,0,40.513-53.213,71.616-6.825l-0.525,16.025c0,0,40.447-1.891,36.061-39.17c-4.386-37.28-37.407-62.746-83.185-50.01
						c-45.778,12.737-72.527,27.242-77.696,59.025c-5.17,31.783,20.783,26.59,20.783,26.59s9.913-21.931,21.884-23.428
						c11.97-1.498,7.645,15.849,7.645,15.849L798.532,2126.243z"/>
					
						<linearGradient id="SVGID_00000003819804333141325120000006357850136965255348_" gradientUnits="userSpaceOnUse" x1="-9654.6553" y1="-4462.5796" x2="-9489.9307" y2="-4755.7334" gradientTransform="matrix(-0.5458 -0.8379 -0.8379 0.5458 -8281.1396 -3435.0791)">
						<stop  offset="0" style="stop-color:#C4421B"/>
						<stop  offset="1" style="stop-color:#5C0E16"/>
					</linearGradient>
					<path style="fill:url(#SVGID_00000003819804333141325120000006357850136965255348_);" d="M789.235,2124.824
						c0,0,20.986-27.232,1.883-32.884c-19.103-5.652-18.389,26.683-17.145,38.713L789.235,2124.824z"/>
				</g>
			</g>
			<g>
				
					<linearGradient id="SVGID_00000078015096184278449340000003400950149733194669_" gradientUnits="userSpaceOnUse" x1="-11385.7129" y1="2008.4873" x2="-11572.9346" y2="2059.7998" gradientTransform="matrix(-0.9988 -0.0494 -0.0494 0.9988 -10626.6895 -55.0328)">
					<stop  offset="0" style="stop-color:#2B3582"/>
					<stop  offset="1" style="stop-color:#150E42"/>
				</linearGradient>
				<path style="fill:url(#SVGID_00000078015096184278449340000003400950149733194669_);" d="M685.565,2575.239
					c0.177,0.008,0.355,0.013,0.534,0.012l232.37-0.254c5.744-0.004,10.396-4.666,10.39-10.411
					c-0.006-5.746-4.685-10.493-10.413-10.39l-232.37,0.253c-5.744,0.005-10.396,4.667-10.39,10.411
					C675.693,2570.427,680.07,2574.967,685.565,2575.239z"/>
				
					<linearGradient id="SVGID_00000041980746513133111020000004796958623915995577_" gradientUnits="userSpaceOnUse" x1="-249.1059" y1="2483.3625" x2="1434.7517" y2="2341.6919" gradientTransform="matrix(-1 0 0 1 882.9507 0)">
					<stop  offset="0" style="stop-color:#2B3582"/>
					<stop  offset="1" style="stop-color:#150E42"/>
				</linearGradient>
				<path style="fill:url(#SVGID_00000041980746513133111020000004796958623915995577_);" d="M1127.359,2364.262H933.84
					c-14.276,0-27.27,8.238-33.359,21.15l-89.464,189.702h240.492c9.2,0,17.466-5.621,20.847-14.177l69.375-175.542
					C1145.74,2375.253,1138.265,2364.262,1127.359,2364.262z"/>
				
					<linearGradient id="SVGID_00000120545379482935506270000008229449060488934575_" gradientUnits="userSpaceOnUse" x1="1515.2875" y1="1544.2119" x2="897.8382" y2="2660.9912">
					<stop  offset="0" style="stop-color:#53D8FF"/>
					<stop  offset="1" style="stop-color:#3840F7"/>
				</linearGradient>
				<path style="fill:url(#SVGID_00000120545379482935506270000008229449060488934575_);" d="M991.023,2461.528
					c-4.193,13.029-1.096,25.682,6.92,28.262c8.015,2.58,17.912-5.891,22.106-18.92c4.194-13.029,1.096-25.682-6.92-28.262
					C1005.114,2440.028,995.216,2448.499,991.023,2461.528z"/>
			</g>
		</g>
		<g>
			<g>
				
					<linearGradient id="SVGID_00000084494323590673735160000002593304260242266514_" gradientUnits="userSpaceOnUse" x1="737.8649" y1="719.1326" x2="876.7871" y2="719.1326">
					<stop  offset="0" style="stop-color:#53D8FF"/>
					<stop  offset="1" style="stop-color:#3840F7"/>
				</linearGradient>
				<path style="fill:url(#SVGID_00000084494323590673735160000002593304260242266514_);" d="M876.664,756.046
					c0.045-1.294,0.085-2.481,0.118-3.51c0.092-2.904-1.085-5.684-3.247-7.625c-12.669-11.376-60.113-50.392-127.164-62.546
					c-3.613-0.655-6.747,0.977-8.507,3.557c5.589,0.677,13.079,2.104,23.172,4.755C794.18,699.382,842.369,722.548,876.664,756.046z
					"/>
				
					<linearGradient id="SVGID_00000008830020049460640750000012166276983789132698_" gradientUnits="userSpaceOnUse" x1="736.3596" y1="744.071" x2="876.6641" y2="744.071">
					<stop  offset="0" style="stop-color:#2B3582"/>
					<stop  offset="1" style="stop-color:#150E42"/>
				</linearGradient>
				<path style="fill:url(#SVGID_00000008830020049460640750000012166276983789132698_);" d="M761.037,690.675
					c-10.092-2.651-17.583-4.077-23.172-4.755c-1.77,2.595-2.148,6.148-0.216,9.298c1.087,1.772,2.425,3.69,4.069,5.748
					c10.493,13.139,95.3,100.151,95.3,100.151s26.924,3.285,35.154-1.485c2.667-1.546,3.991-29.493,4.492-43.588
					C842.369,722.548,794.18,699.382,761.037,690.675z"/>
			</g>
			
				<linearGradient id="SVGID_00000080911234959116469920000001017714777147644544_" gradientUnits="userSpaceOnUse" x1="840.1182" y1="746.9462" x2="876.7551" y2="997.6205">
				<stop  offset="0" style="stop-color:#F9B776"/>
				<stop  offset="1" style="stop-color:#F47960"/>
			</linearGradient>
			<path style="fill:url(#SVGID_00000080911234959116469920000001017714777147644544_);" d="M873.438,846.422v-51.826
				c0-4.389-2.787-8.332-6.966-9.673c-6.432-2.064-16.321-3.996-25.313-0.627c-5.276,1.977-8.822,6.982-9.271,12.598l-3.862,48.403
				L873.438,846.422z"/>
			<g>
				
					<linearGradient id="SVGID_00000020361735754392663210000015892402521173340544_" gradientUnits="userSpaceOnUse" x1="510.5006" y1="834.9366" x2="675.9777" y2="834.9366">
					<stop  offset="0" style="stop-color:#2B3582"/>
					<stop  offset="1" style="stop-color:#150E42"/>
				</linearGradient>
				<path style="fill:url(#SVGID_00000020361735754392663210000015892402521173340544_);" d="M667.9,800.532
					c-0.62-2.041-1.817-3.748-3.352-5.024c-10.876,2.148-33.533,8.141-79.948,24.53c-53.81,19-69.561,35.59-74.099,44.463
					c23.057,6.751,75.457,17.072,150.626,2.382l14.851-6.963C675.978,859.92,674.937,823.704,667.9,800.532z"/>
				
					<linearGradient id="SVGID_00000070112886980890816560000002729328113177780390_" gradientUnits="userSpaceOnUse" x1="503.4588" y1="828.7792" x2="664.5484" y2="828.7792">
					<stop  offset="0" style="stop-color:#53D8FF"/>
					<stop  offset="1" style="stop-color:#3840F7"/>
				</linearGradient>
				<path style="fill:url(#SVGID_00000070112886980890816560000002729328113177780390_);" d="M584.6,820.038
					c46.416-16.389,69.072-22.382,79.948-24.53c-2.393-1.99-5.622-2.907-8.878-2.229c-26.723,5.561-107.472,24.569-149.673,58.781
					c-4.213,3.416-2.98,10.156,2.204,11.752c0.729,0.224,1.5,0.455,2.299,0.689C515.039,855.628,530.79,839.038,584.6,820.038z"/>
			</g>
			
				<linearGradient id="SVGID_00000119816735568453926570000006082154447865091984_" gradientUnits="userSpaceOnUse" x1="655.5284" y1="773.9237" x2="692.1657" y2="1024.601">
				<stop  offset="0" style="stop-color:#F9B776"/>
				<stop  offset="1" style="stop-color:#F47960"/>
			</linearGradient>
			<path style="fill:url(#SVGID_00000119816735568453926570000006082154447865091984_);" d="M703.79,891.22l-31.628-37.901
				c-3.079-3.69-8.088-5.15-12.654-3.651c-5.062,1.662-11.789,5.093-18.297,12.169c-3.036,3.3-3.632,8.19-1.577,12.175
				l23.008,44.587L703.79,891.22z"/>
			
				<linearGradient id="SVGID_00000183952279634853632620000004253633052587489964_" gradientUnits="userSpaceOnUse" x1="918.4594" y1="627.2995" x2="816.2613" y2="1201.9254">
				<stop  offset="0" style="stop-color:#CB236D"/>
				<stop  offset="1" style="stop-color:#4C246D"/>
			</linearGradient>
			<path style="fill:url(#SVGID_00000183952279634853632620000004253633052587489964_);" d="M821.097,828.379
				c0,0,38.594-7.41,60.01,0c0,0,28.225,169.397,23.375,223.865l-83.386,16.948C821.097,1069.192,818.728,878.336,821.097,828.379z"
				/>
			
				<linearGradient id="SVGID_00000165926575668995123440000017321034909481498526_" gradientUnits="userSpaceOnUse" x1="883.0167" y1="922.9827" x2="1091.2701" y2="1329.8477">
				<stop  offset="0" style="stop-color:#CB236D"/>
				<stop  offset="1" style="stop-color:#4C246D"/>
			</linearGradient>
			<path style="fill:url(#SVGID_00000165926575668995123440000017321034909481498526_);" d="M1163.323,1125.182
				c0,0-272.679,15.309-383.35,7.673c-10.841-0.749-20.456-7.162-25.312-16.883c-23.721-47.486-94.856-189.981-101.097-203.58
				c0,0,28.893-24.139,50.226-27.473c0,0,100.994,112.354,105.218,169.676c0,0,233.878-67.266,256.978-66.628
				c23.099,0.637,93.937,32.245,93.937,32.245L1163.323,1125.182z"/>
			
				<linearGradient id="SVGID_00000006667427941307367790000003689089328656457642_" gradientUnits="userSpaceOnUse" x1="1521.9414" y1="865.0041" x2="1581.9331" y2="865.0041">
				<stop  offset="0" style="stop-color:#F9B776"/>
				<stop  offset="1" style="stop-color:#F47960"/>
			</linearGradient>
			<path style="fill:url(#SVGID_00000006667427941307367790000003689089328656457642_);" d="M1526.81,912.642
				c0,0-10.006-20.799-1.327-31.777c8.678-10.978,39.96-44.953,39.96-44.953l3.637-23.48l12.854,38.246l-27.588,57.698
				C1554.345,908.375,1538.194,925.845,1526.81,912.642z"/>
			
				<linearGradient id="SVGID_00000085939460946057750460000000334011177927483277_" gradientUnits="userSpaceOnUse" x1="1526.8097" y1="961.0793" x2="1596.8708" y2="961.0793">
				<stop  offset="0" style="stop-color:#F9B776"/>
				<stop  offset="1" style="stop-color:#F47960"/>
			</linearGradient>
			<path style="fill:url(#SVGID_00000085939460946057750460000000334011177927483277_);" d="M1596.871,1009.401
				c-10.105-35.506-24.01-69.302-42.526-101.026l-27.535,4.267l13.588,95.458C1550.791,1011.243,1579.145,1018.41,1596.871,1009.401
				z"/>
			
				<linearGradient id="SVGID_00000149343519592413848620000013970580048679549081_" gradientUnits="userSpaceOnUse" x1="1602.1918" y1="663.8861" x2="1239.6313" y2="1290.7419">
				<stop  offset="0" style="stop-color:#A737D5"/>
				<stop  offset="1" style="stop-color:#EF497A"/>
			</linearGradient>
			<path style="fill:url(#SVGID_00000149343519592413848620000013970580048679549081_);" d="M1614.703,1102.35
				c-3.522-32.072-9.34-63.111-17.833-92.949c-17.726,9.009-46.08,1.842-56.474-1.301l3.902,27.41l-10.438-36.913
				c-12.694-44.898-39.696-84.425-76.904-112.579l-25.915-19.608c-25.464-19.268-66.18-12.612-92.16,5.956
				c-57.681,41.226-143.301,110.343-172.533,134.117c-6.285,5.112-14.895,6.254-22.303,2.974l-4.876-2.16
				c-4.61-2.041-9.697,1.688-9.137,6.698l12.41,113.474l198.149-2.287c23.76,0,92.586-2.449,103.535-23.535l18.322-44.973
				c42.939,36.517,98.015,61.603,127.525,68.914C1603.574,1128.958,1616.321,1117.083,1614.703,1102.35z"/>
			
				<linearGradient id="SVGID_00000128460214222872116580000011124895784348221608_" gradientUnits="userSpaceOnUse" x1="1411.3151" y1="860.0054" x2="1508.6403" y2="860.0054">
				<stop  offset="0" style="stop-color:#F9B776"/>
				<stop  offset="1" style="stop-color:#F47960"/>
			</linearGradient>
			<path style="fill:url(#SVGID_00000128460214222872116580000011124895784348221608_);" d="M1475.535,805.538l-60.914,59.173
				c-4.061,3.945-4.442,10.384-0.803,14.721c18.789,22.387,34.913,34.127,48.319,35.01c5.687,0.375,11.072-2.627,14.125-7.44
				l32.378-51.053L1475.535,805.538z"/>
			
				<linearGradient id="SVGID_00000013914025338417493590000015891491508453808517_" gradientUnits="userSpaceOnUse" x1="1723.5032" y1="1054.3387" x2="1462.4629" y2="1271.2695">
				<stop  offset="0" style="stop-color:#F9B776"/>
				<stop  offset="1" style="stop-color:#F47960"/>
			</linearGradient>
			<polygon style="fill:url(#SVGID_00000013914025338417493590000015891491508453808517_);" points="1598.481,1097.115 
				1650.883,1076.722 1711.803,1125.182 1602.716,1125.588 			"/>
			<g>
				
					<linearGradient id="SVGID_00000104701556768297661710000012086865279048596671_" gradientUnits="userSpaceOnUse" x1="1535.0514" y1="853.9374" x2="1500.3214" y2="739.3898">
					<stop  offset="0" style="stop-color:#F9B776"/>
					<stop  offset="1" style="stop-color:#F47960"/>
				</linearGradient>
				<path style="fill:url(#SVGID_00000104701556768297661710000012086865279048596671_);" d="M1577.676,791.855
					c0,0-8.312,58.45-30.764,76.425c-22.453,17.975-66.198,4.44-80.974-39.623l29.44-75.341L1577.676,791.855z"/>
				
					<linearGradient id="SVGID_00000032609742546938928940000017877043274273219735_" gradientUnits="userSpaceOnUse" x1="1503.7113" y1="643.6088" x2="1536.0009" y2="827.7789">
					<stop  offset="0" style="stop-color:#2B3582"/>
					<stop  offset="1" style="stop-color:#150E42"/>
				</linearGradient>
				<path style="fill:url(#SVGID_00000032609742546938928940000017877043274273219735_);" d="M1492.062,802.069
					c1.708,0.55,3.496-0.544,3.762-2.319c0.81-5.395,2.833-16.074,6.93-23.347c0,0-2.142-7.668,19.38,3.916
					c21.523,11.584,53.849,28.601,72.882,18.468c18.556-9.88,37.352-59.601-11.688-50.389c-1.866,0.351-3.582-1.136-3.442-3.029
					c0.602-8.172-0.208-26.972-19.246-33.007c-17.816-5.647-27.569,2.396-31.588,7.25c-1.182,1.428-3.377,1.399-4.505-0.072
					c-5.337-6.968-19.831-21.798-41.167-12.395c-17.574,7.745-20.307,18.57-20.017,25.316c0.094,2.185-2.124,3.666-4.111,2.752
					c-5.382-2.48-14.04-3.767-22.333,6.623c-11.465,14.365,4.919,26.822,9.834,30.088c0.805,0.535,1.306,1.422,1.312,2.389
					c0.046,7.471,1.209,40.058,17.542,58.439c1.414,1.592,4.028,1.125,4.852-0.838l12.575-29.963
					c0.584-1.392,2.136-2.105,3.573-1.642L1492.062,802.069z"/>
				
					<linearGradient id="SVGID_00000059269517452839208320000010540591279597883048_" gradientUnits="userSpaceOnUse" x1="1499.078" y1="864.8435" x2="1464.3484" y2="750.2969">
					<stop  offset="0" style="stop-color:#F9B776"/>
					<stop  offset="1" style="stop-color:#F47960"/>
				</linearGradient>
				<path style="fill:url(#SVGID_00000059269517452839208320000010540591279597883048_);" d="M1492.327,808.152
					c0,0-7.679-31.278-19.344-21.122c-11.665,10.155,3.041,32.505,16.404,36.765L1492.327,808.152z"/>
			</g>
			
				<linearGradient id="SVGID_00000160879165727482694580000015791219658441684657_" gradientUnits="userSpaceOnUse" x1="1585.2324" y1="654.0775" x2="1222.6729" y2="1280.9318">
				<stop  offset="0" style="stop-color:#A737D5"/>
				<stop  offset="1" style="stop-color:#EF497A"/>
			</linearGradient>
			<path style="fill:url(#SVGID_00000160879165727482694580000015791219658441684657_);" d="M1404.6,940.088
				c0,0,2.349-72.36-27.377-73.814c-36.913-1.806-96.246,24.946-60.926,130.999c19.514,58.592,48.921,102.067,129.657,120.486
				c3.929-29.692,17.386-50.382,27.335-62.05C1440.396,1032.531,1412.529,996.414,1404.6,940.088z"/>
			
				<linearGradient id="SVGID_00000151523148318140996120000011060153403104438432_" gradientUnits="userSpaceOnUse" x1="1502.0958" y1="863.1691" x2="1945.9767" y2="398.9582">
				<stop  offset="0" style="stop-color:#CB236D"/>
				<stop  offset="1" style="stop-color:#4C246D"/>
			</linearGradient>
			<path style="fill:url(#SVGID_00000151523148318140996120000011060153403104438432_);" d="M1469.585,1055.916
				c-0.576,0-1.157-0.172-1.663-0.528c-37.878-26.689-58.908-63.201-66.186-114.894c-0.023-0.164-0.032-0.33-0.027-0.497
				c0.622-19.338-2.59-69.754-24.628-70.833c-10.655-0.511-21.833,1.489-31.475,5.664c-1.467,0.632-3.169-0.04-3.803-1.506
				c-0.634-1.466,0.04-3.169,1.506-3.805c10.438-4.519,22.533-6.674,34.056-6.132c31.576,1.545,30.291,70.972,30.135,76.545
				c7.07,49.874,27.334,85.066,63.754,110.73c1.306,0.921,1.619,2.726,0.698,4.031
				C1471.389,1055.489,1470.494,1055.916,1469.585,1055.916z"/>
			
				<linearGradient id="SVGID_00000047745444028938491580000001699265379329627570_" gradientUnits="userSpaceOnUse" x1="1518.0199" y1="878.3957" x2="1961.901" y2="414.1847">
				<stop  offset="0" style="stop-color:#CB236D"/>
				<stop  offset="1" style="stop-color:#4C246D"/>
			</linearGradient>
			<path style="fill:url(#SVGID_00000047745444028938491580000001699265379329627570_);" d="M1420.257,1113.38
				c-0.313,0-0.631-0.051-0.943-0.158c-66.976-23.114-90.412-68.949-105.76-115.033c-3.476-10.44-6.159-20.496-7.976-29.893
				c-0.304-1.568,0.722-3.085,2.29-3.387c1.571-0.305,3.086,0.723,3.389,2.291c1.769,9.149,4.389,18.959,7.785,29.159
				c14.88,44.68,37.556,89.1,102.159,111.395c1.511,0.523,2.313,2.167,1.791,3.678
				C1422.578,1112.628,1421.457,1113.38,1420.257,1113.38z"/>
			
				<linearGradient id="SVGID_00000044879489726859095420000009008508027300621493_" gradientUnits="userSpaceOnUse" x1="1667.6394" y1="987.1169" x2="1406.5996" y2="1204.0472">
				<stop  offset="0" style="stop-color:#F9B776"/>
				<stop  offset="1" style="stop-color:#F47960"/>
			</linearGradient>
			<path style="fill:url(#SVGID_00000044879489726859095420000009008508027300621493_);" d="M1613.313,1125.182l-0.123-28.067
				c0,0-78.668,1.741-139.9-41.406c-9.948,11.668-23.405,32.358-27.335,62.05C1486.807,1127.079,1540.789,1129.99,1613.313,1125.182
				z"/>
			<g>
				
					<linearGradient id="SVGID_00000103245820754095731670000006492277506245290909_" gradientUnits="userSpaceOnUse" x1="-7294.8374" y1="764.0795" x2="-7496.4355" y2="819.3322" gradientTransform="matrix(-0.9988 -0.0494 -0.0494 0.9988 -5778.3198 -55.0328)">
					<stop  offset="0" style="stop-color:#2B3582"/>
					<stop  offset="1" style="stop-color:#150E42"/>
				</linearGradient>
				<path style="fill:url(#SVGID_00000103245820754095731670000006492277506245290909_);" d="M1512.47,1134.976
					c0.191,0.009,0.383,0.015,0.575,0.013l250.214-0.273c6.185-0.005,11.194-5.025,11.188-11.21
					c-0.006-6.188-5.043-11.299-11.213-11.188l-250.213,0.273c-6.186,0.005-11.194,5.025-11.188,11.21
					C1501.839,1129.794,1506.552,1134.683,1512.47,1134.976z"/>
				
					<linearGradient id="SVGID_00000062160759224400637820000009465046434032485784_" gradientUnits="userSpaceOnUse" x1="-7562.6606" y1="938.2606" x2="-7705.7041" y2="1089.4485" gradientTransform="matrix(-1 0 0 1 -5819.7886 0)">
					<stop  offset="0" style="stop-color:#2B3582"/>
					<stop  offset="1" style="stop-color:#150E42"/>
				</linearGradient>
				<path style="fill:url(#SVGID_00000062160759224400637820000009465046434032485784_);" d="M1988.19,907.797h-208.38
					c-15.372,0-29.364,8.871-35.921,22.775l-96.334,204.27h258.96c9.907,0,18.807-6.053,22.448-15.266l74.703-189.022
					C2007.983,919.633,1999.933,907.797,1988.19,907.797z"/>
				
					<linearGradient id="SVGID_00000020398202082571281620000008277657539167069332_" gradientUnits="userSpaceOnUse" x1="-7649.1372" y1="975.905" x2="-7714.041" y2="1073.6428" gradientTransform="matrix(-1 0 0 1 -5819.7886 0)">
					<stop  offset="0" style="stop-color:#53D8FF"/>
					<stop  offset="1" style="stop-color:#3840F7"/>
				</linearGradient>
				<path style="fill:url(#SVGID_00000020398202082571281620000008277657539167069332_);" d="M1841.385,1012.533
					c-4.516,14.03-1.18,27.655,7.451,30.433c8.631,2.778,19.288-6.343,23.804-20.372c4.515-14.03,1.18-27.655-7.451-30.433
					C1856.557,989.383,1845.9,998.504,1841.385,1012.533z"/>
			</g>
		</g>
		<g>
			
				<linearGradient id="SVGID_00000029732941082284987150000007695268275029289372_" gradientUnits="userSpaceOnUse" x1="1540.2808" y1="1174.9506" x2="821.312" y2="1948.4608">
				<stop  offset="0" style="stop-color:#53D8FF"/>
				<stop  offset="1" style="stop-color:#3840F7"/>
			</linearGradient>
			
				<circle style="fill:url(#SVGID_00000029732941082284987150000007695268275029289372_);" cx="1476.634" cy="1243.426" r="199.96"/>
			<g>
				
					<linearGradient id="SVGID_00000127002653448618504210000004654878128520057279_" gradientUnits="userSpaceOnUse" x1="1299.924" y1="1237.033" x2="1342.5925" y2="1237.033">
					<stop  offset="0" style="stop-color:#2B3582"/>
					<stop  offset="1" style="stop-color:#150E42"/>
				</linearGradient>
				<path style="fill:url(#SVGID_00000127002653448618504210000004654878128520057279_);" d="M1299.924,1234.312l42.669-22.249
					v9.482c0,0.719-0.181,1.373-0.54,1.966s-0.952,1.103-1.776,1.534l-19.557,10.021c-0.826,0.431-1.696,0.8-2.613,1.105
					c-0.915,0.305-1.894,0.584-2.936,0.835c1.042,0.253,2.02,0.53,2.936,0.835c0.917,0.305,1.787,0.673,2.613,1.105l19.557,10.075
					c0.824,0.43,1.417,0.942,1.776,1.534c0.359,0.593,0.54,1.249,0.54,1.968v9.48l-42.669-22.303V1234.312z"/>
				
					<linearGradient id="SVGID_00000019644591403161015270000004499914405152884100_" gradientUnits="userSpaceOnUse" x1="1362.0389" y1="1233.2898" x2="1410.2002" y2="1233.2898">
					<stop  offset="0" style="stop-color:#2B3582"/>
					<stop  offset="1" style="stop-color:#150E42"/>
				</linearGradient>
				<path style="fill:url(#SVGID_00000019644591403161015270000004499914405152884100_);" d="M1362.039,1273.317v-80.055h13.307
					v30.76c2.153-2.045,4.524-3.697,7.111-4.956c2.585-1.256,5.621-1.884,9.103-1.884c3.018,0,5.692,0.51,8.028,1.535
					c2.334,1.022,4.282,2.46,5.845,4.309c1.563,1.852,2.746,4.06,3.555,6.627c0.808,2.569,1.212,5.396,1.212,8.486v35.179h-13.305
					v-35.179c0-3.377-0.782-5.99-2.345-7.839c-1.563-1.85-3.905-2.774-7.031-2.774c-2.299,0-4.453,0.519-6.464,1.561
					c-2.011,1.042-3.916,2.462-5.71,4.258v39.973H1362.039z"/>
				
					<linearGradient id="SVGID_00000163767986396502813930000010076245923484048274_" gradientUnits="userSpaceOnUse" x1="1419.5753" y1="1245.6532" x2="1470.0531" y2="1245.6532">
					<stop  offset="0" style="stop-color:#2B3582"/>
					<stop  offset="1" style="stop-color:#150E42"/>
				</linearGradient>
				<path style="fill:url(#SVGID_00000163767986396502813930000010076245923484048274_);" d="M1446.135,1217.182
					c3.483,0,6.689,0.556,9.615,1.67c2.927,1.112,5.45,2.739,7.569,4.875c2.118,2.136,3.772,4.759,4.956,7.865
					c1.185,3.106,1.778,6.653,1.778,10.64c0,1.007-0.046,1.841-0.135,2.504c-0.089,0.666-0.251,1.185-0.484,1.564
					c-0.233,0.375-0.549,0.645-0.943,0.807c-0.395,0.161-0.898,0.242-1.508,0.242h-34.155c0.395,5.675,1.92,9.842,4.579,12.5
					c2.657,2.659,6.176,3.986,10.559,3.986c2.155,0,4.014-0.251,5.577-0.756c1.561-0.502,2.927-1.057,4.093-1.669
					c1.168-0.61,2.19-1.166,3.071-1.67c0.88-0.502,1.733-0.754,2.56-0.754c0.538,0,1.005,0.109,1.399,0.323
					c0.395,0.216,0.737,0.523,1.024,0.915l3.879,4.851c-1.473,1.722-3.125,3.169-4.956,4.335c-1.833,1.168-3.746,2.101-5.738,2.802
					c-1.994,0.7-4.023,1.193-6.089,1.48c-2.064,0.288-4.067,0.431-6.006,0.431c-3.842,0-7.416-0.638-10.72-1.911
					c-3.306-1.275-6.178-3.16-8.619-5.657c-2.443-2.495-4.365-5.584-5.764-9.266c-1.401-3.679-2.101-7.946-2.101-12.795
					c0-3.77,0.61-7.316,1.831-10.64c1.22-3.322,2.971-6.213,5.252-8.674c2.281-2.46,5.065-4.407,8.351-5.845
					C1438.296,1217.9,1442.003,1217.182,1446.135,1217.182z M1446.403,1226.715c-3.879,0-6.915,1.098-9.105,3.286
					c-2.19,2.192-3.591,5.3-4.202,9.321h24.997c0-1.724-0.233-3.348-0.7-4.875c-0.467-1.526-1.186-2.864-2.155-4.014
					c-0.97-1.149-2.19-2.055-3.663-2.72S1448.378,1226.715,1446.403,1226.715z"/>
				
					<linearGradient id="SVGID_00000112597404868733408900000006582726133591492791_" gradientUnits="userSpaceOnUse" x1="1478.1323" y1="1245.5989" x2="1524.1943" y2="1245.5989">
					<stop  offset="0" style="stop-color:#2B3582"/>
					<stop  offset="1" style="stop-color:#150E42"/>
				</linearGradient>
				<path style="fill:url(#SVGID_00000112597404868733408900000006582726133591492791_);" d="M1524.194,1273.317h-5.98
					c-1.257,0-2.245-0.189-2.964-0.566c-0.719-0.377-1.257-1.14-1.615-2.288l-1.185-3.933c-1.401,1.257-2.774,2.362-4.121,3.313
					c-1.347,0.952-2.739,1.75-4.176,2.397c-1.438,0.647-2.964,1.131-4.579,1.454c-1.617,0.324-3.413,0.486-5.387,0.486
					c-2.336,0-4.491-0.316-6.466-0.945c-1.975-0.631-3.672-1.577-5.091-2.838c-1.419-1.261-2.523-2.83-3.313-4.703
					c-0.791-1.873-1.185-4.055-1.185-6.541c0-2.09,0.547-4.153,1.643-6.189c1.096-2.036,2.918-3.874,5.468-5.512
					c2.55-1.641,5.943-3,10.182-4.083c4.239-1.08,9.5-1.62,15.785-1.62v-3.258c0-3.727-0.78-6.487-2.343-8.277
					c-1.563-1.792-3.835-2.687-6.815-2.687c-2.155,0-3.951,0.251-5.387,0.754c-1.438,0.502-2.685,1.068-3.744,1.698
					c-1.061,0.628-2.04,1.193-2.937,1.696c-0.898,0.503-1.885,0.754-2.962,0.754c-0.898,0-1.67-0.233-2.317-0.7
					s-1.168-1.042-1.563-1.726l-2.424-4.254c6.357-5.819,14.024-8.728,23.003-8.728c3.232,0,6.115,0.531,8.647,1.591
					c2.531,1.059,4.677,2.531,6.438,4.416c1.759,1.887,3.097,4.14,4.012,6.762c0.917,2.622,1.375,5.494,1.375,8.619V1273.317z
					 M1498.335,1265.019c1.364,0,2.622-0.123,3.77-0.37c1.15-0.247,2.236-0.619,3.26-1.114c1.024-0.495,2.011-1.105,2.964-1.829
					c0.95-0.724,1.911-1.584,2.881-2.573v-9.252c-3.879,0-7.12,0.245-9.724,0.733c-2.604,0.488-4.696,1.112-6.276,1.873
					c-1.58,0.759-2.702,1.645-3.367,2.659c-0.665,1.012-0.996,2.115-0.996,3.307c0,2.353,0.691,4.035,2.075,5.047
					C1494.303,1264.514,1496.107,1265.019,1498.335,1265.019z"/>
				
					<linearGradient id="SVGID_00000103249250615909999660000001120147981012229776_" gradientUnits="userSpaceOnUse" x1="1533.4607" y1="1233.6931" x2="1584.3156" y2="1233.6931">
					<stop  offset="0" style="stop-color:#2B3582"/>
					<stop  offset="1" style="stop-color:#150E42"/>
				</linearGradient>
				<path style="fill:url(#SVGID_00000103249250615909999660000001120147981012229776_);" d="M1576.182,1273.317
					c-1.724,0-2.857-0.81-3.395-2.425l-1.077-5.333c-1.15,1.292-2.354,2.46-3.609,3.5c-1.257,1.044-2.613,1.94-4.068,2.694
					c-1.454,0.754-3.016,1.34-4.686,1.752c-1.671,0.412-3.476,0.619-5.415,0.619c-3.016,0-5.782-0.628-8.297-1.885
					c-2.513-1.257-4.677-3.078-6.49-5.468c-1.815-2.387-3.214-5.342-4.203-8.861c-0.987-3.521-1.48-7.543-1.48-12.069
					c0-4.093,0.556-7.9,1.67-11.42c1.114-3.52,2.711-6.573,4.794-9.158c2.083-2.589,4.579-4.609,7.488-6.061
					c2.909-1.456,6.177-2.183,9.805-2.183c3.088,0,5.729,0.495,7.92,1.482c2.19,0.989,4.147,2.308,5.873,3.96v-29.199h13.305v80.055
					H1576.182z M1558.458,1263.565c2.766,0,5.117-0.573,7.057-1.724c1.94-1.149,3.77-2.781,5.496-4.903v-24.779
					c-1.51-1.833-3.153-3.125-4.93-3.879c-1.778-0.754-3.692-1.133-5.738-1.133c-2.011,0-3.834,0.379-5.468,1.133
					c-1.634,0.754-3.016,1.894-4.149,3.42c-1.131,1.527-2.001,3.467-2.611,5.819c-0.612,2.354-0.917,5.128-0.917,8.323
					c0,3.234,0.261,5.973,0.782,8.216c0.519,2.247,1.266,4.077,2.236,5.494c0.97,1.42,2.153,2.445,3.555,3.072
					C1555.171,1263.251,1556.734,1263.565,1558.458,1263.565z"/>
				
					<linearGradient id="SVGID_00000024723996784670438040000013991342398232634042_" gradientUnits="userSpaceOnUse" x1="1603.925" y1="1237.033" x2="1646.592" y2="1237.033">
					<stop  offset="0" style="stop-color:#2B3582"/>
					<stop  offset="1" style="stop-color:#150E42"/>
				</linearGradient>
				<path style="fill:url(#SVGID_00000024723996784670438040000013991342398232634042_);" d="M1603.925,1262.003v-9.48
					c0-0.719,0.179-1.375,0.538-1.968c0.358-0.593,0.951-1.105,1.778-1.534l19.555-10.075c1.58-0.789,3.428-1.435,5.549-1.94
					c-1.042-0.251-2.02-0.53-2.936-0.835c-0.915-0.305-1.787-0.673-2.613-1.105l-19.555-10.021
					c-0.828-0.431-1.421-0.942-1.778-1.534c-0.359-0.593-0.538-1.247-0.538-1.966v-9.482l42.667,22.249v5.387L1603.925,1262.003z"/>
			</g>
		</g>
	</g>
</g>
</svg>
