<?xml version="1.0" encoding="utf-8"?>
<!-- Generator: Adobe Illustrator 27.5.0, SVG Export Plug-In . SVG Version: 6.00 Build 0)  -->
<svg version="1.1" xmlns="http://www.w3.org/2000/svg" xmlns:xlink="http://www.w3.org/1999/xlink" x="0px" y="0px"
	 viewBox="0 0 750 500" style="enable-background:new 0 0 750 500;" xml:space="preserve">
<g id="BACKGROUND">
	<rect style="fill:#FFFFFF;" width="750" height="500"/>
	<path style="fill:#E8F2FF;" d="M692.949,137.508c-1.12-6.204-3.661-12.173-7.575-17.13c-4.648-5.885-11.541-9.078-16.484-14.596
		c-5.536-6.18-5.337-15.08-6.68-22.8c-1.169-6.719-3.808-12.915-7.958-18.338c-18.191-23.769-52.208-25.955-79.254-20.595
		c-26.803,5.312-51.429,17.485-76.938,26.934c-2.312,0.479-4.656,0.893-7.051,1.211c-15.945,2.114-32.576,3.373-48.648,2.356
		c-17.054-1.078-32.124-6.885-47.059-14.882c-26.186-14.022-52.87-29.613-83.446-30.273c-26.327-0.568-46.448,10.931-62.671,30.815
		c-12.813,15.705-19.075,36.49-31.746,52.632c-17.817,22.697-43.355,20.395-69.462,24.223c-21.942,3.217-44.749,7.892-63.43,20.495
		c-11.453,7.726-22.894,18.83-25.25,33.045c-2.314,13.961,4.821,27.064,14.588,36.555c11.474,11.151,26.376,16.749,40.801,22.973
		c7.688,3.317,15.33,6.878,22.231,11.664c4.662,3.233,8.211,6.145,6.23,12.275c-1.27,3.931-3.137,7.69-5.184,11.27
		c-15.169,26.528-43.166,43.322-52.89,73.322c-4.049,12.491-4.799,26.734,1.683,38.56c6.398,11.673,18.595,18.154,31.427,20.029
		c14.173,2.072,28.348-0.431,42.104-3.833c17.714-4.381,35.184-10.061,53.263-12.825c18.062-2.762,36.251-1.864,52.978,6.014
		c14.493,6.826,27.425,16.639,42.495,22.295c33.674,12.638,68.753-2.237,99.724-15.391c17.214-7.311,34.551-14.004,53.132-16.852
		c18.624-2.855,37.59-2.543,56.372-2.188c18.531,0.35,37.134,0.863,55.599-1.104c15.004-1.598,30.401-4.893,42.03-15.153
		c22.349-19.717,22.058-53.27,17.073-80.134c-3.405-18.347-8.797-36.463-9.588-55.205c-0.177-4.191-0.252-8.518,1.396-12.453
		c1.71-4.085,5.223-6.783,8.763-9.241c6.702-4.655,13.627-8.979,20.284-13.702C676.64,191.28,698.428,167.848,692.949,137.508z"/>
	<g>
		<path id="XMLID_6_" style="fill:#FFAC6E;" d="M94.686,178.008l0.668,1.353c0.219,0.444,0.642,0.751,1.132,0.822l1.493,0.217
			c1.233,0.179,1.725,1.694,0.833,2.564l-1.08,1.053c-0.354,0.345-0.516,0.843-0.432,1.331l0.255,1.487
			c0.211,1.228-1.078,2.165-2.181,1.585l-1.335-0.702c-0.438-0.23-0.961-0.23-1.399,0l-1.336,0.702
			c-1.103,0.58-2.392-0.357-2.181-1.585l0.255-1.487c0.084-0.488-0.078-0.985-0.432-1.331l-1.08-1.053
			c-0.892-0.87-0.4-2.385,0.833-2.564l1.493-0.217c0.49-0.071,0.913-0.379,1.132-0.822l0.668-1.353
			C92.542,176.891,94.135,176.891,94.686,178.008z"/>
		<path id="XMLID_2_" style="fill:#FFAC6E;" d="M572.989,370.229l0.668,1.353c0.219,0.444,0.642,0.751,1.132,0.822l1.493,0.217
			c1.233,0.179,1.725,1.694,0.833,2.564l-1.081,1.053c-0.354,0.345-0.516,0.843-0.432,1.331l0.255,1.487
			c0.211,1.228-1.078,2.164-2.181,1.585l-1.336-0.702c-0.438-0.23-0.961-0.23-1.399,0l-1.336,0.702
			c-1.103,0.58-2.392-0.357-2.181-1.585l0.255-1.487c0.084-0.488-0.078-0.985-0.432-1.331l-1.08-1.053
			c-0.892-0.87-0.4-2.385,0.833-2.564l1.493-0.217c0.49-0.071,0.913-0.379,1.132-0.822l0.668-1.353
			C570.845,369.112,572.438,369.112,572.989,370.229z"/>
		<path id="XMLID_3_" style="fill:#FFAC6E;" d="M631.571,101.972l0.668,1.353c0.219,0.444,0.642,0.751,1.132,0.822l1.493,0.217
			c1.233,0.179,1.725,1.694,0.833,2.564l-1.081,1.053c-0.354,0.345-0.516,0.843-0.432,1.331l0.255,1.487
			c0.211,1.228-1.078,2.165-2.181,1.585l-1.336-0.702c-0.438-0.23-0.961-0.23-1.399,0l-1.336,0.702
			c-1.103,0.58-2.392-0.357-2.181-1.585l0.255-1.487c0.084-0.488-0.078-0.985-0.432-1.331l-1.08-1.053
			c-0.892-0.87-0.4-2.385,0.833-2.564l1.493-0.217c0.49-0.071,0.913-0.379,1.132-0.822l0.668-1.353
			C629.426,100.855,631.019,100.855,631.571,101.972z"/>
		<path style="fill:#FFAC6E;" d="M253.303,354.969c-2.359,0-3.571-1.402-4.546-2.529c-0.983-1.137-1.603-1.781-2.908-1.781
			c-1.305,0-1.924,0.644-2.908,1.781c-0.975,1.127-2.187,2.529-4.546,2.529c-2.359,0-3.572-1.402-4.546-2.529
			c-0.984-1.137-1.604-1.781-2.91-1.781c-1.305,0-1.925,0.644-2.907,1.781c-0.975,1.127-2.187,2.529-4.545,2.529
			c-2.36,0-3.574-1.402-4.548-2.529c-0.984-1.137-1.605-1.781-2.911-1.781c-1.307,0-1.929,0.644-2.914,1.781
			c-0.975,1.126-2.19,2.528-4.55,2.528c-2.36,0-3.575-1.402-4.55-2.528c-0.985-1.138-1.607-1.781-2.914-1.781
			c-0.597,0-1.082-0.484-1.082-1.082c0-0.598,0.485-1.082,1.082-1.082c2.36,0,3.574,1.402,4.55,2.528
			c0.984,1.138,1.606,1.781,2.914,1.781c1.307,0,1.929-0.644,2.914-1.781c0.975-1.127,2.19-2.528,4.55-2.528
			c2.36,0,3.573,1.402,4.547,2.529c0.985,1.137,1.605,1.781,2.912,1.781c1.305,0,1.924-0.644,2.907-1.781
			c0.975-1.127,2.187-2.529,4.545-2.529c2.359,0,3.572,1.402,4.546,2.529c0.984,1.137,1.604,1.781,2.91,1.781
			c1.305,0,1.924-0.644,2.908-1.781c0.975-1.127,2.188-2.529,4.546-2.529c2.359,0,3.571,1.402,4.546,2.529
			c0.983,1.137,1.603,1.781,2.908,1.781c0.597,0,1.082,0.484,1.082,1.082C254.385,354.485,253.9,354.969,253.303,354.969z"/>
		<path style="fill:#FFAC6E;" d="M127.821,235.919c-2.359,0-3.571-1.402-4.546-2.529c-0.983-1.137-1.603-1.781-2.908-1.781
			s-1.924,0.644-2.908,1.781c-0.975,1.127-2.187,2.529-4.546,2.529c-2.359,0-3.572-1.402-4.546-2.529
			c-0.984-1.137-1.604-1.781-2.91-1.781c-1.305,0-1.924,0.644-2.907,1.781c-0.975,1.127-2.187,2.529-4.545,2.529
			c-2.36,0-3.574-1.402-4.548-2.529c-0.984-1.137-1.605-1.781-2.911-1.781c-1.307,0-1.929,0.644-2.914,1.781
			c-0.975,1.126-2.19,2.528-4.55,2.528c-2.36,0-3.575-1.402-4.55-2.528c-0.985-1.138-1.607-1.781-2.914-1.781
			c-0.597,0-1.082-0.484-1.082-1.082c0-0.598,0.485-1.082,1.082-1.082c2.36,0,3.575,1.402,4.55,2.528
			c0.984,1.138,1.606,1.781,2.914,1.781c1.307,0,1.929-0.644,2.914-1.781c0.975-1.127,2.19-2.528,4.55-2.528
			c2.36,0,3.573,1.402,4.547,2.529c0.985,1.137,1.605,1.781,2.912,1.781c1.305,0,1.924-0.644,2.907-1.781
			c0.975-1.127,2.187-2.529,4.545-2.529c2.359,0,3.572,1.402,4.546,2.529c0.984,1.137,1.604,1.781,2.91,1.781
			c1.305,0,1.924-0.644,2.908-1.781c0.975-1.127,2.188-2.529,4.546-2.529c2.359,0,3.571,1.402,4.546,2.529
			c0.983,1.137,1.603,1.781,2.908,1.781c0.597,0,1.082,0.484,1.082,1.082C128.903,235.435,128.418,235.919,127.821,235.919z"/>
		<path style="fill:#FFAC6E;" d="M491.264,360.375c-2.359,0-3.571-1.402-4.546-2.529c-0.983-1.137-1.603-1.781-2.908-1.781
			s-1.924,0.644-2.908,1.781c-0.975,1.127-2.187,2.529-4.546,2.529s-3.572-1.402-4.546-2.529c-0.984-1.137-1.604-1.781-2.91-1.781
			c-1.305,0-1.924,0.644-2.907,1.781c-0.975,1.127-2.187,2.529-4.545,2.529c-2.36,0-3.573-1.402-4.547-2.529
			c-0.984-1.137-1.605-1.781-2.911-1.781c-1.307,0-1.929,0.644-2.914,1.781c-0.975,1.127-2.19,2.528-4.55,2.528
			c-2.36,0-3.574-1.402-4.55-2.528c-0.985-1.138-1.607-1.781-2.914-1.781c-0.597,0-1.082-0.484-1.082-1.082
			c0-0.598,0.485-1.082,1.082-1.082c2.36,0,3.574,1.402,4.55,2.528c0.984,1.138,1.607,1.781,2.914,1.781
			c1.307,0,1.929-0.644,2.914-1.781c0.975-1.127,2.19-2.528,4.55-2.528c2.36,0,3.573,1.402,4.547,2.529
			c0.985,1.137,1.605,1.781,2.912,1.781c1.305,0,1.925-0.644,2.907-1.781c0.975-1.127,2.187-2.529,4.545-2.529
			c2.359,0,3.572,1.402,4.546,2.529c0.984,1.137,1.604,1.781,2.91,1.781c1.305,0,1.924-0.644,2.908-1.781
			c0.975-1.127,2.188-2.529,4.546-2.529s3.571,1.402,4.546,2.529c0.983,1.137,1.603,1.781,2.908,1.781
			c0.597,0,1.082,0.484,1.082,1.082C492.346,359.891,491.861,360.375,491.264,360.375z"/>
		<path style="fill:#FFAC6E;" d="M640.369,202.577c-1.7,0-2.573-1.011-3.276-1.822c-0.709-0.82-1.155-1.283-2.096-1.283
			c-0.94,0-1.387,0.464-2.096,1.283c-0.703,0.812-1.576,1.822-3.276,1.822c-1.7,0-2.574-1.011-3.276-1.822
			c-0.71-0.82-1.156-1.283-2.097-1.283c-0.94,0-1.387,0.464-2.095,1.283c-0.703,0.812-1.576,1.822-3.275,1.822
			c-1.701,0-2.575-1.01-3.277-1.822c-0.709-0.82-1.157-1.283-2.098-1.283c-0.942,0-1.39,0.464-2.1,1.284
			c-0.703,0.812-1.578,1.822-3.279,1.822c-1.701,0-2.576-1.01-3.279-1.822c-0.71-0.82-1.158-1.284-2.1-1.284
			c-0.431,0-0.78-0.349-0.78-0.78c0-0.431,0.349-0.78,0.78-0.78c1.701,0,2.576,1.01,3.279,1.822c0.709,0.82,1.158,1.284,2.1,1.284
			c0.942,0,1.39-0.464,2.1-1.284c0.703-0.812,1.578-1.822,3.279-1.822c1.701,0,2.575,1.01,3.277,1.823
			c0.71,0.819,1.157,1.283,2.098,1.283c0.94,0,1.387-0.464,2.095-1.283c0.703-0.812,1.576-1.823,3.275-1.823
			c1.7,0,2.574,1.011,3.276,1.823c0.709,0.819,1.156,1.283,2.097,1.283c0.94,0,1.387-0.464,2.096-1.283
			c0.703-0.812,1.576-1.823,3.276-1.823s2.573,1.011,3.276,1.823c0.709,0.819,1.155,1.283,2.096,1.283c0.43,0,0.78,0.349,0.78,0.78
			C641.148,202.228,640.799,202.577,640.369,202.577z"/>
		<path style="fill:#FFAC6E;" d="M253.801,391.829c-3.563,0-6.461-2.985-6.461-6.655c0-3.669,2.898-6.654,6.461-6.654
			c3.563,0,6.461,2.985,6.461,6.654C260.262,388.844,257.363,391.829,253.801,391.829z M253.801,381.704
			c-1.807,0-3.277,1.557-3.277,3.47c0,1.914,1.47,3.471,3.277,3.471c1.807,0,3.277-1.557,3.277-3.471
			C257.078,383.261,255.608,381.704,253.801,381.704z"/>
		<path style="fill:#FFAC6E;" d="M62.157,174.712c-3.563,0-6.461-2.985-6.461-6.655c0-3.669,2.898-6.654,6.461-6.654
			c3.563,0,6.461,2.985,6.461,6.654C68.618,171.726,65.72,174.712,62.157,174.712z M62.157,164.586c-1.807,0-3.277,1.557-3.277,3.47
			c0,1.914,1.47,3.471,3.277,3.471c1.807,0,3.277-1.557,3.277-3.471C65.434,166.143,63.964,164.586,62.157,164.586z"/>
		<path style="fill:#FFAC6E;" d="M666.152,166.076c-3.563,0-6.461-2.985-6.461-6.655c0-3.669,2.898-6.654,6.461-6.654
			c3.563,0,6.461,2.985,6.461,6.654C672.613,163.09,669.714,166.076,666.152,166.076z M666.152,155.95
			c-1.807,0-3.277,1.557-3.277,3.471c0,1.914,1.47,3.471,3.277,3.471s3.277-1.557,3.277-3.471
			C669.429,157.507,667.959,155.95,666.152,155.95z"/>
		<path style="fill:#FFAC6E;" d="M507.149,383.412c-3.563,0-6.461-2.985-6.461-6.655c0-3.669,2.898-6.654,6.461-6.654
			c3.563,0,6.461,2.985,6.461,6.654C513.61,380.427,510.712,383.412,507.149,383.412z M507.149,373.287
			c-1.807,0-3.277,1.557-3.277,3.47c0,1.914,1.47,3.471,3.277,3.471c1.807,0,3.277-1.557,3.277-3.471
			C510.426,374.844,508.956,373.287,507.149,373.287z"/>
		<path style="fill:#FFAC6E;" d="M547.102,361.61c-3.563,0-6.461-2.985-6.461-6.655c0-3.669,2.898-6.655,6.461-6.655
			c3.563,0,6.461,2.985,6.461,6.655C553.563,358.625,550.665,361.61,547.102,361.61z M547.102,351.485
			c-1.807,0-3.277,1.557-3.277,3.471c0,1.914,1.47,3.471,3.277,3.471s3.277-1.557,3.277-3.471
			C550.379,353.042,548.909,351.485,547.102,351.485z"/>
		<path style="fill:#FFAC6E;" d="M276.746,357.761c0,1.653-1.34,2.993-2.993,2.993c-1.653,0-2.993-1.34-2.993-2.993
			c0-1.653,1.34-2.993,2.993-2.993C275.406,354.768,276.746,356.108,276.746,357.761z"/>
		<path style="fill:#FFAC6E;" d="M104.009,146.109c0,1.653-1.34,2.993-2.993,2.993c-1.653,0-2.993-1.34-2.993-2.993
			c0-1.653,1.34-2.993,2.993-2.993C102.669,143.116,104.009,144.456,104.009,146.109z"/>
		<path style="fill:#FFAC6E;" d="M302.019,361.751c0,1.653-1.34,2.993-2.993,2.993c-1.653,0-2.993-1.34-2.993-2.993
			c0-1.653,1.34-2.993,2.993-2.993C300.679,358.758,302.019,360.098,302.019,361.751z"/>
		<path style="fill:#FFAC6E;" d="M294.038,386.359c0,1.653-1.34,2.993-2.993,2.993c-1.653,0-2.993-1.34-2.993-2.993
			c0-1.653,1.34-2.993,2.993-2.993C292.698,383.366,294.038,384.706,294.038,386.359z"/>
		<path style="fill:#FFAC6E;" d="M539.405,377.568c0,1.653-1.34,2.993-2.993,2.993c-1.653,0-2.993-1.34-2.993-2.993
			c0-1.653,1.34-2.993,2.993-2.993C538.065,374.575,539.405,375.915,539.405,377.568z"/>
		<path style="fill:#FFAC6E;" d="M476.271,397.001c0,1.653-1.34,2.993-2.993,2.993c-1.653,0-2.993-1.34-2.993-2.993
			c0-1.653,1.34-2.993,2.993-2.993C474.931,394.008,476.271,395.348,476.271,397.001z"/>
		<path style="fill:#FFAC6E;" d="M666.152,218.094c0,1.653-1.34,2.993-2.993,2.993c-1.653,0-2.993-1.34-2.993-2.993
			c0-1.653,1.34-2.993,2.993-2.993C664.812,215.101,666.152,216.441,666.152,218.094z"/>
		<path style="fill:#FFAC6E;" d="M653.182,142.607c0,1.653-1.34,2.993-2.993,2.993c-1.653,0-2.993-1.34-2.993-2.993
			c0-1.653,1.34-2.993,2.993-2.993C651.843,139.614,653.182,140.954,653.182,142.607z"/>
		<path style="fill:#FFAC6E;" d="M641.544,244.697c0,1.653-1.34,2.993-2.993,2.993c-1.653,0-2.993-1.34-2.993-2.993
			c0-1.653,1.34-2.993,2.993-2.993C640.204,241.704,641.544,243.044,641.544,244.697z"/>
	</g>
</g>
<g id="OBJECTS">
	<g>
		<g>
			<rect x="328.478" y="302.632" style="fill:#5F437A;" width="96.063" height="109.015"/>
			<path style="fill:#735194;" d="M458.096,419.202H294.922c-3.106,0-5.623-2.518-5.623-5.623v-0.818
				c0-3.106,2.518-5.623,5.623-5.623h163.175c3.106,0,5.623,2.518,5.623,5.623v0.818
				C463.72,416.685,461.202,419.202,458.096,419.202z"/>
			<path style="fill:#5F437A;" d="M594.803,325.298H158.214c-8.498,0-15.387-6.889-15.387-15.387V68.686
				c0-8.498,6.889-15.387,15.387-15.387h436.591c8.497,0,15.385,6.888,15.385,15.385v241.227
				C610.191,318.409,603.302,325.298,594.803,325.298z"/>
			<path style="fill:#3A2C48;" d="M590.352,272.7H162.666c-3.818,0-6.912-3.095-6.912-6.912V74.947c0-3.818,3.095-6.912,6.912-6.912
				h427.685c3.818,0,6.912,3.095,6.912,6.912v190.841C597.264,269.606,594.169,272.7,590.352,272.7z"/>
			<g>
				<path style="fill:#735194;" d="M142.827,284.855v36.132c0,8.497,6.888,15.385,15.385,15.385h436.593
					c8.497,0,15.385-6.888,15.385-15.385v-36.132H142.827z"/>
				<circle style="fill:#5F437A;" cx="376.509" cy="311.621" r="10.254"/>
			</g>
		</g>
		<g>
			<g>
				<rect x="224.75" y="234.458" style="fill:#5A88C4;" width="53.872" height="33.254"/>
				<g>
					<path style="fill:#FFFFFF;" d="M241.882,243.299c0.281-0.165,0.706-0.322,1.276-0.471c0.57-0.149,1.145-0.223,1.723-0.223
						c0.826,0,1.558,0.12,2.193,0.359c0.637,0.24,1.045,0.616,1.228,1.128c0.297,0.859,0.619,1.859,0.967,2.999
						c0.347,1.14,0.693,2.317,1.041,3.532c0.347,1.214,0.686,2.413,1.016,3.594c0.331,1.182,0.62,2.227,0.868,3.136
						c-0.198,0.231-0.496,0.417-0.893,0.558c-0.396,0.14-0.867,0.211-1.413,0.211c-0.396,0-0.73-0.034-1.004-0.099
						c-0.272-0.066-0.495-0.165-0.669-0.298c-0.174-0.132-0.314-0.305-0.421-0.52c-0.108-0.214-0.203-0.462-0.285-0.744l-0.446-1.71
						h-4.486c-0.133,0.496-0.265,1.008-0.396,1.537c-0.133,0.529-0.265,1.041-0.396,1.537c-0.232,0.082-0.476,0.153-0.731,0.211
						c-0.257,0.058-0.566,0.087-0.93,0.087c-0.843,0-1.467-0.145-1.871-0.434c-0.405-0.289-0.607-0.69-0.607-1.202
						c0-0.231,0.032-0.462,0.099-0.694c0.066-0.232,0.141-0.504,0.224-0.818c0.115-0.446,0.276-0.999,0.483-1.661
						c0.206-0.661,0.434-1.376,0.682-2.144c0.247-0.768,0.512-1.558,0.793-2.367c0.28-0.81,0.545-1.574,0.793-2.293
						c0.248-0.719,0.475-1.359,0.682-1.921C241.605,244.027,241.766,243.597,241.882,243.299z M244.857,246.497
						c-0.231,0.694-0.492,1.466-0.781,2.317c-0.289,0.851-0.549,1.714-0.78,2.59h3.073c-0.231-0.893-0.467-1.764-0.706-2.615
						c-0.24-0.851-0.459-1.615-0.657-2.292H244.857z"/>
					<path style="fill:#FFFFFF;" d="M259.059,245.456c0.893,0,1.706,0.091,2.441,0.273c0.735,0.182,1.363,0.458,1.884,0.831
						c0.521,0.371,0.921,0.843,1.202,1.413c0.281,0.57,0.422,1.244,0.422,2.02v5.552c0,0.43-0.12,0.781-0.359,1.054
						c-0.24,0.273-0.525,0.508-0.855,0.706c-1.074,0.645-2.586,0.967-4.536,0.967c-0.876,0-1.665-0.083-2.367-0.248
						c-0.702-0.165-1.306-0.413-1.81-0.744c-0.504-0.331-0.892-0.752-1.165-1.264c-0.272-0.512-0.408-1.107-0.408-1.785
						c0-1.14,0.338-2.016,1.016-2.627c0.678-0.611,1.727-0.992,3.148-1.14l3.247-0.347v-0.173c0-0.479-0.211-0.822-0.632-1.029
						c-0.422-0.207-1.029-0.31-1.822-0.31c-0.628,0-1.239,0.066-1.834,0.198c-0.595,0.132-1.132,0.297-1.611,0.496
						c-0.215-0.149-0.396-0.376-0.545-0.682c-0.149-0.306-0.224-0.624-0.224-0.954c0-0.43,0.104-0.773,0.31-1.029
						c0.207-0.256,0.524-0.475,0.955-0.657c0.479-0.182,1.045-0.314,1.697-0.397C257.865,245.498,258.481,245.456,259.059,245.456z
						 M259.257,255.197c0.281,0,0.591-0.029,0.93-0.087c0.339-0.058,0.591-0.136,0.756-0.235v-1.983l-1.784,0.148
						c-0.463,0.033-0.843,0.132-1.141,0.297c-0.297,0.165-0.446,0.413-0.446,0.744c0,0.331,0.128,0.599,0.385,0.806
						C258.212,255.094,258.646,255.197,259.257,255.197z"/>
				</g>
			</g>
			<g>
				<rect x="287.161" y="234.458" style="fill:#5A88C4;" width="53.872" height="33.254"/>
				<path style="fill:#FFFFFF;" d="M325.82,240.583c-0.045-0.178-0.104-0.346-0.189-0.493c-0.266-0.911-1.667-0.337-2.28-0.249
					c-1.273,0.184-2.56,0.24-3.846,0.239c-2.531-0.003-5.062-0.214-7.592-0.032c-1.305,0.094-5.384-0.419-5.384,1.493
					c0,1.912,0.609,10.952,0.707,15.463c-1.835-0.305-4.693-0.606-5.857,1.1c-0.878,1.287-0.53,2.835,0.711,3.715
					c1.791,1.27,4.323,0.887,5.896-0.556c0.993-0.91,1.23-1.849,1.315-3.146c0.108-1.65,0.218-3.299,0.283-4.951
					c0.051-1.285,0.076-2.572,0.052-3.857c1.445-0.198,2.835-0.648,4.312-0.759c2.006-0.15,4.01,0.106,6.009,0.224
					c1.584,0.093,3.265,0.023,4.582-0.698c0.116,2.762,0.349,5.534,0.467,8.242c-1.727-0.041-3.581-0.08-4.752,1.353
					c-1.153,1.411-0.777,3.172,0.725,4.17c1.254,0.833,2.733,1.011,4.008,0.08c0.923-0.675,1.579-1.051,2.12-2.423
					c0.311-0.789,0.177-2.025,0.149-2.724c-0.032-0.784-0.049-1.569-0.069-2.353C327.059,249.759,326.964,245.13,325.82,240.583z
					 M309.578,247.893c-0.086-1.727-0.266-3.428-0.623-5.046c2.573-1.449,6.102-0.499,8.891-0.33
					c2.332,0.142,4.643,0.167,6.746-0.81c-0.092,1.15-0.126,2.314-0.125,3.483C320.591,248.501,313.583,244.568,309.578,247.893z"/>
			</g>
			<g>
				<rect x="349.573" y="234.458" style="fill:#5A88C4;" width="53.872" height="33.254"/>
				<g>
					<path style="fill:#FFFFFF;" d="M398.489,262.075c-0.316-1.086-2.048-2.8-2.632-3.612c-0.943-1.31-1.905-2.607-2.892-3.884
						c-1.441-1.865-3.422-5.623-5.582-6.569c-3.021-1.323-5.342,1.973-7.189,4.435c-2.033-5.058-5.916-13.19-11.832-11.592
						c-3.198,0.864-5.078,4.843-6.635,7.391c-2.778,4.547-5.77,9.227-7.62,14.238c-0.169,0.457,0.166,0.748,0.543,0.782
						c0.155,0.221,0.384,0.386,0.696,0.391c7.586,0.12,15.173,0.113,22.759,0.198c3.723,0.042,7.447,0.105,11.168,0.218
						c1.933,0.058,3.866,0.129,5.798,0.217c1.387,0.064,3.65,0.113,3.464-1.98C398.529,262.235,398.513,262.157,398.489,262.075z"/>
					<path style="fill:#FFFFFF;" d="M394.981,237.955c-4.077-0.817-7.12,3.776-4.682,7.3c1.916,2.769,6.237,2.613,7.963-0.275
						c1.732-2.897,0.051-6.29-3.184-7.004C395.046,237.968,395.013,237.961,394.981,237.955z"/>
				</g>
			</g>
			<g>
				<rect x="413.663" y="234.458" style="fill:#5A88C4;" width="53.872" height="33.254"/>
				<g>
					<path style="fill:#FFFFFF;" d="M451.028,239.686h-18.437c-4.484,0-8.153,3.669-8.153,8.152v7.132
						c0,0.281-0.112,0.55-0.31,0.749l-5.155,5.155c-0.667,0.667-0.195,1.808,0.749,1.808h11.775c0.011,0,0.022,0.002,0.034,0.002
						h19.496c4.484,0,8.152-3.669,8.152-8.152v-6.693C459.18,243.355,455.511,239.686,451.028,239.686z"/>
					<g>
						<path style="fill:#435B7A;" d="M438.258,251.425c0,0.827-0.67,1.497-1.496,1.497c-0.827,0-1.496-0.67-1.496-1.497
							c0-0.826,0.67-1.496,1.496-1.496C437.588,249.929,438.258,250.599,438.258,251.425z"/>
						<path style="fill:#435B7A;" d="M444.115,251.425c0,0.827-0.67,1.497-1.496,1.497c-0.827,0-1.496-0.67-1.496-1.497
							c0-0.826,0.67-1.496,1.496-1.496C443.445,249.929,444.115,250.599,444.115,251.425z"/>
						<path style="fill:#435B7A;" d="M449.972,251.425c0,0.827-0.67,1.497-1.496,1.497c-0.826,0-1.496-0.67-1.496-1.497
							c0-0.826,0.67-1.496,1.496-1.496C449.302,249.929,449.972,250.599,449.972,251.425z"/>
					</g>
				</g>
			</g>
			<g>
				<rect x="474.397" y="234.458" style="fill:#5A88C4;" width="53.872" height="33.254"/>
				<g>
					<circle style="fill:#FFFFFF;" cx="501.332" cy="250.826" r="13.967"/>
					<path style="fill:#435B7A;" d="M505.206,247.915c-2.045-1.363-4.071-2.756-6.106-4.134c-0.706-0.478-1.566,0.167-1.602,0.919
						c-0.139,2.9-0.137,5.795-0.012,8.691c0.024,1.154,0.09,2.32,0.195,3.515c0.065,0.736,0.913,1.48,1.646,0.944
						c2.025-1.48,4.05-2.961,6.075-4.441c0.842-0.616,2.454-1.371,2.526-2.612C508.014,249.334,506.176,248.561,505.206,247.915z"/>
				</g>
			</g>
		</g>
		<g>
			<g>
				<path style="fill:#FFFFFF;" d="M546.735,229.794H206.283c-2.388,0-4.323-1.936-4.323-4.323V76.73
					c0-2.388,1.935-4.323,4.323-4.323h340.452c2.388,0,4.323,1.935,4.323,4.323v148.741
					C551.058,227.859,549.122,229.794,546.735,229.794z"/>
				<path style="fill:#5A88C4;" d="M551.058,86.95H201.96V76.73c0-2.388,1.935-4.323,4.323-4.323h340.452
					c2.388,0,4.323,1.935,4.323,4.323V86.95z"/>
			</g>
			<g>
				<g>
					<g>
						<rect x="214.792" y="105.536" style="fill:#C6DBF7;" width="246.1" height="66.714"/>
						<g>
							
								<line style="fill:none;stroke:#FFFFFF;stroke-width:1.6966;stroke-linecap:round;stroke-linejoin:round;stroke-miterlimit:10;" x1="219.361" y1="166.82" x2="456.323" y2="110.965"/>
							
								<line style="fill:none;stroke:#FFFFFF;stroke-width:1.6966;stroke-linecap:round;stroke-linejoin:round;stroke-miterlimit:10;" x1="219.496" y1="110.4" x2="456.188" y2="167.386"/>
						</g>
					</g>
					<g>
						<rect x="215.342" y="189.962" style="fill:#E8F2FF;" width="245.001" height="3.081"/>
						<rect x="215.342" y="198.243" style="fill:#E8F2FF;" width="245.001" height="3.081"/>
						<rect x="215.342" y="206.525" style="fill:#E8F2FF;" width="245.001" height="3.081"/>
						<rect x="215.342" y="214.807" style="fill:#E8F2FF;" width="245.001" height="3.081"/>
					</g>
				</g>
				<g>
					<g>
						<rect x="487.605" y="166.497" style="fill:#C6DBF7;" width="57.052" height="56.132"/>
						<g>
							
								<line style="fill:none;stroke:#FFFFFF;stroke-width:1.6966;stroke-linecap:round;stroke-linejoin:round;stroke-miterlimit:10;" x1="490.626" y1="220.187" x2="541.206" y2="169.717"/>
							
								<line style="fill:none;stroke:#FFFFFF;stroke-width:1.6966;stroke-linecap:round;stroke-linejoin:round;stroke-miterlimit:10;" x1="490.655" y1="169.206" x2="541.178" y2="220.698"/>
						</g>
					</g>
					<g>
						<rect x="487.145" y="106.454" style="fill:#E8F2FF;" width="57.972" height="3.081"/>
						<rect x="487.145" y="114.736" style="fill:#E8F2FF;" width="57.972" height="3.081"/>
						<rect x="487.145" y="123.018" style="fill:#E8F2FF;" width="57.972" height="3.081"/>
						<rect x="487.145" y="131.299" style="fill:#E8F2FF;" width="57.972" height="3.081"/>
						<rect x="487.145" y="139.581" style="fill:#E8F2FF;" width="57.972" height="3.081"/>
						<rect x="487.145" y="147.863" style="fill:#E8F2FF;" width="57.972" height="3.081"/>
						<rect x="487.145" y="156.145" style="fill:#E8F2FF;" width="57.972" height="3.081"/>
					</g>
				</g>
				
					<line style="fill:none;stroke:#E8F2FF;stroke-width:2.0754;stroke-linecap:round;stroke-linejoin:round;stroke-miterlimit:10;" x1="475.643" y1="93.341" x2="475.643" y2="223.089"/>
			</g>
			<g>
				<path style="fill:#FFFFFF;" d="M450.119,84.225H309.79c-2.277,0-4.141-1.863-4.141-4.141l0,0c0-2.277,1.863-4.141,4.141-4.141
					h140.329c2.277,0,4.141,1.863,4.141,4.141l0,0C454.26,82.361,452.397,84.225,450.119,84.225z"/>
				<g>
					<path style="fill:#C6DBF7;" d="M449.501,83.501l-2.731-2.155l0.402-0.509l2.731,2.155c0.141,0.111,0.165,0.315,0.054,0.455l0,0
						C449.845,83.588,449.641,83.612,449.501,83.501z"/>
					
						<rect x="447.121" y="80.862" transform="matrix(0.6194 -0.7851 0.7851 0.6194 106.3497 382.2947)" style="fill:#5A88C4;" width="0.648" height="1.209"/>
					<path style="fill:#C6DBF7;" d="M446.661,77.197c-1.212-0.956-2.97-0.749-3.926,0.463c-0.956,1.212-0.749,2.97,0.463,3.926
						c1.212,0.956,2.97,0.749,3.926-0.463C448.08,79.911,447.873,78.154,446.661,77.197z M443.576,81.107
						c-0.947-0.747-1.109-2.121-0.362-3.068c0.747-0.947,2.121-1.109,3.068-0.362c0.947,0.747,1.109,2.121,0.362,3.068
						C445.897,81.692,444.523,81.854,443.576,81.107z"/>
				</g>
				<g>
					<path style="fill:#C6DBF7;" d="M312.371,81.44c-0.057,0.049-0.133,0.088-0.229,0.118c-0.097,0.03-0.212,0.045-0.345,0.045
						c-0.165,0-0.308-0.023-0.429-0.069c-0.121-0.046-0.202-0.112-0.242-0.197c-0.045-0.096-0.096-0.25-0.154-0.459
						c-0.059-0.209-0.116-0.439-0.172-0.689c-0.057-0.25-0.11-0.504-0.16-0.761c-0.051-0.258-0.09-0.486-0.118-0.683
						c0.057-0.056,0.132-0.106,0.227-0.148c0.094-0.043,0.198-0.064,0.311-0.064c0.141,0,0.257,0.032,0.348,0.094
						c0.09,0.063,0.146,0.17,0.166,0.323c0.04,0.307,0.074,0.559,0.102,0.758c0.028,0.2,0.052,0.363,0.069,0.49
						c0.018,0.127,0.033,0.223,0.043,0.29c0.01,0.066,0.019,0.12,0.027,0.16h0.024c0.012-0.064,0.033-0.158,0.064-0.281
						c0.03-0.123,0.065-0.263,0.105-0.42c0.04-0.157,0.083-0.327,0.127-0.511c0.044-0.183,0.089-0.365,0.133-0.547
						c0.081-0.044,0.16-0.078,0.239-0.103c0.079-0.024,0.176-0.036,0.293-0.036c0.141,0,0.262,0.022,0.362,0.066
						c0.101,0.045,0.165,0.113,0.194,0.205c0.048,0.177,0.095,0.35,0.139,0.517c0.045,0.167,0.085,0.322,0.121,0.466
						c0.036,0.143,0.068,0.27,0.097,0.381c0.028,0.111,0.048,0.199,0.06,0.263h0.03c0.045-0.31,0.088-0.632,0.13-0.967
						c0.042-0.334,0.082-0.674,0.117-1.021c0.073-0.045,0.15-0.076,0.23-0.097c0.08-0.02,0.161-0.03,0.242-0.03
						c0.141,0,0.257,0.03,0.35,0.091c0.093,0.061,0.139,0.165,0.139,0.314c0,0.065-0.01,0.162-0.03,0.29
						c-0.02,0.129-0.046,0.274-0.078,0.435c-0.033,0.161-0.069,0.33-0.112,0.508c-0.042,0.177-0.084,0.348-0.127,0.513
						c-0.042,0.165-0.083,0.314-0.121,0.447c-0.038,0.133-0.071,0.236-0.099,0.308c-0.057,0.049-0.143,0.088-0.26,0.118
						c-0.117,0.03-0.242,0.045-0.375,0.045c-0.338,0-0.538-0.085-0.598-0.254c-0.024-0.073-0.055-0.164-0.091-0.275
						c-0.036-0.111-0.074-0.233-0.115-0.366c-0.04-0.133-0.078-0.271-0.115-0.414c-0.036-0.143-0.067-0.281-0.091-0.414
						c-0.028,0.141-0.063,0.287-0.103,0.438c-0.04,0.151-0.082,0.298-0.124,0.441c-0.042,0.143-0.082,0.274-0.117,0.393
						C312.419,81.272,312.391,81.368,312.371,81.44z"/>
					<path style="fill:#C6DBF7;" d="M317.151,81.44c-0.057,0.049-0.133,0.088-0.229,0.118c-0.097,0.03-0.212,0.045-0.345,0.045
						c-0.165,0-0.308-0.023-0.429-0.069c-0.121-0.046-0.202-0.112-0.242-0.197c-0.045-0.096-0.096-0.25-0.154-0.459
						c-0.059-0.209-0.116-0.439-0.172-0.689c-0.057-0.25-0.11-0.504-0.16-0.761c-0.051-0.258-0.09-0.486-0.118-0.683
						c0.057-0.056,0.132-0.106,0.227-0.148c0.094-0.043,0.198-0.064,0.311-0.064c0.141,0,0.257,0.032,0.348,0.094
						c0.09,0.063,0.146,0.17,0.166,0.323c0.04,0.307,0.074,0.559,0.102,0.758c0.028,0.2,0.052,0.363,0.07,0.49
						c0.018,0.127,0.032,0.223,0.042,0.29c0.01,0.066,0.019,0.12,0.027,0.16h0.024c0.012-0.064,0.033-0.158,0.064-0.281
						c0.03-0.123,0.065-0.263,0.105-0.42c0.041-0.157,0.083-0.327,0.127-0.511c0.044-0.183,0.089-0.365,0.133-0.547
						c0.081-0.044,0.16-0.078,0.239-0.103c0.079-0.024,0.176-0.036,0.293-0.036c0.141,0,0.261,0.022,0.362,0.066
						c0.101,0.045,0.165,0.113,0.194,0.205c0.048,0.177,0.095,0.35,0.139,0.517c0.045,0.167,0.085,0.322,0.121,0.466
						c0.036,0.143,0.068,0.27,0.097,0.381c0.028,0.111,0.048,0.199,0.06,0.263h0.03c0.045-0.31,0.088-0.632,0.13-0.967
						c0.042-0.334,0.082-0.674,0.118-1.021c0.073-0.045,0.149-0.076,0.23-0.097c0.081-0.02,0.161-0.03,0.242-0.03
						c0.141,0,0.257,0.03,0.35,0.091c0.093,0.061,0.139,0.165,0.139,0.314c0,0.065-0.01,0.162-0.03,0.29
						c-0.02,0.129-0.046,0.274-0.078,0.435c-0.032,0.161-0.069,0.33-0.112,0.508c-0.042,0.177-0.084,0.348-0.127,0.513
						c-0.042,0.165-0.082,0.314-0.121,0.447c-0.038,0.133-0.071,0.236-0.099,0.308c-0.057,0.049-0.143,0.088-0.26,0.118
						c-0.117,0.03-0.242,0.045-0.375,0.045c-0.338,0-0.538-0.085-0.598-0.254c-0.024-0.073-0.055-0.164-0.091-0.275
						c-0.036-0.111-0.074-0.233-0.115-0.366c-0.04-0.133-0.079-0.271-0.115-0.414c-0.036-0.143-0.067-0.281-0.091-0.414
						c-0.028,0.141-0.063,0.287-0.103,0.438c-0.04,0.151-0.082,0.298-0.124,0.441c-0.042,0.143-0.082,0.274-0.118,0.393
						C317.199,81.272,317.171,81.368,317.151,81.44z"/>
					<path style="fill:#C6DBF7;" d="M321.931,81.44c-0.057,0.049-0.133,0.088-0.23,0.118c-0.097,0.03-0.212,0.045-0.344,0.045
						c-0.165,0-0.308-0.023-0.429-0.069c-0.121-0.046-0.202-0.112-0.242-0.197c-0.045-0.096-0.096-0.25-0.154-0.459
						c-0.059-0.209-0.116-0.439-0.172-0.689c-0.057-0.25-0.11-0.504-0.16-0.761c-0.051-0.258-0.09-0.486-0.118-0.683
						c0.057-0.056,0.132-0.106,0.227-0.148c0.094-0.043,0.198-0.064,0.311-0.064c0.141,0,0.257,0.032,0.348,0.094
						c0.09,0.063,0.146,0.17,0.166,0.323c0.04,0.307,0.074,0.559,0.102,0.758c0.028,0.2,0.052,0.363,0.069,0.49
						c0.018,0.127,0.032,0.223,0.042,0.29c0.01,0.066,0.019,0.12,0.027,0.16h0.024c0.012-0.064,0.034-0.158,0.064-0.281
						c0.03-0.123,0.065-0.263,0.105-0.42c0.04-0.157,0.082-0.327,0.127-0.511c0.044-0.183,0.089-0.365,0.133-0.547
						c0.081-0.044,0.16-0.078,0.239-0.103c0.079-0.024,0.176-0.036,0.293-0.036c0.141,0,0.261,0.022,0.362,0.066
						c0.101,0.045,0.165,0.113,0.194,0.205c0.048,0.177,0.095,0.35,0.139,0.517c0.045,0.167,0.085,0.322,0.121,0.466
						c0.036,0.143,0.069,0.27,0.097,0.381c0.028,0.111,0.048,0.199,0.06,0.263h0.03c0.045-0.31,0.088-0.632,0.13-0.967
						c0.042-0.334,0.082-0.674,0.118-1.021c0.073-0.045,0.15-0.076,0.23-0.097c0.081-0.02,0.161-0.03,0.242-0.03
						c0.141,0,0.257,0.03,0.35,0.091c0.093,0.061,0.139,0.165,0.139,0.314c0,0.065-0.01,0.162-0.03,0.29
						c-0.02,0.129-0.046,0.274-0.079,0.435c-0.032,0.161-0.069,0.33-0.112,0.508c-0.042,0.177-0.084,0.348-0.127,0.513
						c-0.042,0.165-0.083,0.314-0.121,0.447c-0.038,0.133-0.072,0.236-0.099,0.308c-0.057,0.049-0.143,0.088-0.26,0.118
						c-0.117,0.03-0.242,0.045-0.375,0.045c-0.338,0-0.538-0.085-0.598-0.254c-0.024-0.073-0.055-0.164-0.091-0.275
						c-0.036-0.111-0.074-0.233-0.115-0.366c-0.04-0.133-0.079-0.271-0.115-0.414c-0.036-0.143-0.067-0.281-0.091-0.414
						c-0.028,0.141-0.063,0.287-0.103,0.438c-0.04,0.151-0.082,0.298-0.124,0.441c-0.042,0.143-0.082,0.274-0.117,0.393
						C321.979,81.272,321.951,81.368,321.931,81.44z"/>
					<path style="fill:#C6DBF7;" d="M324.674,81.041c0-0.169,0.053-0.31,0.157-0.423c0.105-0.113,0.248-0.169,0.429-0.169
						s0.324,0.057,0.429,0.169c0.105,0.113,0.157,0.254,0.157,0.423c0,0.169-0.052,0.31-0.157,0.423
						c-0.105,0.113-0.248,0.169-0.429,0.169s-0.324-0.057-0.429-0.169C324.727,81.352,324.674,81.211,324.674,81.041z"/>
				</g>
			</g>
		</g>
		<g>
			<path style="fill:#FFAC6E;" d="M323.818,194.991h4.881c0.33,0.965,0.724,1.901,1.179,2.801l-3.613,3.613
				c-1.544,1.544-1.544,4.07,0,5.615l4.4,4.4c1.544,1.544,4.07,1.544,5.614,0l3.684-3.684c0.832,0.405,1.695,0.754,2.581,1.054
				v5.434c0,2.184,1.787,3.97,3.97,3.97h6.222c2.184,0,3.97-1.786,3.97-3.97v-5.434c0.836-0.283,1.652-0.609,2.44-0.986l3.973,3.973
				c1.544,1.544,4.07,1.544,5.614,0l4.4-4.4c1.544-1.544,1.544-4.07,0-5.615l-3.832-3.832c0.404-0.786,0.766-1.596,1.076-2.434
				h5.561c2.184,0,3.97-1.786,3.97-3.97v-6.223c0-2.184-1.786-3.97-3.97-3.97h-5.171c-0.282-0.918-0.626-1.808-1.02-2.67
				l3.743-3.743c1.544-1.544,1.544-4.07,0-5.614l-4.4-4.4c-1.544-1.544-4.07-1.544-5.615,0l-3.425,3.425
				c-0.911-0.488-1.859-0.916-2.84-1.275v-4.955c0-2.184-1.786-3.97-3.97-3.97h-6.223c-2.184,0-3.97,1.786-3.97,3.97v4.613
				c-1.051,0.327-2.067,0.73-3.044,1.203l-3.369-3.369c-1.544-1.544-4.07-1.544-5.614,0l-4.4,4.4c-1.544,1.544-1.544,4.071,0,5.614
				l3.277,3.277c-0.487,0.958-0.905,1.956-1.25,2.988h-4.832c-2.184,0-3.97,1.786-3.97,3.97v6.222
				C319.848,193.205,321.634,194.991,323.818,194.991z M349.878,177.494c5.892,0,10.669,4.777,10.669,10.669
				c0,5.892-4.777,10.669-10.669,10.669c-5.892,0-10.669-4.777-10.669-10.669C339.21,182.271,343.986,177.494,349.878,177.494z"/>
			<path style="fill:#FFAC6E;" d="M378.458,166.37h4.881c0.33,0.966,0.724,1.901,1.179,2.801l-3.613,3.613
				c-1.544,1.544-1.544,4.07,0,5.614l4.4,4.4c1.544,1.544,4.07,1.544,5.614,0l3.684-3.684c0.832,0.405,1.695,0.754,2.582,1.054
				v5.434c0,2.184,1.786,3.97,3.97,3.97h6.222c2.184,0,3.97-1.786,3.97-3.97v-5.434c0.836-0.283,1.652-0.609,2.44-0.986l3.973,3.973
				c1.544,1.544,4.07,1.544,5.614,0l4.4-4.4c1.544-1.544,1.544-4.07,0-5.615l-3.832-3.832c0.404-0.786,0.766-1.596,1.076-2.434
				h5.561c2.184,0,3.97-1.786,3.97-3.97v-6.223c0-2.184-1.786-3.97-3.97-3.97h-5.171c-0.282-0.918-0.626-1.808-1.02-2.67
				l3.743-3.743c1.544-1.544,1.544-4.07,0-5.614l-4.4-4.4c-1.544-1.544-4.07-1.544-5.614,0l-3.425,3.425
				c-0.911-0.488-1.859-0.916-2.84-1.275v-4.955c0-2.184-1.786-3.97-3.97-3.97h-6.222c-2.184,0-3.97,1.786-3.97,3.97v4.613
				c-1.051,0.327-2.067,0.73-3.044,1.203l-3.369-3.369c-1.544-1.544-4.07-1.544-5.614,0l-4.4,4.4c-1.544,1.544-1.544,4.07,0,5.614
				l3.277,3.277c-0.487,0.958-0.905,1.956-1.25,2.988h-4.832c-2.184,0-3.97,1.786-3.97,3.97v6.222
				C374.488,164.583,376.275,166.37,378.458,166.37z M404.519,148.873c5.892,0,10.669,4.777,10.669,10.669
				c0,5.892-4.777,10.669-10.669,10.669c-5.892,0-10.669-4.777-10.669-10.669C393.85,153.649,398.627,148.873,404.519,148.873z"/>
			<path style="fill:#FFAC6E;" d="M322.438,133.653h4.881c0.33,0.965,0.724,1.901,1.179,2.801l-3.613,3.613
				c-1.544,1.544-1.544,4.071,0,5.614l4.4,4.4c1.544,1.544,4.07,1.544,5.615,0l3.684-3.684c0.832,0.405,1.695,0.754,2.582,1.054
				v5.435c0,2.183,1.786,3.97,3.97,3.97h6.222c2.184,0,3.97-1.786,3.97-3.97v-5.435c0.836-0.283,1.652-0.609,2.44-0.986l3.973,3.973
				c1.544,1.544,4.07,1.544,5.615,0l4.4-4.4c1.544-1.544,1.544-4.07,0-5.614l-3.832-3.832c0.404-0.786,0.766-1.596,1.076-2.434
				h5.561c2.183,0,3.97-1.786,3.97-3.97v-6.222c0-2.183-1.787-3.97-3.97-3.97h-5.171c-0.282-0.918-0.626-1.808-1.02-2.67
				l3.743-3.743c1.544-1.544,1.544-4.071,0-5.614l-4.4-4.4c-1.544-1.544-4.07-1.544-5.614,0l-3.425,3.425
				c-0.911-0.488-1.859-0.916-2.84-1.275v-4.955c0-2.184-1.786-3.97-3.97-3.97h-6.223c-2.184,0-3.97,1.786-3.97,3.97v4.613
				c-1.051,0.327-2.067,0.73-3.044,1.203l-3.369-3.369c-1.544-1.544-4.07-1.544-5.614,0l-4.4,4.4c-1.544,1.544-1.544,4.071,0,5.615
				l3.277,3.277c-0.487,0.958-0.905,1.956-1.25,2.988h-4.832c-2.184,0-3.97,1.787-3.97,3.97v6.223
				C318.468,131.866,320.254,133.653,322.438,133.653z M348.499,116.156c5.892,0,10.669,4.776,10.669,10.669
				c0,5.892-4.776,10.669-10.669,10.669c-5.892,0-10.669-4.777-10.669-10.669C337.83,120.932,342.607,116.156,348.499,116.156z"/>
		</g>
	</g>
	<g>
		<g>
			<path style="fill:#F46700;" d="M155.016,114.529H77.533c-4.793,0-8.714-3.921-8.714-8.714v-34.12
				c0-4.793,3.921-8.714,8.714-8.714h77.483c4.793,0,8.714,3.921,8.714,8.714v34.12C163.73,110.608,159.809,114.529,155.016,114.529
				z"/>
			<g>
				<path style="fill:#FFFFFF;" d="M100.37,95.857c-0.174,0.047-0.446,0.095-0.817,0.142c-0.371,0.047-0.738,0.071-1.101,0.071
					c-0.363,0-0.682-0.028-0.958-0.083c-0.277-0.055-0.509-0.154-0.699-0.296c-0.189-0.142-0.331-0.339-0.426-0.591
					c-0.095-0.252-0.142-0.584-0.142-0.994l-0.001-3.692l-4.544,0.001l0.001,5.444c-0.174,0.047-0.446,0.094-0.817,0.142
					c-0.37,0.047-0.738,0.071-1.1,0.071c-0.363,0-0.683-0.027-0.959-0.083c-0.276-0.055-0.509-0.154-0.698-0.296
					c-0.19-0.142-0.332-0.339-0.426-0.591c-0.094-0.252-0.142-0.584-0.142-0.994l0-12.496c0.173-0.031,0.45-0.075,0.829-0.13
					c0.379-0.055,0.741-0.083,1.088-0.083c0.363,0,0.682,0.028,0.959,0.083c0.276,0.056,0.509,0.154,0.698,0.296
					c0.19,0.142,0.332,0.339,0.426,0.591c0.095,0.253,0.142,0.584,0.142,0.994v3.786l4.544-0.001v-5.538
					c0.173-0.031,0.449-0.075,0.828-0.13c0.379-0.055,0.742-0.083,1.089-0.083c0.363,0,0.682,0.028,0.958,0.083
					c0.276,0.056,0.509,0.154,0.698,0.296c0.19,0.142,0.331,0.339,0.426,0.591c0.095,0.253,0.142,0.584,0.142,0.994L100.37,95.857z"
					/>
				<path style="fill:#FFFFFF;" d="M102.784,84.922c-0.11-0.174-0.213-0.41-0.307-0.71c-0.095-0.3-0.142-0.615-0.142-0.947
					c0-0.615,0.138-1.057,0.414-1.325c0.276-0.269,0.635-0.402,1.077-0.402l10.319-0.001c0.11,0.174,0.213,0.41,0.308,0.71
					c0.095,0.3,0.142,0.615,0.142,0.947c0,0.615-0.138,1.057-0.414,1.326c-0.277,0.269-0.635,0.402-1.077,0.402h-2.627l0.001,10.934
					c-0.174,0.047-0.446,0.094-0.817,0.142c-0.371,0.047-0.738,0.071-1.101,0.071c-0.363,0-0.682-0.028-0.958-0.083
					c-0.276-0.055-0.509-0.154-0.698-0.296c-0.189-0.142-0.331-0.339-0.426-0.591c-0.095-0.252-0.142-0.584-0.142-0.994
					l-0.001-9.183H102.784z"/>
				<path style="fill:#FFFFFF;" d="M126.05,92.424c-0.205,0.174-0.469,0.312-0.793,0.414c-0.324,0.103-0.698,0.154-1.124,0.154
					c-0.568,0-1.038-0.071-1.408-0.213c-0.371-0.142-0.611-0.387-0.722-0.734c-0.443-1.388-0.805-2.512-1.09-3.373
					c-0.284-0.859-0.505-1.613-0.663-2.26h-0.118c-0.048,0.931-0.083,1.779-0.106,2.544c-0.024,0.765-0.039,1.511-0.047,2.237
					c-0.008,0.726-0.024,1.459-0.047,2.201c-0.024,0.742-0.059,1.562-0.107,2.461c-0.205,0.079-0.473,0.145-0.804,0.201
					c-0.332,0.055-0.663,0.083-0.994,0.083c-0.694,0-1.235-0.11-1.621-0.331c-0.387-0.221-0.58-0.623-0.58-1.207l0.686-12.07
					c0.126-0.205,0.402-0.426,0.829-0.663c0.426-0.237,1.025-0.355,1.799-0.355c0.836,0,1.491,0.13,1.965,0.39
					c0.473,0.26,0.82,0.683,1.041,1.266c0.142,0.379,0.296,0.813,0.462,1.302c0.166,0.489,0.331,0.994,0.497,1.515
					c0.166,0.521,0.327,1.038,0.485,1.55c0.158,0.513,0.3,0.974,0.426,1.384h0.118c0.379-1.325,0.757-2.607,1.136-3.846
					c0.379-1.239,0.725-2.276,1.041-3.112c0.237-0.126,0.54-0.232,0.911-0.319c0.37-0.086,0.785-0.131,1.242-0.131
					c0.773,0,1.404,0.115,1.894,0.343c0.489,0.229,0.773,0.556,0.852,0.982c0.063,0.315,0.13,0.801,0.201,1.455
					c0.071,0.655,0.145,1.393,0.225,2.213c0.079,0.821,0.158,1.689,0.237,2.604c0.079,0.915,0.154,1.795,0.225,2.639
					c0.071,0.844,0.13,1.617,0.178,2.319c0.048,0.702,0.079,1.242,0.094,1.621c-0.268,0.158-0.548,0.272-0.84,0.343
					c-0.292,0.071-0.667,0.107-1.125,0.107c-0.6,0-1.105-0.103-1.515-0.308c-0.41-0.205-0.631-0.607-0.663-1.207
					c-0.095-1.719-0.153-3.266-0.178-4.639c-0.024-1.372-0.06-2.524-0.107-3.455h-0.119c-0.158,0.616-0.387,1.389-0.686,2.32
					C126.839,89.781,126.476,90.972,126.05,92.424z"/>
				<path style="fill:#FFFFFF;" d="M137.197,96.02c-0.678,0-1.215-0.197-1.61-0.591c-0.394-0.394-0.592-0.931-0.592-1.609
					l-0.001-12.237c0.173-0.031,0.45-0.075,0.829-0.13c0.379-0.055,0.741-0.083,1.088-0.083c0.363,0,0.682,0.028,0.959,0.083
					c0.276,0.056,0.509,0.154,0.698,0.296c0.19,0.142,0.332,0.34,0.426,0.592c0.095,0.252,0.142,0.584,0.142,0.994l0.001,9.349h5.42
					c0.11,0.174,0.213,0.407,0.308,0.698c0.094,0.292,0.142,0.596,0.142,0.911c0,0.632-0.134,1.077-0.402,1.337
					c-0.268,0.26-0.624,0.391-1.065,0.391L137.197,96.02z"/>
			</g>
		</g>
		<g>
			<path style="fill:#F46700;" d="M632.3,161.008h-57.332c-3.546,0-6.448-2.902-6.448-6.448v-34.914
				c0-3.546,2.901-6.448,6.448-6.448H632.3c3.546,0,6.448,2.901,6.448,6.448v34.914C638.747,158.106,635.846,161.008,632.3,161.008z
				"/>
			<g>
				<path style="fill:#FFFFFF;" d="M592.351,132.723c-1.245,0-2.2,0.381-2.862,1.141c-0.664,0.76-0.995,1.836-0.995,3.227
					c0,1.407,0.368,2.491,1.104,3.251c0.736,0.76,1.727,1.14,2.973,1.14c0.663,0,1.225-0.089,1.686-0.267
					c0.461-0.178,0.902-0.38,1.322-0.607c0.275,0.227,0.489,0.498,0.643,0.813c0.154,0.315,0.231,0.684,0.231,1.104
					c0,0.663-0.368,1.225-1.104,1.687c-0.736,0.461-1.856,0.691-3.36,0.692c-1.084,0-2.103-0.154-3.057-0.461
					c-0.954-0.307-1.787-0.78-2.499-1.419c-0.712-0.639-1.274-1.448-1.687-2.426c-0.412-0.978-0.619-2.147-0.619-3.506
					c0-1.262,0.198-2.374,0.595-3.337c0.396-0.962,0.938-1.775,1.626-2.438c0.687-0.663,1.492-1.165,2.414-1.504
					c0.922-0.34,1.909-0.51,2.96-0.51c1.488,0,2.641,0.243,3.458,0.728c0.816,0.485,1.226,1.108,1.226,1.868
					c0,0.421-0.106,0.785-0.316,1.092c-0.21,0.307-0.453,0.55-0.728,0.728c-0.421-0.275-0.87-0.51-1.346-0.703
					C593.537,132.82,592.983,132.723,592.351,132.723z"/>
				<path style="fill:#FFFFFF;" d="M602.882,138.619c-0.712-0.243-1.359-0.489-1.941-0.74c-0.583-0.251-1.084-0.554-1.504-0.91
					c-0.421-0.356-0.749-0.78-0.983-1.274c-0.234-0.493-0.352-1.095-0.352-1.808c0-1.374,0.53-2.475,1.589-3.3
					c1.059-0.825,2.544-1.238,4.452-1.238c0.695,0,1.343,0.048,1.942,0.145c0.598,0.097,1.112,0.247,1.54,0.449
					c0.428,0.202,0.764,0.461,1.007,0.776c0.242,0.315,0.364,0.683,0.364,1.104c0,0.421-0.097,0.781-0.291,1.08
					c-0.194,0.299-0.429,0.554-0.703,0.764c-0.357-0.226-0.834-0.424-1.432-0.594c-0.599-0.17-1.254-0.255-1.966-0.255
					c-0.728,0-1.261,0.101-1.601,0.303c-0.34,0.203-0.51,0.457-0.51,0.764c0,0.243,0.106,0.441,0.316,0.595
					c0.21,0.154,0.525,0.295,0.946,0.424l1.285,0.413c1.52,0.485,2.689,1.104,3.507,1.856c0.816,0.752,1.225,1.775,1.225,3.07
					c0.001,1.375-0.541,2.487-1.624,3.336c-1.084,0.85-2.678,1.274-4.78,1.274c-0.744,0-1.436-0.06-2.074-0.182
					c-0.64-0.122-1.197-0.299-1.675-0.534c-0.477-0.234-0.849-0.525-1.116-0.873c-0.267-0.348-0.401-0.748-0.401-1.201
					c0-0.469,0.137-0.869,0.412-1.201c0.275-0.331,0.574-0.586,0.898-0.764c0.453,0.356,1.007,0.663,1.663,0.921
					c0.655,0.259,1.371,0.388,2.147,0.388c0.792,0,1.35-0.121,1.674-0.364c0.324-0.243,0.485-0.525,0.485-0.849
					c0-0.323-0.13-0.57-0.388-0.74c-0.259-0.17-0.624-0.336-1.092-0.498L602.882,138.619z"/>
				<path style="fill:#FFFFFF;" d="M616.251,138.618c-0.712-0.242-1.359-0.488-1.941-0.739c-0.583-0.251-1.084-0.554-1.504-0.91
					c-0.421-0.356-0.749-0.78-0.983-1.274c-0.234-0.493-0.352-1.096-0.352-1.808c0-1.374,0.53-2.475,1.589-3.3
					c1.059-0.825,2.544-1.238,4.452-1.238c0.695,0,1.343,0.048,1.942,0.146c0.598,0.097,1.112,0.247,1.54,0.449
					c0.428,0.203,0.764,0.461,1.007,0.777c0.242,0.315,0.364,0.683,0.364,1.104c0,0.421-0.097,0.781-0.291,1.08
					c-0.194,0.299-0.429,0.554-0.703,0.764c-0.357-0.226-0.834-0.424-1.432-0.594c-0.599-0.17-1.254-0.255-1.966-0.255
					c-0.728,0-1.261,0.101-1.601,0.303c-0.34,0.203-0.51,0.457-0.51,0.764c0,0.243,0.106,0.441,0.316,0.595
					c0.21,0.154,0.525,0.295,0.946,0.424l1.285,0.413c1.52,0.485,2.689,1.104,3.507,1.856c0.816,0.752,1.225,1.775,1.225,3.07
					c0.001,1.375-0.541,2.487-1.624,3.336c-1.084,0.849-2.678,1.274-4.78,1.274c-0.744,0-1.436-0.06-2.074-0.181
					c-0.64-0.121-1.198-0.299-1.675-0.534c-0.477-0.234-0.849-0.525-1.116-0.873c-0.267-0.348-0.4-0.748-0.4-1.201
					c0-0.469,0.137-0.869,0.412-1.201c0.275-0.331,0.574-0.586,0.898-0.764c0.453,0.356,1.007,0.663,1.663,0.922
					c0.655,0.259,1.371,0.388,2.147,0.388c0.792,0,1.35-0.122,1.674-0.364c0.324-0.243,0.485-0.525,0.485-0.849
					c0-0.323-0.13-0.57-0.388-0.74c-0.259-0.17-0.624-0.336-1.092-0.498L616.251,138.618z"/>
			</g>
		</g>
		<g>
			<path style="fill:#F46700;" d="M658.065,356.169h-70.036c-4.334,0-7.88-3.546-7.88-7.88v-42.648c0-4.334,3.546-7.88,7.88-7.88
				h70.036c4.334,0,7.88,3.546,7.88,7.88v42.648C665.945,352.623,662.399,356.169,658.065,356.169z"/>
			<g>
				<path style="fill:#FFFFFF;" d="M608.911,333.154c0.047,0.14,0.075,0.303,0.088,0.488c0.011,0.186,0.018,0.361,0.018,0.523
					c0,0.418-0.047,0.813-0.14,1.186c-0.094,0.372-0.244,0.697-0.453,0.976c-0.21,0.279-0.483,0.506-0.819,0.68
					c-0.338,0.175-0.762,0.262-1.272,0.262c-0.488,0-0.971-0.104-1.447-0.314c-0.477-0.209-1.064-0.511-1.761-0.906l-7.496-4.322
					c-0.605-0.79-0.907-1.836-0.907-3.138c0-0.977,0.14-1.731,0.418-2.267c0.279-0.534,0.685-0.953,1.221-1.255l9.588-5.579
					c1.139,0.302,1.911,0.714,2.318,1.237c0.406,0.522,0.61,1.087,0.61,1.69c0,0.814-0.204,1.447-0.61,1.9
					c-0.407,0.453-1.006,0.878-1.796,1.273l-6.136,3.104L608.911,333.154z"/>
				<path style="fill:#FFFFFF;" d="M621.985,341.102c-0.326,0.047-0.64,0.075-0.941,0.088c-0.303,0.012-0.581,0.017-0.837,0.017
					c-0.977,0-1.726-0.209-2.249-0.627c-0.522-0.419-0.784-1.093-0.784-2.022c0-0.627,0.093-1.261,0.279-1.9
					c0.186-0.639,0.349-1.202,0.488-1.69l6.135-22.14c0.349-0.047,0.674-0.075,0.977-0.088c0.302-0.011,0.58-0.018,0.836-0.018
					c0.93,0,1.668,0.198,2.214,0.593c0.546,0.395,0.819,1.035,0.819,1.918c0,0.675-0.093,1.314-0.278,1.918
					c-0.187,0.604-0.36,1.208-0.523,1.813L621.985,341.102z"/>
				<path style="fill:#FFFFFF;" d="M637.185,323.6c-0.047-0.14-0.076-0.302-0.087-0.488c-0.013-0.185-0.018-0.359-0.018-0.522
					c0-0.418,0.046-0.813,0.14-1.186c0.092-0.371,0.243-0.697,0.453-0.977c0.209-0.278,0.481-0.505,0.819-0.68
					c0.336-0.174,0.761-0.261,1.273-0.261c0.488-0.001,0.97,0.104,1.446,0.313c0.477,0.209,1.063,0.512,1.761,0.906l7.496,4.323
					c0.604,0.79,0.906,1.836,0.906,3.138c0,0.977-0.14,1.732-0.418,2.267c-0.279,0.535-0.685,0.953-1.22,1.255l-9.588,5.578
					c-1.139-0.301-1.912-0.714-2.318-1.236c-0.406-0.523-0.609-1.087-0.609-1.691c0-0.814,0.203-1.446,0.609-1.899
					c0.406-0.454,1.006-0.878,1.796-1.273l6.135-3.104L637.185,323.6z"/>
			</g>
		</g>
		<g>
			<path style="fill:#F46700;" d="M157.41,195.087h-44.324c-4.333,0-7.878-3.545-7.878-7.877v-26.606
				c0-4.333,3.545-7.877,7.878-7.877h44.324c4.333,0,7.877,3.545,7.877,7.877v26.606
				C165.287,191.542,161.742,195.087,157.41,195.087z"/>
			<g>
				<path style="fill:#FFFFFF;" d="M128.274,173.906c1.108,0.534,1.663,1.663,1.663,3.388v3.448c0,0.698,0.118,1.195,0.354,1.493
					c0.235,0.297,0.58,0.508,1.031,0.631c0.041,0.164,0.062,0.313,0.062,0.446s0,0.262,0,0.385c0,0.965-0.226,1.637-0.677,2.018
					c-0.452,0.379-1.037,0.569-1.755,0.569c-1.129,0-2.053-0.359-2.772-1.078c-0.719-0.719-1.078-1.806-1.078-3.264v-3.232
					c0-0.903-0.159-1.591-0.477-2.063c-0.318-0.472-0.827-0.8-1.524-0.984c-0.062-0.247-0.113-0.519-0.154-0.816
					c-0.041-0.297-0.062-0.61-0.062-0.939c0-0.328,0.021-0.641,0.062-0.939c0.041-0.298,0.093-0.569,0.154-0.816
					c0.697-0.184,1.206-0.513,1.524-0.985c0.318-0.472,0.477-1.159,0.477-2.063v-3.232c0-1.458,0.359-2.545,1.078-3.264
					c0.718-0.719,1.642-1.078,2.772-1.078c0.718,0,1.303,0.19,1.755,0.569c0.451,0.38,0.677,1.053,0.677,2.017
					c0,0.124,0,0.252,0,0.386c0,0.133-0.02,0.282-0.062,0.446c-0.452,0.123-0.796,0.334-1.031,0.631
					c-0.236,0.298-0.354,0.796-0.354,1.493v3.448C129.936,172.264,129.382,173.393,128.274,173.906z"/>
				<path style="fill:#FFFFFF;" d="M142.221,173.906c-1.108-0.513-1.663-1.642-1.663-3.387v-3.448c0-0.697-0.118-1.195-0.354-1.493
					c-0.236-0.297-0.58-0.508-1.032-0.631c-0.041-0.164-0.061-0.313-0.061-0.446c0-0.134,0-0.262,0-0.386
					c0-0.964,0.226-1.637,0.678-2.017c0.451-0.379,1.036-0.569,1.755-0.569c1.128,0,2.052,0.359,2.771,1.078
					c0.718,0.719,1.078,1.806,1.078,3.264v3.232c0,0.903,0.159,1.591,0.477,2.063c0.318,0.473,0.826,0.801,1.524,0.985
					c0.061,0.247,0.112,0.519,0.154,0.816c0.041,0.298,0.062,0.61,0.062,0.939c0,0.329-0.021,0.643-0.062,0.939
					c-0.042,0.298-0.092,0.569-0.154,0.816c-0.698,0.185-1.206,0.513-1.524,0.984c-0.318,0.473-0.477,1.16-0.477,2.063v3.232
					c0,1.458-0.359,2.545-1.078,3.264c-0.719,0.719-1.643,1.078-2.771,1.078c-0.719,0-1.304-0.19-1.755-0.569
					c-0.452-0.381-0.678-1.053-0.678-2.018c0-0.123,0-0.251,0-0.385s0.02-0.282,0.061-0.446c0.452-0.123,0.795-0.334,1.032-0.631
					c0.236-0.298,0.354-0.795,0.354-1.493v-3.448C140.559,175.569,141.113,174.44,142.221,173.906z"/>
			</g>
		</g>
		<g>
			<path style="fill:#F46700;" d="M683.703,259.477h-72.248c-4.334,0-7.88-3.546-7.88-7.88v-43.859c0-4.334,3.546-7.88,7.88-7.88
				h72.248c4.334,0,7.88,3.546,7.88,7.88v43.859C691.583,255.931,688.037,259.477,683.703,259.477z"/>
			<path style="fill:#FFFFFF;" d="M664.543,244.86c3.617-4.035,5.822-9.36,5.822-15.192c0-12.564-10.222-22.786-22.786-22.786
				c-12.564,0-22.786,10.222-22.786,22.786s10.222,22.786,22.786,22.786c0.905,0,1.796-0.059,2.673-0.162
				c0.003,0,0.006,0.001,0.009,0.001c0.377-0.002,0.726-0.063,1.061-0.151c4.59-0.762,8.717-2.9,11.949-5.975
				C663.908,246.056,664.488,245.529,664.543,244.86z M663.08,242.178c-1.289-1.611-2.901-2.915-4.72-3.924
				c0.545-3.053,0.728-6.175,0.53-9.253c-0.13-2.013-0.437-4.428-1.012-6.869c2.229-1.051,4.214-2.465,5.772-4.234
				c2.424,3.301,3.86,7.37,3.86,11.771C667.51,234.403,665.848,238.755,663.08,242.178z M639.567,229.389
				c-0.09-2.014-0.019-4.161,0.279-6.286c1.888,0.655,3.905,1.049,5.957,1.193c0.053,1.609,0.115,3.187,0.148,4.7
				c0.048,2.231,0.137,4.461,0.245,6.689c-1.869,0.102-3.725,0.402-5.499,0.907C640.059,234.239,639.675,231.81,639.567,229.389z
				 M656.122,229.598c0.11,2.487-0.035,4.984-0.434,7.44c-2.152-0.794-4.481-1.245-6.849-1.362
				c-0.115-2.226-0.212-4.452-0.268-6.681c-0.039-1.527-0.016-3.086,0.025-4.659c2.289-0.092,4.563-0.493,6.699-1.188
				C655.781,225.357,656.033,227.585,656.122,229.598z M648.682,221.496c0.102-3.253,0.18-6.526-0.116-9.681
				c2.99,1.895,4.872,5.122,6.012,8.667C652.714,221.086,650.705,221.421,648.682,221.496z M646.465,210.764
				c0.004,0.002,0.008,0.004,0.013,0.006c-0.701,3.353-0.809,7.023-0.749,10.644c-1.848-0.171-3.654-0.57-5.323-1.197
				C641.369,216.432,643.238,212.971,646.465,210.764z M638.089,219.15c-1.735-0.975-3.224-2.253-4.315-3.838
				c2.709-2.606,6.15-4.456,9.982-5.204C640.856,212.041,639.089,215.446,638.089,219.15z M646.344,238.508
				c0.202,3.394,0.471,6.783,0.805,10.168c-0.118,0.028-0.236,0.072-0.35,0.145c-0.475,0.301-4.822-8.396-5.133-9.215
				c-0.047-0.123-0.087-0.248-0.132-0.371C643.08,238.817,644.706,238.578,646.344,238.508z M639.831,242.14
				c0.771,1.786,2.065,4.91,3.788,7.063c-3.829-0.775-7.261-2.652-9.955-5.283c1.39-1.646,3.25-2.921,5.369-3.821
				C639.28,240.786,639.541,241.468,639.831,242.14z M649.877,249.463c-0.357-3.635-0.65-7.275-0.877-10.919
				c2.127,0.156,4.211,0.612,6.104,1.368c-0.755,3.029-1.827,7.461-4.542,9.463C650.335,249.41,650.106,249.436,649.877,249.463z
				 M656.829,244.108c0.333-0.945,0.615-1.909,0.871-2.881c1.325,0.833,2.479,1.858,3.395,3.074
				c-1.684,1.557-3.634,2.829-5.776,3.735C655.952,246.694,656.422,245.263,656.829,244.108z M661.793,215.714
				c-1.204,1.551-2.815,2.791-4.668,3.723c-1.358-4.169-3.617-8.001-7.244-9.563C654.522,210.41,658.681,212.544,661.793,215.714z
				 M631.824,217.481c1.477,1.962,3.415,3.496,5.631,4.61c-0.461,2.777-0.564,5.547-0.453,7.839c0.124,2.554,0.528,5.076,1.196,7.53
				c-2.471,1.026-4.681,2.482-6.413,4.346c-2.591-3.364-4.138-7.573-4.138-12.138C627.647,225.08,629.209,220.853,631.824,217.481z"
				/>
		</g>
	</g>
	<g>
		<path style="fill:#F9F2FF;" d="M241.087,457.711H57.257c-2.934,0-5.312-2.217-5.312-4.951l0,0c0-2.734,2.378-4.951,5.312-4.951
			h183.83c2.934,0,5.312,2.217,5.312,4.951l0,0C246.399,455.495,244.021,457.711,241.087,457.711z"/>
		<g>
			<g>
				<g>
					<path style="fill:#213C5E;" d="M168.352,245.766c-4.716-5.627-11.614-9.42-18.849-10.571
						c-8.51-1.354-20.598,2.633-24.461,10.531c-0.206,0.023-0.395,0.144-0.449,0.39c-0.124,0.566-0.243,1.147-0.359,1.736
						c-0.167,0.605-0.274,1.233-0.344,1.875c-1.333,7.717-1.76,16.843,1.114,23.829c2.499,6.075,8.048,8.057,14.192,8.555
						c7.693,0.623,17.652,1.911,24.869-1.289c6.278-2.784,7.856-8.398,8.446-14.787
						C173.193,258.637,173.316,251.689,168.352,245.766z"/>
					<g>
						<polygon style="fill:#784422;" points="156.99,297.589 156.99,281.513 138.145,281.513 138.145,297.475 124.414,301.239 
							121.326,301.548 147.824,322.301 174.027,301.204 						"/>
						<path style="fill:#271A0E;" d="M156.99,288.306c0,0-3.975,3.372-9.502,3.372c-5.527,0-9.343-3.372-9.343-3.372v-8.498h18.845
							V288.306z"/>
					</g>
					<g>
						<g>
							<path style="fill:#784422;" d="M117.881,260.604c0.343-0.958,0.863-1.89,1.683-2.494c0.559-0.411,1.228-0.645,1.91-0.778
								c0.038-0.008,0.077-0.018,0.115-0.025c0.468-0.083,0.945-0.108,1.421-0.09c1.034,0.038,2.062,0.301,2.982,0.767
								c0.436,0.221,0.843,0.489,1.22,0.794c0.448,0.364,0.85,0.782,1.175,1.266l0.813,8.64c-0.444,1.119-1.341,2.032-2.41,2.588
								c-1.068,0.556-2.295,0.769-3.498,0.711c-0.705-0.033-1.418-0.161-2.045-0.486c-0.533-0.276-0.987-0.684-1.393-1.126
								C117.494,267.8,116.704,263.891,117.881,260.604z"/>
							<path style="fill:#271A0E;" d="M119.263,263.452c0.066,1.78,0.822,4.311,2.731,5.583c0.634,0.422,1.343,0.647,1.99,0.647
								c0.21,0,0.412-0.024,0.605-0.073c0.608-0.153,1.096-0.546,1.413-1.137c0.062-0.117-0.004-0.23-0.136-0.458
								c-0.186-0.321-0.499-0.857-0.29-1.242c0.205-0.379,0.621-0.49,0.897-0.565c0.201-0.054,0.36-0.096,0.382-0.254
								c0.209-1.471-0.285-3.569-0.624-4.222c-0.661-1.42-2.538-2.318-4.236-2.072C120.258,259.924,119.185,261.412,119.263,263.452
								z M122.556,263.32c-0.592,0.545-1.205,1.107-1.579,1.939c-0.101,0.226-0.169,0.462-0.202,0.705
								c-0.289-0.66-0.484-1.372-0.562-2.061c-0.123-1.097,0.089-2.028,0.593-2.622c0.405-0.477,0.995-0.74,1.751-0.778
								c0.549-0.021,1.098,0.08,1.625,0.322C124.021,261.974,123.309,262.628,122.556,263.32z M122.423,268.111
								c-0.065-0.081-0.637-0.815-0.717-1.41c-0.14-1.038,0.361-1.527,0.996-2.148l0.196-0.193c0.155-0.155,0.316-0.307,0.477-0.46
								c0.39-0.367,0.791-0.749,1.122-1.172c0.188-0.242,0.554-0.78,0.563-1.331c0.247,0.239,0.478,0.548,0.546,0.788
								c0.129,0.466,0.534,2.048,0.476,3.283c-0.462,0.136-1.208,0.522-1.352,1.216c-0.154,0.732,0.186,1.392,0.313,1.64
								c0.007,0.012,0.013,0.025,0.018,0.035c-0.068,0.111-0.334,0.305-0.752,0.401
								C123.958,268.836,123.079,268.934,122.423,268.111z"/>
						</g>
						<g>
							<path style="fill:#784422;" d="M177.473,260.604c-0.343-0.958-0.863-1.89-1.682-2.494c-0.559-0.411-1.228-0.645-1.91-0.778
								c-0.039-0.008-0.077-0.018-0.115-0.025c-0.469-0.083-0.945-0.108-1.42-0.09c-1.034,0.038-2.062,0.301-2.982,0.767
								c-0.436,0.221-0.843,0.489-1.22,0.794c-0.448,0.364-0.85,0.782-1.175,1.266l-0.813,8.64c0.444,1.119,1.342,2.032,2.41,2.588
								c1.067,0.556,2.296,0.769,3.498,0.711c0.706-0.033,1.418-0.161,2.046-0.486c0.533-0.276,0.987-0.684,1.392-1.126
								C177.86,267.8,178.649,263.891,177.473,260.604z"/>
							<path style="fill:#271A0E;" d="M173.36,259.661c-1.698-0.245-3.576,0.652-4.237,2.072c-0.338,0.652-0.832,2.751-0.623,4.222
								c0.022,0.158,0.181,0.2,0.382,0.254c0.276,0.075,0.692,0.186,0.897,0.565c0.208,0.385-0.104,0.921-0.29,1.242
								c-0.133,0.228-0.199,0.341-0.136,0.458c0.316,0.591,0.804,0.984,1.413,1.137c0.192,0.049,0.395,0.073,0.604,0.073
								c0.647,0,1.355-0.226,1.99-0.647c1.909-1.272,2.665-3.803,2.731-5.583C176.169,261.412,175.096,259.924,173.36,259.661z
								 M171.171,260.825c0.527-0.242,1.077-0.343,1.626-0.322c0.756,0.038,1.345,0.3,1.751,0.778
								c0.505,0.594,0.716,1.525,0.594,2.622c-0.077,0.689-0.273,1.401-0.562,2.061c-0.032-0.242-0.1-0.478-0.202-0.705
								c-0.375-0.831-0.987-1.394-1.579-1.939C172.045,262.628,171.333,261.974,171.171,260.825z M171.045,268.759
								c-0.419-0.097-0.684-0.29-0.752-0.401c0.005-0.01,0.011-0.023,0.017-0.035c0.128-0.247,0.467-0.907,0.314-1.64
								c-0.143-0.694-0.889-1.08-1.352-1.216c-0.058-1.235,0.347-2.817,0.476-3.283c0.067-0.24,0.298-0.548,0.546-0.788
								c0.01,0.552,0.374,1.089,0.563,1.331c0.331,0.424,0.732,0.805,1.122,1.172c0.161,0.153,0.322,0.305,0.477,0.46l0.196,0.193
								c0.635,0.621,1.136,1.111,0.996,2.148c-0.08,0.595-0.652,1.328-0.717,1.41C172.275,268.934,171.395,268.836,171.045,268.759z
								"/>
						</g>
					</g>
					<path style="fill:#784422;" d="M168.674,250.862c-0.142-5.771-1.733-20.131-20.756-20.131
						c-19.023,0-20.896,16.634-21.211,21.988c-0.315,5.355,1.35,26.391,6.793,30.811c2.492,2.024,8.432,4.796,14.241,4.796
						c5.81,0,11.819-2.772,14.312-4.796C167.495,279.11,168.816,256.633,168.674,250.862z"/>
					<g>
						<path style="fill:#213C5E;" d="M171.503,237.786c-6.434-9.228-24.413-19.847-32.803-7.786
							c-10.99-4.85-20.001,19.285-12.877,26.66c0.69,0.714,1.687,0.105,1.785-0.74c0.553-4.723,2.95-7.535,6.42-10.428
							c1.405-1.171,2.687-2.354,3.643-3.928c0.447-0.736,0.82-1.511,1.124-2.307c0.848,3.059,2.572,5.835,5.297,7.313
							c2.461,1.335,5.418,0.845,6.896-1.016c1.084,2.153,2.75,3.962,5.356,4.18c1.979,0.165,3.496-0.666,4.375-2.047
							c1.167,2.169,3.121,4.751,5.204,6.1c2.07,1.797,4.789,2.498,7.283,0.329C177.866,250.065,174.271,241.756,171.503,237.786z"/>
						<g>
							<path style="fill:#173357;" d="M139.949,240.367c-0.26-1.466-0.631-2.944-0.714-4.435c-0.077-1.373,0.143-2.711,0.262-4.074
								c0.045-0.517-0.728-0.694-0.962-0.261c-1.481,2.745-1.412,6.628,0.316,9.232
								C139.238,241.415,140.068,241.036,139.949,240.367z"/>
							<path style="fill:#173357;" d="M151.164,243.705c-1.736-0.709-3.644-1.284-5.061-2.564c-1.055-0.953-2.22-2.67-2.47-4.097
								c-0.05-0.284-0.506-0.215-0.499,0.068c0.023,0.977-0.102,1.659,0.27,2.582c0.404,1.002,1.043,1.913,1.806,2.674
								c1.566,1.562,3.585,2.503,5.803,2.452C151.692,244.803,151.733,243.937,151.164,243.705z"/>
							<path style="fill:#173357;" d="M158.235,241.489c-3.575-2.071-7.025-3.556-8.809-7.585c-0.284-0.641-1.417-0.175-1.145,0.483
								c1.608,3.879,5.017,8.304,9.626,8.317C158.551,242.706,158.794,241.814,158.235,241.489z"/>
							<path style="fill:#173357;" d="M162.292,234.928c-2.423-3.431-8.493-8.96-12.657-5.61c-0.193,0.155,0.063,0.491,0.267,0.346
								c3.151-2.242,9.115,4.387,11.51,6.145C161.926,236.186,162.654,235.441,162.292,234.928z"/>
							<path style="fill:#173357;" d="M164.958,241.971c-0.356-0.076-0.481,0.411-0.148,0.539c2.638,1.009,3.477,3.214,4.424,5.637
								c0.307,0.785,1.513,0.724,1.53-0.207C170.82,244.867,167.691,242.557,164.958,241.971z"/>
							<path style="fill:#173357;" d="M133.647,238.819c-2.169,1.47-7.211,5.419-5.631,8.543c0.214,0.424,0.894,0.415,1.111,0
								c0.331-0.632,0.413-1.301,0.673-1.962c0.376-0.953,1.006-1.757,1.675-2.518c1.025-1.165,2.226-2.164,2.619-3.72
								C134.156,238.921,133.876,238.663,133.647,238.819z"/>
							<path style="fill:#173357;" d="M132.487,234.35c-2.648,1.652-5.053,3.934-5.982,6.983c-0.144,0.474,0.518,0.717,0.774,0.326
								c1.614-2.468,3.214-4.798,5.704-6.462C133.503,234.85,133.028,234.013,132.487,234.35z"/>
						</g>
					</g>
					
						<line style="fill:none;stroke:#435B7A;stroke-width:1.0836;stroke-miterlimit:10;" x1="148.805" y1="262.12" x2="145.292" y2="262.12"/>
					<g>
						<g>
							<g>
								<g>
									<path style="fill:#213C5E;" d="M132.886,258.526c-0.24,0.251-0.458,0.537-0.553,0.872
										c-0.095,0.335-0.047,0.726,0.191,0.979c0.264,0.28,0.7,0.334,1.075,0.249c0.376-0.085,0.712-0.285,1.059-0.453
										c1.489-0.72,3.172-0.83,4.799-0.752c1.293,0.062,3.265,0.611,4.382-0.309c0.015-0.009,0.032-0.015,0.047-0.024
										c0.824-0.513,0.938-1.484,0.318-2.209c-0.604-0.706-1.622-0.931-2.506-0.989c-1.598-0.105-3.199,0.179-4.747,0.588
										c-1.394,0.368-2.814,0.87-3.862,1.848C133.02,258.389,132.952,258.457,132.886,258.526z"/>
									<path style="fill:#271A0E;" d="M136.943,263.29c0,1.18,0.956,2.137,2.135,2.137c1.18,0,2.136-0.957,2.136-2.137
										c0-1.18-0.956-2.137-2.136-2.137C137.899,261.154,136.943,262.11,136.943,263.29z"/>
								</g>
								<g>
									<path style="fill:#213C5E;" d="M162.264,258.324c-1.048-0.978-2.468-1.48-3.862-1.848
										c-1.549-0.409-3.149-0.693-4.748-0.588c-0.885,0.059-1.902,0.283-2.506,0.989c-0.62,0.725-0.506,1.695,0.318,2.209
										c0.015,0.01,0.031,0.015,0.046,0.024c1.117,0.92,3.089,0.371,4.382,0.309c1.627-0.078,3.31,0.032,4.799,0.752
										c0.347,0.168,0.684,0.368,1.06,0.453c0.375,0.085,0.812,0.031,1.075-0.249c0.238-0.253,0.286-0.644,0.191-0.979
										c-0.095-0.334-0.313-0.62-0.553-0.872C162.402,258.457,162.334,258.389,162.264,258.324z"/>
									<path style="fill:#271A0E;" d="M158.411,263.29c0,1.18-0.956,2.137-2.135,2.137c-1.18,0-2.136-0.957-2.136-2.137
										c0-1.18,0.956-2.137,2.136-2.137C157.455,261.154,158.411,262.11,158.411,263.29z"/>
								</g>
							</g>
							<g>
								<path style="fill:#271A0E;" d="M147.885,275.511c-3.382-1.421-1.293-5.822-0.883-8.543c0.302-2.001,0.526-3.983,0.23-5.995
									c-0.033-0.228-0.347-0.174-0.41,0c-0.778,2.166-1.051,4.475-1.526,6.721c-0.404,1.915-1.197,4.041-1.055,6.025
									c0.152,2.121,1.554,3.273,3.643,2.979C148.569,276.602,148.359,275.71,147.885,275.511z"/>
								<path style="fill:#271A0E;" d="M151.072,274.184c-0.095-0.242-0.446-0.424-0.651-0.172c-0.252,0.31-0.397,0.686-0.656,0.983
									c-0.196,0.224-0.356,0.282-0.451,0.571c-0.019,0.058,0.002,0.13,0.046,0.172
									C150.169,276.522,151.404,275.022,151.072,274.184z"/>
							</g>
						</g>
						<g>
							<path style="fill:none;stroke:#435B7A;stroke-width:1.0836;stroke-miterlimit:10;" d="M145.441,260.198
								c0,0.612-0.051,1.213-0.149,1.797c-0.856,5.115-5.304,9.014-10.662,9.014c-5.971,0-10.811-4.84-10.811-10.811
								c0-5.971,4.84-10.811,10.811-10.811C140.601,249.388,145.441,254.228,145.441,260.198z"/>
							
								<ellipse transform="matrix(0.7071 -0.7071 0.7071 0.7071 -137.273 188.9903)" style="fill:none;stroke:#435B7A;stroke-width:1.0836;stroke-miterlimit:10;" cx="159.495" cy="260.198" rx="10.811" ry="10.811"/>
						</g>
						<path style="fill:#3F1103;" d="M153.322,276.404c-2.32,0.563-3.646,2.694-6.248,2.488c-2.115-0.168-3.868-1.472-5.874-1.975
							c-0.39-0.098-0.58,0.343-0.363,0.623c3.344,4.3,10.017,4.033,13.211-0.19C154.409,276.872,153.816,276.284,153.322,276.404z"
							/>
					</g>
				</g>
				<g>
					<g>
						<path style="fill:#784422;" d="M223.686,392.88c-0.173-13.615-11.821-42.399-16.275-54.491
							c-7.692-20.883-12.931-29.283-20.016-26.329l-2.704,1.567c-7.085,2.954-4.491,21.193,1.815,36.098
							c3.041,7.188,8.412,20.004,14.424,30.952c-3.326-0.776-6.989-1.592-10.669-2.388c0.09,5.38,0.205,10.768-0.03,16.131
							c4.915,1.972,10.139,4.148,15.153,6.353c4.506,1.98,16.032,5.02,18.254-4.012C223.987,395.341,223.961,394.059,223.686,392.88
							z"/>
						<path style="fill:#97C0F7;" d="M206.183,331.059l-0.24-0.658c-4.049-11.132-12.113-22.643-19.411-26.554
							c-5.276-2.828-13.443,2.04-13.674,7.482c-0.229,5.42-0.043,8.877,7.178,26.117c0.659,1.571,1.425,3.446,2.281,5.54
							c1.284,3.143,2.769,6.773,4.388,10.604c0.289,0.683,1.031,1.06,1.759,0.894c1.211-0.275,2.41-0.582,3.598-0.914
							c6.608-1.852,12.806-4.502,18.132-6.931c0.718-0.327,1.075-1.138,0.825-1.881C209.232,339.436,207.47,334.594,206.183,331.059
							z"/>
					</g>
					<g>
						<path style="fill:#784422;" d="M75,393.361c0.173-13.615,11.821-42.399,16.275-54.491
							c7.692-20.883,12.931-29.283,20.016-26.329l2.704,1.567c7.085,2.954,4.491,21.193-1.815,36.098
							c-3.041,7.188-8.412,20.004-14.424,30.952c3.326-0.776,6.989-1.592,10.669-2.388c-0.09,5.38-0.205,10.768,0.03,16.131
							c-4.915,1.972-10.139,4.148-15.153,6.353c-4.506,1.98-16.032,5.02-18.254-4.012C74.699,395.821,74.724,394.539,75,393.361z"/>
						<path style="fill:#97C0F7;" d="M92.502,331.539l0.24-0.658c4.049-11.132,12.113-22.643,19.41-26.554
							c5.276-2.828,13.443,2.04,13.674,7.482c0.229,5.42,0.043,8.877-7.178,26.117c-0.659,1.571-1.425,3.446-2.281,5.54
							c-1.284,3.143-2.769,6.773-4.388,10.604c-0.289,0.683-1.031,1.06-1.759,0.894c-1.211-0.275-2.41-0.582-3.598-0.914
							c-6.608-1.852-12.806-4.502-18.132-6.931c-0.718-0.327-1.075-1.138-0.825-1.88C89.453,339.917,91.215,335.075,92.502,331.539z
							"/>
					</g>
				</g>
				<g>
					<g>
						<path style="fill:#192E47;" d="M179.261,451.957h-60.178c-10.61,0-11.239-9.091-9.295-18.933l6.247-20.152h66.274
							l6.247,20.152C190.5,442.866,189.871,451.957,179.261,451.957z"/>
						<path style="fill:#97C0F7;" d="M184.146,302.842c-2.575-0.565-19.22-4.147-24.137-5.108
							c-3.233,3.603-20.919,3.664-23.623-0.132c-3.535,0.832-7.194,1.525-10.578,2.428c-5.411,1.444-10.204,3.129-13.291,4.532
							c-0.557,9.786,4.737,105.734,3.418,108.844c-1.319,3.111,66.986,3.016,66.421-0.377
							C181.791,409.635,183.586,311.965,184.146,302.842z"/>
					</g>
					<g>
						<path style="fill:#84AFEB;" d="M114.112,327.435c-0.077-0.531-0.933-0.396-0.925,0.125c0.212,13.291,0.7,26.986,1.783,40.232
							c0.053,0.651,0.979,0.66,1.02,0C116.804,354.665,116.009,340.449,114.112,327.435z"/>
						<path style="fill:#84AFEB;" d="M182.723,327.097c-0.029-0.445-0.653-0.441-0.689,0c-1.126,13.55-1.182,27.758-0.601,41.342
							c0.032,0.74,1.101,0.735,1.146,0C183.403,354.871,183.606,340.666,182.723,327.097z"/>
					</g>
				</g>
				<g>
					<g>
						<path style="fill:#784422;" d="M62.579,451.449c8.155-5.339,24.984-5.965,33.698-7.837
							c8.713-1.872,76.377-24.125,94.35-30.823c17.124-6.382,42.289-19.183,48.498-6.342c5.972,12.349-18.284,27.103-48.696,33.254
							c-39.463,7.982-90.333,14.609-89.804,16.023c0,0-13.79,5.236-20.39,6.536c-4.829,0.952-10.137,1.552-15.117,0.661
							C58.522,461.741,56.35,455.527,62.579,451.449z"/>
						<path style="fill:#213C5E;" d="M239.124,406.447c-6.209-12.841-31.375-0.04-48.498,6.342
							c-14.07,5.244-58.592,20.02-81.445,27.088c0.001,0.006,0.004,0.01,0.005,0.016c0.607,4.516,1.823,8.891,2.952,13.289
							c17.198-2.932,50.55-7.87,78.291-13.481C220.84,433.55,245.096,418.796,239.124,406.447z"/>
						<g>
							<path style="fill:#3A2C48;" d="M101.142,452.97c-0.896-3.235-1.819-6.579-2.289-9.943c-0.024-0.16-0.115-0.304-0.25-0.394
								c-0.135-0.09-0.306-0.12-0.461-0.074c-0.821,0.222-1.507,0.395-1.985,0.498c-2.468,0.531-5.651,0.969-9.022,1.432
								c-8.435,1.159-18.934,2.602-24.865,6.486c-2.975,1.946-4.378,4.547-3.851,7.135c0.547,2.682,3.076,4.738,6.6,5.369
								c1.667,0.298,3.422,0.448,5.312,0.448c2.957,0,6.242-0.369,10.011-1.112c6.574-1.295,19.919-6.349,20.483-6.563
								c0.124-0.048,0.221-0.133,0.285-0.239c0.053-0.026,0.144-0.062,0.286-0.111c0.281-0.097,0.438-0.395,0.361-0.683
								C101.556,454.47,101.348,453.72,101.142,452.97z"/>
							<path style="fill:#271A0E;" d="M95.504,452.591c-1.096-1.03-2.607-1.709-4.114-2.247c0.454-1.009,0.875-2.038,1.113-3.099
								c0.215-0.959-1.095-1.98-1.82-1.06c-0.798,1.013-1.4,2.147-1.978,3.296c-1.585-0.468-3.273-0.849-4.917-0.776
								c-0.219-0.242-0.563-0.347-0.951-0.177c-1.226,0.538-2.103,1.914-2.817,3.161c-1.088-0.218-2.147-0.388-3.09-0.52
								c-1.426-0.2-2.088,1.81-0.613,2.227c0.777,0.22,1.557,0.439,2.334,0.663c-0.65,1.143-1.256,2.41-1.179,3.577
								c0.06,0.915,1.119,1.407,1.814,0.752c0.934-0.881,1.403-2.274,1.939-3.527c0.2,0.067,0.404,0.121,0.604,0.191
								c1.668,0.584,3.232,1.479,4.991,1.694c0.456,0.056,0.805-0.231,0.987-0.611c0.129-0.026,0.26-0.033,0.385-0.123
								c1.075-0.776,0.725-1.147,1.237-2.358c1.37,0.619,3.584,0.436,5.016,0.758C95.458,454.64,96.335,453.371,95.504,452.591z
								 M83.648,450.622c1.25,0.473,2.58,0.764,3.87,1.138c-0.394,0.724-0.771,1.477-0.949,2.246
								c-1.13-0.719-2.492-1.259-3.908-1.676C83.027,451.775,83.387,451.205,83.648,450.622z"/>
						</g>
					</g>
					<g>
						<path style="fill:#784422;" d="M235.765,451.449c-8.155-5.339-24.984-5.965-33.698-7.837
							c-8.713-1.872-76.377-24.125-94.35-30.823c-17.124-6.382-42.289-19.183-48.498-6.342
							c-5.972,12.349,18.284,27.103,48.696,33.254c39.463,7.982,90.333,14.609,89.803,16.023c0,0,13.79,5.236,20.39,6.536
							c4.828,0.952,10.136,1.552,15.117,0.661C239.822,461.741,241.994,455.527,235.765,451.449z"/>
						<path style="fill:#213C5E;" d="M59.22,406.447c6.209-12.841,31.375-0.04,48.498,6.342c14.07,5.244,58.593,20.02,81.445,27.088
							c-0.001,0.006-0.004,0.01-0.005,0.016c-0.607,4.516-1.824,8.891-2.952,13.289c-17.198-2.932-50.55-7.87-78.29-13.481
							C77.504,433.55,53.248,418.796,59.22,406.447z"/>
						<g>
							<path style="fill:#3A2C48;" d="M197.202,452.97c0.896-3.235,1.82-6.579,2.289-9.943c0.024-0.16,0.115-0.304,0.25-0.394
								c0.135-0.09,0.305-0.12,0.46-0.074c0.821,0.222,1.508,0.395,1.985,0.498c2.468,0.531,5.651,0.969,9.022,1.432
								c8.435,1.159,18.934,2.602,24.865,6.486c2.975,1.946,4.378,4.547,3.852,7.135c-0.547,2.682-3.077,4.738-6.601,5.369
								c-1.667,0.298-3.422,0.448-5.312,0.448c-2.957,0-6.242-0.369-10.011-1.112c-6.574-1.295-19.918-6.349-20.483-6.563
								c-0.124-0.048-0.221-0.133-0.285-0.239c-0.053-0.026-0.144-0.062-0.286-0.111c-0.281-0.097-0.438-0.395-0.361-0.683
								C196.788,454.47,196.996,453.72,197.202,452.97z"/>
							<path style="fill:#271A0E;" d="M203.9,454.412c1.432-0.322,2.79-0.994,4.161-1.613c0.512,1.211,1.016,2.437,2.092,3.213
								c0.125,0.09,0.255,0.098,0.385,0.123c0.182,0.38,0.532,0.667,0.987,0.611c1.759-0.216,3.322-1.111,4.991-1.694
								c0.199-0.07,0.403-0.125,0.603-0.191c0.536,1.253,1.005,2.646,1.94,3.527c0.694,0.655,1.753,0.164,1.814-0.752
								c0.077-1.167-1.384-1.58-2.034-2.722c0.777-0.224,2.411-1.297,3.189-1.518c1.475-0.417,0.812-2.427-0.614-2.227
								c-0.943,0.132-2.002,0.302-3.09,0.52c-0.713-1.247-1.59-2.623-2.817-3.161c-0.387-0.17-0.732-0.065-0.95,0.177
								c-1.644-0.074-3.332,0.308-4.917,0.776c-0.577-1.149-1.18-2.283-1.978-3.296c-0.725-0.92-2.036,0.101-1.82,1.06
								c0.238,1.061,0.659,2.09,1.113,3.099c-1.507,0.538-3.018,1.217-4.113,2.247C202.009,453.371,202.886,454.64,203.9,454.412z
								 M215.683,452.33c-1.416,0.418-2.777,0.958-3.907,1.676c-0.178-0.769-0.555-1.522-0.949-2.246
								c1.29-0.374,2.62-0.665,3.87-1.138C214.957,451.205,215.317,451.775,215.683,452.33z"/>
						</g>
					</g>
					<g>
						<path style="fill:#192E47;" d="M188.699,438.401c-13.153-3.369-26.051-8.934-39.275-11.703
							c-0.08-0.017-0.137,0.095-0.058,0.138c11.698,6.327,26.232,9.348,39.027,12.676
							C189.111,439.698,189.417,438.585,188.699,438.401z"/>
						<path style="fill:#192E47;" d="M155.27,447.421c-15.513-2.294-30.909-5.542-46.414-7.734c-0.215-0.03-0.309,0.263-0.092,0.333
							c14.724,4.747,30.983,7.008,46.37,8.401C155.699,448.473,155.839,447.505,155.27,447.421z"/>
					</g>
				</g>
			</g>
			<g>
				<path style="fill:#F46700;" d="M198.245,410.635h-97.69c-2.306,0-4.176-1.87-4.176-4.176v-9.321h106.042v9.321
					C202.421,408.765,200.551,410.635,198.245,410.635z"/>
				<path style="fill:#FFAC6E;" d="M202.41,406.663H96.379v-48.104c0-3.87,3.137-7.008,7.008-7.008h92.016
					c3.87,0,7.008,3.137,7.008,7.008V406.663z"/>
				<path style="fill:#F46700;" d="M162.435,381.093c0,7.199-5.836,13.035-13.035,13.035c-7.199,0-13.035-5.836-13.035-13.035
					c0-7.199,5.836-13.035,13.035-13.035C156.599,368.057,162.435,373.893,162.435,381.093z"/>
			</g>
		</g>
	</g>
</g>
<g id="DESIGNED_BY_FREEPIK">
	<g>
		<g id="XMLID_319_">
			<g id="XMLID_338_">
				<path id="XMLID_346_" style="fill:#1D262D;" d="M385.104,465.465c-0.432,0.443-0.803,0.931-1.108,1.453l-0.465-0.241
					c-0.067-0.298-0.349-0.503-0.659-0.466c-0.331,0.039-0.568,0.339-0.529,0.67c0.039,0.331,0.339,0.568,0.67,0.529
					c0.066-0.008,0.127-0.026,0.184-0.052l0.451,0.234c-0.251,0.554-0.433,1.139-0.539,1.744l0.747,0.132
					c0.23-1.306,0.85-2.507,1.792-3.473L385.104,465.465z"/>
				<path id="XMLID_345_" style="fill:#1D262D;" d="M390.592,463.163c-0.171,0-0.341,0.006-0.51,0.017l-0.074-0.626
					c0.188-0.149,0.296-0.389,0.266-0.645c-0.046-0.393-0.402-0.674-0.795-0.628c-0.393,0.046-0.674,0.402-0.628,0.795
					c0.03,0.254,0.189,0.461,0.404,0.564l0.074,0.624c-0.714,0.116-1.403,0.332-2.06,0.646l0.327,0.684
					c0.934-0.447,1.942-0.673,2.995-0.673c0.496,0,0.993,0.053,1.475,0.158l0.161-0.741
					C391.692,463.222,391.142,463.163,390.592,463.163z"/>
				<path id="XMLID_344_" style="fill:#1D262D;" d="M397.194,465.711c0.331-0.04,0.566-0.341,0.526-0.672
					c-0.04-0.331-0.341-0.566-0.672-0.526c-0.309,0.038-0.535,0.304-0.53,0.609l-0.416,0.363c-0.418-0.43-0.889-0.813-1.408-1.139
					l-0.404,0.641c1.134,0.715,2.021,1.726,2.563,2.925l0.69-0.313c-0.251-0.554-0.567-1.072-0.942-1.545l0.402-0.351
					C397.065,465.716,397.129,465.719,397.194,465.711z"/>
				<path id="XMLID_343_" style="fill:#1D262D;" d="M390.044,473.372c-0.386,0.023-0.775,0.035-1.157,0.035
					c-0.88,0-1.733-0.061-2.478-0.179c-0.39-0.062-0.846-0.155-1.27-0.292c1.046,1.861,3.069,3.125,5.388,3.125
					c2.855,0,5.262-1.916,5.95-4.504c-0.682,0.449-1.505,0.825-2.459,1.123C392.839,473.047,391.463,473.286,390.044,473.372z"/>
				<path id="XMLID_339_" style="fill:#1D262D;" d="M390.592,464.68c-3.352,0-6.08,2.666-6.08,5.943
					c0,0.426,0.046,0.849,0.137,1.261c0.673,0.483,2.706,0.89,5.348,0.731c2.879-0.173,5.297-0.957,6.672-2.159
					c-0.006-0.195-0.021-0.39-0.045-0.582C396.244,466.913,393.65,464.68,390.592,464.68z M388.432,471.194
					c-1.02,0-1.85-0.83-1.85-1.85c0-1.02,0.83-1.85,1.85-1.85c1.02,0,1.85,0.83,1.85,1.85
					C390.282,470.365,389.452,471.194,388.432,471.194z M393.17,470.286c-0.75,0-1.36-0.61-1.36-1.36s0.61-1.361,1.36-1.361
					c0.75,0,1.361,0.61,1.361,1.361S393.92,470.286,393.17,470.286z"/>
			</g>
			<path id="XMLID_336_" style="fill:#1D262D;" d="M406.595,466.547c-0.295-0.116-0.805-0.309-1.382-0.237
				c-0.551,0.069-0.844,0.341-0.844,1.007v0.866h2.228v1.717h-2.228v5.455h-1.932v-5.455h-1.34v-1.717h1.34v-0.888
				c0-1.68,0.896-2.783,2.568-2.783c0.643,0,1.157,0.122,1.59,0.308L406.595,466.547z"/>
			<path id="XMLID_334_" style="fill:#1D262D;" d="M411.298,469.879c-0.177-0.03-0.358-0.046-0.526-0.046
				c-0.896,0-1.51,0.548-1.51,1.614v3.908h-1.932v-7.172h1.873v0.785c0.451-0.673,1.14-0.977,2.021-0.977
				c0.414,0,0.848,0.128,1.094,0.337L411.298,469.879z"/>
			<path id="XMLID_331_" style="fill:#1D262D;" d="M418.965,471.757c0,0.222-0.015,0.489-0.037,0.651h-5.085
				c0.207,1.036,0.933,1.488,1.843,1.488c0.622,0,1.295-0.252,1.813-0.688l1.133,1.243c-0.814,0.748-1.85,1.088-3.057,1.088
				c-2.198,0-3.723-1.495-3.723-3.753c0-2.258,1.48-3.797,3.627-3.797C417.544,467.99,418.958,469.522,418.965,471.757z
				 M413.851,471.091h3.175c-0.177-0.918-0.733-1.436-1.562-1.436C414.554,469.655,414.021,470.203,413.851,471.091z"/>
			<path id="XMLID_328_" style="fill:#1D262D;" d="M426.618,471.757c0,0.222-0.015,0.489-0.037,0.651h-5.085
				c0.207,1.036,0.932,1.488,1.843,1.488c0.622,0,1.295-0.252,1.814-0.688l1.132,1.243c-0.814,0.748-1.85,1.088-3.057,1.088
				c-2.198,0-3.723-1.495-3.723-3.753c0-2.258,1.48-3.797,3.627-3.797C425.197,467.99,426.611,469.522,426.618,471.757z
				 M421.504,471.091h3.175c-0.178-0.918-0.733-1.436-1.562-1.436C422.207,469.655,421.674,470.203,421.504,471.091z"/>
			<path id="XMLID_325_" style="fill:#1D262D;" d="M434.964,471.764c0,2.154-1.495,3.775-3.471,3.775
				c-0.962,0-1.643-0.378-2.109-0.933v3.708h-1.924v-10.133h1.887v0.792c0.466-0.585,1.155-0.984,2.139-0.984
				C433.469,467.99,434.964,469.61,434.964,471.764z M429.287,471.764c0,1.132,0.747,1.976,1.843,1.976
				c1.14,0,1.85-0.881,1.85-1.976c0-1.095-0.71-1.976-1.85-1.976C430.035,469.788,429.287,470.632,429.287,471.764z"/>
			<path id="XMLID_322_" style="fill:#1D262D;" d="M438.068,465.836c0,0.696-0.54,1.229-1.236,1.229
				c-0.696,0-1.229-0.533-1.229-1.229c0-0.696,0.533-1.243,1.229-1.243C437.527,464.592,438.068,465.14,438.068,465.836z
				 M437.809,475.354h-1.932v-7.172h1.932V475.354z"/>
			<path id="XMLID_320_" style="fill:#1D262D;" d="M441.032,470.736l2.701-2.554h2.368l-3.479,3.375l3.501,3.797h-2.376
				l-2.716-2.901v2.901H439.1v-10.658h1.932V470.736z"/>
		</g>
		<g>
			<path style="fill:#1D262D;" d="M309.412,475.289v-1.055c-0.527,0.718-1.391,1.23-2.387,1.23c-1.846,0-3.149-1.406-3.149-3.706
				c0-2.256,1.289-3.721,3.149-3.721c0.952,0,1.816,0.469,2.387,1.245v-3.765h1.099v9.77H309.412z M309.412,473.37v-3.208
				c-0.395-0.615-1.245-1.143-2.124-1.143c-1.421,0-2.27,1.172-2.27,2.739c0,1.567,0.85,2.724,2.27,2.724
				C308.168,474.483,309.017,473.986,309.412,473.37z"/>
			<path style="fill:#1D262D;" d="M311.932,471.744c0-2.051,1.465-3.706,3.486-3.706c2.139,0,3.398,1.67,3.398,3.794v0.279h-5.727
				c0.088,1.333,1.026,2.446,2.549,2.446c0.805,0,1.626-0.322,2.182-0.894l0.527,0.718c-0.703,0.703-1.655,1.084-2.812,1.084
				C313.44,475.465,311.932,473.956,311.932,471.744z M315.404,468.947c-1.509,0-2.256,1.274-2.315,2.358h4.643
				C317.718,470.25,317.015,468.947,315.404,468.947z"/>
			<path style="fill:#1D262D;" d="M319.607,474.351l0.571-0.791c0.469,0.542,1.362,1.011,2.329,1.011c1.084,0,1.67-0.513,1.67-1.216
				c0-1.714-4.38-0.659-4.38-3.281c0-1.098,0.952-2.036,2.636-2.036c1.201,0,2.051,0.454,2.622,1.026l-0.513,0.762
				c-0.424-0.513-1.201-0.894-2.109-0.894c-0.967,0-1.567,0.483-1.567,1.113c0,1.552,4.38,0.527,4.38,3.281
				c0,1.187-0.952,2.138-2.783,2.138C321.306,475.465,320.325,475.113,319.607,474.351z"/>
			<path style="fill:#1D262D;" d="M326.477,466.471c0-0.41,0.337-0.747,0.732-0.747c0.41,0,0.747,0.337,0.747,0.747
				c0,0.41-0.337,0.732-0.747,0.732C326.814,467.203,326.477,466.881,326.477,466.471z M326.667,475.289v-7.075h1.099v7.075H326.667
				z"/>
			<path style="fill:#1D262D;" d="M329.582,477.105l0.556-0.82c0.586,0.703,1.289,0.967,2.3,0.967c1.172,0,2.27-0.571,2.27-2.124
				v-1.011c-0.513,0.718-1.377,1.26-2.373,1.26c-1.845,0-3.149-1.377-3.149-3.662c0-2.27,1.289-3.677,3.149-3.677
				c0.952,0,1.802,0.469,2.373,1.245v-1.069h1.099v6.87c0,2.344-1.641,3.076-3.369,3.076
				C331.237,478.16,330.417,477.926,329.582,477.105z M334.709,473.253v-3.091c-0.381-0.615-1.23-1.143-2.109-1.143
				c-1.421,0-2.27,1.128-2.27,2.695c0,1.553,0.849,2.695,2.27,2.695C333.478,474.41,334.328,473.868,334.709,473.253z"/>
			<path style="fill:#1D262D;" d="M342.413,475.289v-4.629c0-1.245-0.63-1.641-1.582-1.641c-0.865,0-1.685,0.527-2.095,1.099v5.17
				h-1.099v-7.075h1.099v1.025c0.498-0.586,1.465-1.201,2.519-1.201c1.48,0,2.256,0.747,2.256,2.285v4.966H342.413z"/>
			<path style="fill:#1D262D;" d="M344.932,471.744c0-2.051,1.465-3.706,3.486-3.706c2.138,0,3.398,1.67,3.398,3.794v0.279h-5.727
				c0.088,1.333,1.025,2.446,2.549,2.446c0.806,0,1.626-0.322,2.183-0.894l0.527,0.718c-0.703,0.703-1.655,1.084-2.812,1.084
				C346.441,475.465,344.932,473.956,344.932,471.744z M348.404,468.947c-1.509,0-2.256,1.274-2.314,2.358h4.643
				C350.718,470.25,350.015,468.947,348.404,468.947z"/>
			<path style="fill:#1D262D;" d="M358.35,475.289v-1.055c-0.527,0.718-1.392,1.23-2.388,1.23c-1.845,0-3.149-1.406-3.149-3.706
				c0-2.256,1.289-3.721,3.149-3.721c0.952,0,1.817,0.469,2.388,1.245v-3.765h1.098v9.77H358.35z M358.35,473.37v-3.208
				c-0.396-0.615-1.245-1.143-2.124-1.143c-1.421,0-2.27,1.172-2.27,2.739c0,1.567,0.849,2.724,2.27,2.724
				C357.105,474.483,357.954,473.986,358.35,473.37z"/>
			<path style="fill:#1D262D;" d="M364.692,475.289v-9.77h1.099v3.765c0.572-0.776,1.421-1.245,2.388-1.245
				c1.845,0,3.149,1.465,3.149,3.721c0,2.299-1.304,3.706-3.149,3.706c-0.996,0-1.86-0.513-2.388-1.23v1.055H364.692z
				 M367.9,474.483c1.436,0,2.286-1.157,2.286-2.724c0-1.568-0.85-2.739-2.286-2.739c-0.864,0-1.728,0.527-2.109,1.143v3.208
				C366.171,473.986,367.036,474.483,367.9,474.483z"/>
			<path style="fill:#1D262D;" d="M372.529,477.061c0.161,0.073,0.425,0.117,0.601,0.117c0.483,0,0.806-0.161,1.055-0.747
				l0.469-1.069l-2.959-7.148h1.187l2.358,5.8l2.344-5.8h1.201l-3.545,8.51c-0.425,1.025-1.143,1.421-2.08,1.435
				c-0.234,0-0.601-0.044-0.806-0.103L372.529,477.061z"/>
		</g>
	</g>
</g>
</svg>
